{
.appVersion = "3039";
DisplayStrings = (
"/ba.base",
"/ba.base",
"/_smart.hat.low",
"/_smart.hat",
"",
"",
"",
"/ba.base",
"/_smart.hat/sa-ethiopic",
"/_smart.he.acute/se-ethiopic",
"/ba.base/shee-ethiopic",
"/ba.base/si-ethiopic",
"/shee-ethiopic",
"/ba.base/she-ethiopic",
"/wa.base/wa-ethiopic",
"/wu-ethiopic",
"/ma.base",
"/ma.base/mi-ethiopic",
"/wa-ethiopic",
"/aGl.base.cap/aGlottal-ethiopic.etcp",
"/_smart.eGl/eGlottal-ethiopic.etcp",
"/_smart.ka/ku-ethiopic.etcp",
"/ba.base.cap/kxwaa-ethiopic.etcp",
"/waGlottal-ethiopic",
"/ba.base/aGlottal-ethiopic",
"/_smart.aGl/aGlottal-ethiopic",
"/ba.base/aGlottal-ethiopic",
"/_smart.eGl/eGlottal-ethiopic",
"/ba.base/eGlottal-ethiopic",
"/_smart.ka/ka-ethiopic",
"/ba.base/ka-ethiopic",
"/_smart.hat.left/kxwi-ethiopic",
"/ba.base/kxwi-ethiopic",
"",
"/za.base",
"",
"/da.base",
"/ga.base",
"",
"/na.base",
"/re.base/ro-ethiopic",
"/nwa-ethiopic",
"/re.base",
"/b.base d",
"/b.base d",
"/b.base d",
g,
a,
c,
"",
"",
"/pa.base",
"/aPh.base/aPharyngeal-ethiopic",
"",
"/xo-ethiopic/xoa-ethiopic",
"/re.base/xoa-ethiopic",
"/no-ethiopic",
"/nyo-ethiopic",
"/nywa-ethiopic",
"/tsa.base/pha-ethiopic",
"/fa-ethiopic",
"/ra.base/ra-ethiopic",
"/szwa-ethiopic",
"/la.base/la-ethiopic",
"/_smart.eGl/eGlottal-ethiopic",
"/_smart.aGl/oGlottal-ethiopic",
"/la.base/lu-ethiopic",
"/_smart.ring/hee-ethiopic",
"/_smart.hee/hee-ethiopic",
"/la.base/lu-ethiopic",
"/la.base/li-ethiopic",
"/la.base/le-ethiopic",
"/_smart.ring/le-ethiopic",
"/la.base/le-ethiopic",
"/_smart.ring/le-ethiopic",
"/la.base/le-ethiopic",
"/lwa-ethiopic",
"/_smart.hee/hee-ethiopic",
"/ha.base/hee-ethiopic",
"/_smart.hee/hee-ethiopic",
"/la.base/lee-ethiopic",
"/hha.base/hhee-ethiopic",
"/ma.base/mee-ethiopic",
"/sa.base/szee-ethiopic",
"/ba.base/see-ethiopic",
"/_smart.haa/haa-ethiopic",
"/_smart.hwa/mwa-ethiopic",
"/_smart.hee/hee-ethiopic",
"/wa.base/qa-ethiopic",
"/wa.base/qa-ethiopic",
"/wa.base/qho-ethiopic",
"/wa.base/qho-ethiopic",
"/wa.base/qe-ethiopic",

glyphs = (
{
glyphname = A;
lastChange = "2020-12-29 14:14:00 +0000";
layers = (
{
anchors = (
{
name = top;
position = "{299, 631}";
}
);
layerId = "A36D14D1-FF07-4574-A62D-30DF65569781";
paths = (
{
closed = 1;
nodes = (
"121 0 LINE SMOOTH",
"132 0 OFFCURVE",
"141 9 OFFCURVE",
"141 20 CURVE SMOOTH",
"140.577 260 LINE",
"438.545 260 LINE",
"439 20 LINE SMOOTH",
"439 9 OFFCURVE",
"452 0 OFFCURVE",
"482 0 CURVE SMOOTH",
"506 0 OFFCURVE",
"520 9 OFFCURVE",
"520 20 CURVE SMOOTH",
"520 591 LINE SMOOTH",
"520 598 OFFCURVE",
"516 610 OFFCURVE",
"501 613 CURVE SMOOTH",
"94 694 LINE SMOOTH",
"77 697 OFFCURVE",
"60 692 OFFCURVE",
"60 673 CURVE SMOOTH",
"60 20 LINE SMOOTH",
"60 9 OFFCURVE",
"69 0 OFFCURVE",
"80 0 CURVE SMOOTH"
);
},
{
closed = 1;
nodes = (
"140 587 LINE SMOOTH",
"140 617 OFFCURVE",
"153 631 OFFCURVE",
"167 628 CURVE SMOOTH",
"416 578 LINE SMOOTH",
"431 575 OFFCURVE",
"438 563 OFFCURVE",
"438 547 CURVE SMOOTH",
"438.454 308 LINE",
"140.492 308 LINE"
);
}
);
width = 580;
}
);
unicode = 0041;
},
{
glyphname = AE;
lastChange = "2020-12-29 14:14:00 +0000";
layers = (
{
anchors = (
{
name = top;
position = "{299, 701}";
}
);
components = (
{
name = E;
transform = "{1, 0, 0, 1, 381, 0}";
}
);
layerId = "A36D14D1-FF07-4574-A62D-30DF65569781";
paths = (
{
closed = 1;
nodes = (
"121 0 LINE SMOOTH",
"132 0 OFFCURVE",
"141 9 OFFCURVE",
"141 20 CURVE SMOOTH",
"140.577 260 LINE",
"438.545 260 LINE",
"439 20 LINE SMOOTH",
"439 9 OFFCURVE",
"452 0 OFFCURVE",
"482 0 CURVE SMOOTH",
"506 0 OFFCURVE",
"520 9 OFFCURVE",
"520 20 CURVE SMOOTH",
"520 591 LINE SMOOTH",
"520 598 OFFCURVE",
"516 610 OFFCURVE",
"501 613 CURVE SMOOTH",
"94 694 LINE SMOOTH",
"77 697 OFFCURVE",
"60 692 OFFCURVE",
"60 673 CURVE SMOOTH",
"60 20 LINE SMOOTH",
"60 9 OFFCURVE",
"69 0 OFFCURVE",
"80 0 CURVE SMOOTH"
);
},
{
closed = 1;
nodes = (
"140 587 LINE SMOOTH",
"140 617 OFFCURVE",
"153 631 OFFCURVE",
"167 628 CURVE SMOOTH",
"416 578 LINE SMOOTH",
"431 575 OFFCURVE",
"438 563 OFFCURVE",
"438 547 CURVE SMOOTH",
"438.454 308 LINE",
"140.492 308 LINE"
);
}
);
width = 881;
}
);
unicode = 00C6;
},
{
glyphname = B;
lastChange = "2020-12-29 14:14:00 +0000";
layers = (
{
layerId = "A36D14D1-FF07-4574-A62D-30DF65569781";
paths = (
{
closed = 1;
nodes = (
"430 -1 LINE SMOOTH",
"471 -1 OFFCURVE",
"520 24 OFFCURVE",
"520 125 CURVE SMOOTH",
"520 285 LINE SMOOTH",
"520 299 OFFCURVE",
"510 309 OFFCURVE",
"496 309 CURVE SMOOTH",
"480 309 LINE",
"480 591 LINE SMOOTH",
"480 598 OFFCURVE",
"476 610 OFFCURVE",
"461 613 CURVE SMOOTH",
"94 694 LINE SMOOTH",
"77 698 OFFCURVE",
"60 692 OFFCURVE",
"60 673 CURVE SMOOTH",
"60 20 LINE SMOOTH",
"60 9 OFFCURVE",
"69 0 OFFCURVE",
"80 0 CURVE SMOOTH",
"157.046 0 LINE",
"158.929 -0.647 OFFCURVE",
"160.921 -1 OFFCURVE",
"163 -1 CURVE SMOOTH"
);
},
{
closed = 1;
nodes = (
"140.577 260 LINE",
"438 260 LINE",
"438 173 LINE SMOOTH",
"438 109.702 OFFCURVE",
"428 50 OFFCURVE",
"384.609 49.731 CURVE SMOOTH",
"140.95 48.11 LINE"
);
},
{
closed = 1;
nodes = (
"140 587 LINE SMOOTH",
"140 617 OFFCURVE",
"153 631 OFFCURVE",
"167 628 CURVE SMOOTH",
"376 578 LINE SMOOTH",
"391 574 OFFCURVE",
"398 563 OFFCURVE",
"398 547 CURVE SMOOTH",
"398 308 LINE",
"140.492 308 LINE"
);
}
);
width = 580;
}
);
unicode = 0042;
},
{
glyphname = D;
lastChange = "2020-12-29 14:14:00 +0000";
layers = (
{
components = (
{
name = c.base;
transform = "{-1, 0, 0, 1, 603, 0}";
}
);
layerId = "A36D14D1-FF07-4574-A62D-30DF65569781";
paths = (
{
closed = 1;
nodes = (
"161 0 LINE SMOOTH",
"172 0 OFFCURVE",
"181 9 OFFCURVE",
"181 20 CURVE SMOOTH",
"181 680 LINE SMOOTH",
"181 691 OFFCURVE",
"165 700 OFFCURVE",
"139 700 CURVE SMOOTH",
"116 700 OFFCURVE",
"100 692 OFFCURVE",
"100 673 CURVE SMOOTH",
"100 20 LINE SMOOTH",
"100 9 OFFCURVE",
"109 0 OFFCURVE",
"120 0 CURVE SMOOTH"
);
}
);
width = 644;
}
);
unicode = 0044;
},
{
glyphname = Eth;
lastChange = "2020-12-29 14:14:00 +0000";
layers = (
{
components = (
{
name = macron;
transform = "{1, 0, 0, 1, -40, -320}";
},
{
name = c.base;
transform = "{-1, 0, 0, 1, 603, 0}";
}
);
layerId = "A36D14D1-FF07-4574-A62D-30DF65569781";
paths = (
{
closed = 1;
nodes = (
"161 0 LINE SMOOTH",
"172 0 OFFCURVE",
"181 9 OFFCURVE",
"181 20 CURVE SMOOTH",
"181 680 LINE SMOOTH",
"181 691 OFFCURVE",
"165 700 OFFCURVE",
"139 700 CURVE SMOOTH",
"116 700 OFFCURVE",
"100 692 OFFCURVE",
"100 673 CURVE SMOOTH",
"100 20 LINE SMOOTH",
"100 9 OFFCURVE",
"109 0 OFFCURVE",
"120 0 CURVE SMOOTH"
);
}
);
width = 644;
}
);
unicode = 00D0;
},
{
glyphname = E;
lastChange = "2020-12-29 14:13:59 +0000";
layers = (
{
anchors = (
{
name = top;
position = "{245, 638}";
}
);
components = (
{
name = c.base;
}
);
layerId = "A36D14D1-FF07-4574-A62D-30DF65569781";
paths = (
{
closed = 1;
nodes = (
"369 260 LINE SMOOTH",
"383 260 OFFCURVE",
"393 270 OFFCURVE",
"393 284 CURVE SMOOTH",
"393 298 OFFCURVE",
"383 308 OFFCURVE",
"369 308 CURVE SMOOTH",
"72 308 LINE",
"72 260 LINE"
);
}
);
width = 491;
}
);
unicode = 0045;
},
{
glyphname = Eacute;
lastChange = "2020-12-29 14:13:59 +0000";
layers = (
{
anchors = (
{
name = top;
position = "{245, 638}";
}
);
components = (
{
name = c.base;
},
{
name = acute;
transform = "{1, 0, 0, 1, 164, 129}";
}
);
layerId = "A36D14D1-FF07-4574-A62D-30DF65569781";
paths = (
{
closed = 1;
nodes = (
"369 260 LINE SMOOTH",
"383 260 OFFCURVE",
"393 270 OFFCURVE",
"393 284 CURVE SMOOTH",
"393 298 OFFCURVE",
"383 308 OFFCURVE",
"369 308 CURVE SMOOTH",
"72 308 LINE",
"72 260 LINE"
);
}
);
width = 491;
}
);
unicode = 00C9;
},
{
glyphname = Ecircumflex;
lastChange = "2020-12-29 14:13:59 +0000";
layers = (
{
anchors = (
{
name = top;
position = "{245, 638}";
}
);
components = (
{
name = c.base;
},
{
name = circumflex;
transform = "{1, 0, 0, 1, 72, 132}";
}
);
layerId = "A36D14D1-FF07-4574-A62D-30DF65569781";
paths = (
{
closed = 1;
nodes = (
"369 260 LINE SMOOTH",
"383 260 OFFCURVE",
"393 270 OFFCURVE",
"393 284 CURVE SMOOTH",
"393 298 OFFCURVE",
"383 308 OFFCURVE",
"369 308 CURVE SMOOTH",
"72 308 LINE",
"72 260 LINE"
);
}
);
width = 491;
}
);
unicode = 00CA;
},
{
glyphname = F;
lastChange = "2020-12-29 20:36:48 +0000";
layers = (
{
layerId = "A36D14D1-FF07-4574-A62D-30DF65569781";
paths = (
{
closed = 1;
nodes = (
"121 0 LINE SMOOTH",
"132 0 OFFCURVE",
"140 9 OFFCURVE",
"140 20 CURVE SMOOTH",
"140 260 LINE",
"407 260 LINE SMOOTH",
"421 260 OFFCURVE",
"431 270 OFFCURVE",
"431 284 CURVE SMOOTH",
"431 298 OFFCURVE",
"421 304 OFFCURVE",
"407 308 CURVE SMOOTH",
"140 308 LINE",
"140 590 LINE SMOOTH",
"140 623 OFFCURVE",
"161 647 OFFCURVE",
"196 646 CURVE SMOOTH",
"406 643 LINE SMOOTH",
"417 643 OFFCURVE",
"428 645 OFFCURVE",
"431 664 CURVE SMOOTH",
"434 684 OFFCURVE",
"425 699 OFFCURVE",
"413 699 CURVE SMOOTH",
"154 699 LINE SMOOTH",
"90 699 OFFCURVE",
"60 627 OFFCURVE",
"60 588 CURVE SMOOTH",
"60 20 LINE SMOOTH",
"60 9 OFFCURVE",
"69 0 OFFCURVE",
"80 0 CURVE SMOOTH"
);
}
);
width = 495;
}
);
unicode = 0046;
},
{
glyphname = G;
lastChange = "2020-12-29 20:37:17 +0000";
layers = (
{
components = (
{
name = c.base;
transform = "{1, 0, 0, 1, 18, 0}";
},
{
name = _bar.part;
transform = "{0.8597, 0, 0, 1, -458, 2}";
}
);
layerId = "A36D14D1-FF07-4574-A62D-30DF65569781";
paths = (
{
closed = 1;
nodes = (
"506 0 OFFCURVE",
"520 6 OFFCURVE",
"520 17 CURVE SMOOTH",
"520 285 LINE SMOOTH",
"520 299 OFFCURVE",
"510 309 OFFCURVE",
"496 309 CURVE SMOOTH",
"439 309 LINE",
"439 20 LINE SMOOTH",
"439 9 OFFCURVE",
"452 0 OFFCURVE",
"482 0 CURVE SMOOTH"
);
}
);
width = 600;
}
);
unicode = 0047;
},
{
glyphname = H;
lastChange = "2020-12-29 14:13:59 +0000";
layers = (
{
components = (
{
name = _bar.up;
transform = "{1, 0, 0, 1, 10, 0}";
},
{
name = _bar.up;
transform = "{1, 0, 0, 1, 390, 0}";
}
);
layerId = "A36D14D1-FF07-4574-A62D-30DF65569781";
paths = (
{
closed = 1;
nodes = (
"441 260 LINE",
"441 308 LINE",
"120 308 LINE",
"120 260 LINE"
);
}
);
width = 581;
}
);
unicode = 0048;
},
{
glyphname = I;
lastChange = "2020-12-29 14:14:00 +0000";
layers = (
{
anchors = (
{
name = top;
position = "{103, 675}";
}
);
layerId = "A36D14D1-FF07-4574-A62D-30DF65569781";
paths = (
{
closed = 1;
nodes = (
"121 0 LINE SMOOTH",
"132 0 OFFCURVE",
"141 9 OFFCURVE",
"141 20 CURVE SMOOTH",
"141 680 LINE SMOOTH",
"141 691 OFFCURVE",
"125 700 OFFCURVE",
"99 700 CURVE SMOOTH",
"76 700 OFFCURVE",
"60 692 OFFCURVE",
"60 673 CURVE SMOOTH",
"60 20 LINE SMOOTH",
"60 9 OFFCURVE",
"69 0 OFFCURVE",
"80 0 CURVE SMOOTH"
);
}
);
width = 201;
}
);
unicode = 0049;
},
{
glyphname = J;
lastChange = "2020-12-29 14:13:59 +0000";
layers = (
{
layerId = "A36D14D1-FF07-4574-A62D-30DF65569781";
paths = (
{
closed = 1;
nodes = (
"262 -2 OFFCURVE",
"279 3 OFFCURVE",
"279 22 CURVE SMOOTH",
"279 675 LINE SMOOTH",
"279 686 OFFCURVE",
"270 695 OFFCURVE",
"259 695 CURVE SMOOTH",
"218 695 LINE SMOOTH",
"207 695 OFFCURVE",
"198 686 OFFCURVE",
"198 675 CURVE SMOOTH",
"199 108 LINE SMOOTH",
"199 78 OFFCURVE",
"186 65 OFFCURVE",
"172 67 CURVE SMOOTH",
"90 79 LINE SMOOTH",
"77 81 OFFCURVE",
"65 75 OFFCURVE",
"62 61 CURVE SMOOTH",
"61 58 LINE SMOOTH",
"58 43 OFFCURVE",
"67 30 OFFCURVE",
"81 28 CURVE SMOOTH",
"245 1 LINE SMOOTH"
);
}
);
width = 339;
}
);
unicode = 004A;
},
{
glyphname = K;
lastChange = "2020-12-29 14:13:59 +0000";
layers = (
{
components = (
{
name = _bar.up;
transform = "{1, 0, 0, 1, 10, 0}";
},
{
name = _bar.part;
transform = "{0.70711, 0.70711, -0.70711, 0.70711, -261, -492}";
}
);
layerId = "A36D14D1-FF07-4574-A62D-30DF65569781";
paths = (
{
closed = 1;
nodes = (
"389 -3 OFFCURVE",
"404 -3 OFFCURVE",
"414 7 CURVE SMOOTH",
"424 16 OFFCURVE",
"436 30 OFFCURVE",
"413 55 CURVE SMOOTH",
"162 331 LINE",
"128 284 LINE",
"380 7 LINE SMOOTH"
);
}
);
width = 486;
}
);
unicode = 004B;
},
{
glyphname = L;
lastChange = "2020-12-29 14:14:00 +0000";
layers = (
{
layerId = "A36D14D1-FF07-4574-A62D-30DF65569781";
paths = (
{
closed = 1;
nodes = (
"392 0 LINE SMOOTH",
"406 0 OFFCURVE",
"416 10 OFFCURVE",
"416 24 CURVE SMOOTH",
"416 38 OFFCURVE",
"406 48 OFFCURVE",
"392 48 CURVE SMOOTH",
"141 48 LINE",
"141 680 LINE SMOOTH",
"141 691 OFFCURVE",
"125 700 OFFCURVE",
"99 700 CURVE SMOOTH",
"76 700 OFFCURVE",
"60 692 OFFCURVE",
"60 673 CURVE SMOOTH",
"60 20 LINE SMOOTH",
"60 9 OFFCURVE",
"69 0 OFFCURVE",
"80 0 CURVE SMOOTH"
);
}
);
width = 476;
}
);
unicode = 004C;
},
{
glyphname = M;
lastChange = "2020-12-29 20:37:42 +0000";
layers = (
{
layerId = "A36D14D1-FF07-4574-A62D-30DF65569781";
paths = (
{
closed = 1;
nodes = (
"121 0 LINE SMOOTH",
"132 0 OFFCURVE",
"141 9 OFFCURVE",
"141 20 CURVE SMOOTH",
"141 577.505 LINE",
"294 290 LINE SMOOTH",
"298 282 OFFCURVE",
"310 279 OFFCURVE",
"319 279 CURVE SMOOTH",
"328 279 OFFCURVE",
"340 282 OFFCURVE",
"344 290 CURVE SMOOTH",
"496 575.92 LINE",
"496 21 LINE SMOOTH",
"496 10 OFFCURVE",
"505 1 OFFCURVE",
"516 1 CURVE SMOOTH",
"557 1 LINE SMOOTH",
"568 1 OFFCURVE",
"577 10 OFFCURVE",
"577 21 CURVE SMOOTH",
"577 681 LINE SMOOTH",
"577 692 OFFCURVE",
"561 701 OFFCURVE",
"535 701 CURVE SMOOTH",
"520.927 701 OFFCURVE",
"509.475 698.005 OFFCURVE",
"502.705 691.328 CURVE",
"319 357 LINE",
"136 692 LINE",
"134.872 690.925 LINE",
"127.957 696.38 OFFCURVE",
"115.49 700 OFFCURVE",
"99 700 CURVE SMOOTH",
"76 700 OFFCURVE",
"60 692 OFFCURVE",
"60 673 CURVE SMOOTH",
"60 20 LINE SMOOTH",
"60 9 OFFCURVE",
"69 0 OFFCURVE",
"80 0 CURVE SMOOTH"
);
}
);
width = 637;
}
);
unicode = 004D;
},
{
glyphname = N;
lastChange = "2020-12-29 14:14:00 +0000";
layers = (
{
anchors = (
{
name = top;
position = "{273, 641}";
}
);
layerId = "A36D14D1-FF07-4574-A62D-30DF65569781";
paths = (
{
closed = 1;
nodes = (
"121 0 LINE SMOOTH",
"132 0 OFFCURVE",
"141 11 OFFCURVE",
"141 22 CURVE SMOOTH",
"141 526.182 LINE",
"415 8 LINE SMOOTH",
"417.266 3.468 OFFCURVE",
"422.407 0.99 OFFCURVE",
"428.282 0.566 CURVE SMOOTH",
"433 0 LINE",
"474 0 LINE SMOOTH",
"485 0 OFFCURVE",
"494 9 OFFCURVE",
"494 20 CURVE SMOOTH",
"494 680 LINE SMOOTH",
"494 691 OFFCURVE",
"478 700 OFFCURVE",
"452 700 CURVE SMOOTH",
"429 700 OFFCURVE",
"413 692 OFFCURVE",
"413 673 CURVE SMOOTH",
"413 163.48 LINE",
"140 691 LINE SMOOTH",
"135.393 700.215 OFFCURVE",
"119.84 702.796 OFFCURVE",
"105.567 701.8 CURVE SMOOTH",
"99 702 LINE SMOOTH",
"76 702 OFFCURVE",
"60 694 OFFCURVE",
"60 675 CURVE SMOOTH",
"60 22 LINE SMOOTH",
"60 11 OFFCURVE",
"69 0 OFFCURVE",
"80 0 CURVE SMOOTH"
);
}
);
width = 554;
}
);
unicode = 004E;
},
{
glyphname = P;
lastChange = "2020-12-29 20:39:51 +0000";
layers = (
{
layerId = "A36D14D1-FF07-4574-A62D-30DF65569781";
paths = (
{
closed = 1;
nodes = (
"161 0 LINE SMOOTH",
"172 0 OFFCURVE",
"181 9 OFFCURVE",
"181 20 CURVE SMOOTH",
"181 261.314 LINE",
"184.461 258.634 OFFCURVE",
"188.526 257 OFFCURVE",
"193 257 CURVE SMOOTH",
"480 257 LINE SMOOTH",
"512 257 OFFCURVE",
"550 292 OFFCURVE",
"550 353 CURVE SMOOTH",
"550 648 LINE SMOOTH",
"550 677 OFFCURVE",
"529 699 OFFCURVE",
"496 699 CURVE SMOOTH",
"197 699 LINE SMOOTH",
"189.541 699 OFFCURVE",
"183.242 693.205 OFFCURVE",
"180.262 684.016 CURVE",
"176.845 693.109 OFFCURVE",
"161.751 700 OFFCURVE",
"139 700 CURVE SMOOTH",
"116 700 OFFCURVE",
"100 692 OFFCURVE",
"100 673 CURVE SMOOTH",
"100 20 LINE SMOOTH",
"100 9 OFFCURVE",
"109 0 OFFCURVE",
"120 0 CURVE SMOOTH"
);
},
{
closed = 1;
nodes = (
"181 656.181 LINE",
"185.49 644.416 OFFCURVE",
"195 643 OFFCURVE",
"204 643 CURVE SMOOTH",
"443 646 LINE SMOOTH",
"463 646 OFFCURVE",
"470 631 OFFCURVE",
"470 602 CURVE SMOOTH",
"470 360 LINE SMOOTH",
"470 328 OFFCURVE",
"464 311 OFFCURVE",
"435 311 CURVE SMOOTH",
"193 311 LINE SMOOTH",
"188.526 311 OFFCURVE",
"184.461 309.979 OFFCURVE",
"181 308.132 CURVE"
);
}
);
width = 650;
}
);
unicode = 0050;
},
{
glyphname = Thorn;
lastChange = "2020-12-29 14:14:00 +0000";
layers = (
{
components = (
{
name = bar;
transform = "{1, 0, 0, 1, 40, 0}";
}
);
layerId = "A36D14D1-FF07-4574-A62D-30DF65569781";
paths = (
{
closed = 1;
nodes = (
"460 117 LINE SMOOTH",
"501 117 OFFCURVE",
"550 142 OFFCURVE",
"550 243 CURVE SMOOTH",
"550 448 LINE SMOOTH",
"550 487 OFFCURVE",
"520 559 OFFCURVE",
"456 559 CURVE SMOOTH",
"197 559 LINE SMOOTH",
"185 559 OFFCURVE",
"176 544 OFFCURVE",
"179 524 CURVE SMOOTH",
"182 505 OFFCURVE",
"193 503 OFFCURVE",
"204 503 CURVE SMOOTH",
"383 506 LINE SMOOTH",
"453 507 OFFCURVE",
"470 471 OFFCURVE",
"470 382 CURVE SMOOTH",
"470 304 LINE SMOOTH",
"470 205 OFFCURVE",
"453 171 OFFCURVE",
"393 171 CURVE SMOOTH",
"193 171 LINE SMOOTH",
"179 171 OFFCURVE",
"169 161 OFFCURVE",
"169 147 CURVE SMOOTH",
"169 133 OFFCURVE",
"179 117 OFFCURVE",
"193 117 CURVE SMOOTH"
);
}
);
width = 650;
}
);
unicode = 00DE;
},
{
glyphname = Q;
lastChange = "2020-12-29 14:13:59 +0000";
layers = (
{
components = (
{
name = O;
}
);
layerId = "A36D14D1-FF07-4574-A62D-30DF65569781";
paths = (
{
closed = 1;
nodes = (
"488 -124 OFFCURVE",
"501 -124 OFFCURVE",
"509 -116 CURVE SMOOTH",
"518 -108 OFFCURVE",
"528 -97 OFFCURVE",
"509 -76 CURVE SMOOTH",
"311 131 LINE SMOOTH",
"300 143 OFFCURVE",
"283 142 OFFCURVE",
"273 129 CURVE",
"273 128 LINE",
"266 119 OFFCURVE",
"266 108 OFFCURVE",
"274 99 CURVE SMOOTH",
"480 -116 LINE SMOOTH"
);
}
);
width = 574;
}
);
unicode = 0051;
},
{
glyphname = R;
lastChange = "2020-12-29 14:14:00 +0000";
layers = (
{
components = (
{
name = P;
}
);
layerId = "A36D14D1-FF07-4574-A62D-30DF65569781";
paths = (
{
closed = 1;
nodes = (
"504 -5 OFFCURVE",
"525 -1 OFFCURVE",
"536 7 CURVE SMOOTH",
"547 15 OFFCURVE",
"556 37 OFFCURVE",
"543 54 CURVE SMOOTH",
"361 297 LINE",
"283 290 LINE",
"495 7 LINE SMOOTH"
);
}
);
width = 673;
}
);
unicode = 0052;
},
{
glyphname = S;
lastChange = "2020-12-29 20:42:43 +0000";
layers = (
{
layerId = "A36D14D1-FF07-4574-A62D-30DF65569781";
paths = (
{
closed = 1;
nodes = (
"351 -1 LINE SMOOTH",
"392 -1 OFFCURVE",
"441 24 OFFCURVE",
"441 125 CURVE SMOOTH",
"441 183 LINE SMOOTH",
"441 230 OFFCURVE",
"417 263 OFFCURVE",
"390 281 CURVE SMOOTH",
"165 428 LINE SMOOTH",
"147 440 OFFCURVE",
"141 465 OFFCURVE",
"141 486 CURVE SMOOTH",
"141 580 LINE SMOOTH",
"141 629 OFFCURVE",
"158 647 OFFCURVE",
"228 646 CURVE SMOOTH",
"407 643 LINE SMOOTH",
"418 643 OFFCURVE",
"429 645 OFFCURVE",
"432 664 CURVE SMOOTH",
"435 684 OFFCURVE",
"426 699 OFFCURVE",
"414 699 CURVE SMOOTH",
"155 699 LINE SMOOTH",
"91 699 OFFCURVE",
"61 627 OFFCURVE",
"61 588 CURVE SMOOTH",
"61 488 LINE SMOOTH",
"61 436 OFFCURVE",
"82 402 OFFCURVE",
"101 389 CURVE SMOOTH",
"304 255 LINE SMOOTH",
"323 242 OFFCURVE",
"361 228 OFFCURVE",
"361 193 CURVE SMOOTH",
"361 128 LINE SMOOTH",
"361 63 OFFCURVE",
"344 53 OFFCURVE",
"284 53 CURVE SMOOTH",
"84 53 LINE SMOOTH",
"70 53 OFFCURVE",
"60 43 OFFCURVE",
"60 29 CURVE SMOOTH",
"60 15 OFFCURVE",
"70 -1 OFFCURVE",
"84 -1 CURVE SMOOTH"
);
}
);
width = 501;
}
);
unicode = 0053;
},
{
glyphname = T;
lastChange = "2020-12-29 14:14:00 +0000";
layers = (
{
layerId = "A36D14D1-FF07-4574-A62D-30DF65569781";
paths = (
{
closed = 1;
nodes = (
"247 0 LINE SMOOTH",
"258 0 OFFCURVE",
"267 9 OFFCURVE",
"267 20 CURVE SMOOTH",
"267 660 LINE",
"387 660 LINE SMOOTH",
"401 660 OFFCURVE",
"411 670 OFFCURVE",
"411 684 CURVE SMOOTH",
"411 698 OFFCURVE",
"401 708 OFFCURVE",
"387 708 CURVE SMOOTH",
"84 708 LINE SMOOTH",
"70 708 OFFCURVE",
"60 698 OFFCURVE",
"60 684 CURVE SMOOTH",
"60 670 OFFCURVE",
"70 660 OFFCURVE",
"84 660 CURVE SMOOTH",
"186 660 LINE",
"186 20 LINE SMOOTH",
"186 9 OFFCURVE",
"195 0 OFFCURVE",
"206 0 CURVE SMOOTH"
);
}
);
width = 471;
}
);
unicode = 0054;
},
{
glyphname = U;
lastChange = "2020-12-30 07:28:44 +0000";
layers = (
{
anchors = (
{
name = haa;
position = "{412, -9}";
},
{
name = he;
position = "{150, 469}";
},
{
name = hee;
position = "{415, -9}";
},
{
name = hi;
position = "{426, -116}";
},
{
name = ho.ring;
position = "{370, 673}";
},
{
name = hu;
position = "{520, 472}";
},
{
name = hwa;
position = "{435, -5}";
},
{
name = top;
position = "{228, 649}";
}
);
layerId = "A36D14D1-FF07-4574-A62D-30DF65569781";
paths = (
{
closed = 1;
nodes = (
"412 0 LINE SMOOTH",
"484 0 OFFCURVE",
"516 61 OFFCURVE",
"516 132 CURVE SMOOTH",
"516 680 LINE SMOOTH",
"516 691 OFFCURVE",
"499 700 OFFCURVE",
"473 700 CURVE SMOOTH",
"450 700 OFFCURVE",
"435 692 OFFCURVE",
"435 673 CURVE SMOOTH",
"435 116 LINE SMOOTH",
"435 77 OFFCURVE",
"406 48 OFFCURVE",
"367 48 CURVE SMOOTH",
"209 48 LINE SMOOTH",
"170 48 OFFCURVE",
"141 77 OFFCURVE",
"141 116 CURVE SMOOTH",
"141 680 LINE SMOOTH",
"141 691 OFFCURVE",
"125 700 OFFCURVE",
"99 700 CURVE SMOOTH",
"76 700 OFFCURVE",
"60 692 OFFCURVE",
"60 673 CURVE SMOOTH",
"60 150 LINE SMOOTH",
"60 79 OFFCURVE",
"79 0 OFFCURVE",
"200 0 CURVE SMOOTH"
);
}
);
width = 541;
}
);
unicode = 0055;
},
{
glyphname = V;
lastChange = "2020-12-29 14:14:00 +0000";
layers = (
{
layerId = "A36D14D1-FF07-4574-A62D-30DF65569781";
paths = (
{
closed = 1;
nodes = (
"399 0 OFFCURVE",
"413 14 OFFCURVE",
"419 31 CURVE SMOOTH",
"640 648 LINE SMOOTH",
"650 676 OFFCURVE",
"627 692 OFFCURVE",
"616 700 CURVE SMOOTH",
"604 708 OFFCURVE",
"586 705 OFFCURVE",
"582 694 CURVE SMOOTH",
"377.445 95.131 LINE",
"134 687 LINE SMOOTH",
"127 704 OFFCURVE",
"86 704 OFFCURVE",
"75 697 CURVE",
"66 689 OFFCURVE",
"52 682 OFFCURVE",
"65 653 CURVE SMOOTH",
"342 33 LINE SMOOTH",
"352 11 OFFCURVE",
"360 0 OFFCURVE",
"383 0 CURVE SMOOTH"
);
}
);
width = 702;
}
);
unicode = 0056;
},
{
glyphname = W;
lastChange = "2020-12-30 03:02:07 +0000";
layers = (
{
layerId = "A36D14D1-FF07-4574-A62D-30DF65569781";
paths = (
{
closed = 1;
nodes = (
"69 700 OFFCURVE",
"60 691 OFFCURVE",
"60 680 CURVE SMOOTH",
"60 27 LINE SMOOTH",
"60 8 OFFCURVE",
"76 0 OFFCURVE",
"99 0 CURVE SMOOTH",
"115 0 OFFCURVE",
"128 4 OFFCURVE",
"135 9 CURVE",
"136 8 LINE",
"319 343 LINE",
"503 9 LINE",
"509 2 OFFCURVE",
"521 -1 OFFCURVE",
"535 -1 CURVE SMOOTH",
"561 -1 OFFCURVE",
"577 8 OFFCURVE",
"577 19 CURVE SMOOTH",
"577 679 LINE SMOOTH",
"577 690 OFFCURVE",
"568 699 OFFCURVE",
"557 699 CURVE SMOOTH",
"516 699 LINE SMOOTH",
"505 699 OFFCURVE",
"496 690 OFFCURVE",
"496 679 CURVE SMOOTH",
"496 124 LINE",
"344 410 LINE SMOOTH",
"340 418 OFFCURVE",
"328 421 OFFCURVE",
"319 421 CURVE SMOOTH",
"310 421 OFFCURVE",
"298 418 OFFCURVE",
"294 410 CURVE SMOOTH",
"141 122 LINE",
"141 680 LINE SMOOTH",
"141 691 OFFCURVE",
"132 700 OFFCURVE",
"121 700 CURVE SMOOTH",
"80 700 LINE SMOOTH"
);
}
);
width = 637;
}
);
unicode = 0057;
},
{
glyphname = X;
lastChange = "2020-12-29 14:13:59 +0000";
layers = (
{
layerId = "A36D14D1-FF07-4574-A62D-30DF65569781";
paths = (
{
closed = 1;
nodes = (
"480 -11 OFFCURVE",
"498 -9 OFFCURVE",
"508 2 CURVE SMOOTH",
"517 12 OFFCURVE",
"535 33 OFFCURVE",
"519 58 CURVE SMOOTH",
"337.468 347.36 LINE",
"537 649 LINE SMOOTH",
"554 675 OFFCURVE",
"543 685 OFFCURVE",
"535 694 CURVE SMOOTH",
"526 703 OFFCURVE",
"486 711 OFFCURVE",
"476 696 CURVE SMOOTH",
"294.457 415.918 LINE",
"120 694 LINE SMOOTH",
"111 710 OFFCURVE",
"70 702 OFFCURVE",
"61 693 CURVE SMOOTH",
"53 684 OFFCURVE",
"42 675 OFFCURVE",
"59 649 CURVE SMOOTH",
"250.808 348.577 LINE",
"67 65 LINE SMOOTH",
"51 41 OFFCURVE",
"68 19 OFFCURVE",
"77 9 CURVE SMOOTH",
"86 -2 OFFCURVE",
"105 -4 OFFCURVE",
"111 5 CURVE SMOOTH",
"293.766 281.294 LINE",
"474 -1 LINE SMOOTH"
);
}
);
width = 586;
}
);
unicode = 0058;
},
{
glyphname = Y;
lastChange = "2020-12-29 14:13:59 +0000";
layers = (
{
anchors = (
{
name = top;
position = "{331, 626}";
}
);
layerId = "A36D14D1-FF07-4574-A62D-30DF65569781";
paths = (
{
closed = 1;
nodes = (
"355 0 LINE SMOOTH",
"366 0 OFFCURVE",
"375 9 OFFCURVE",
"375 20 CURVE SMOOTH",
"375 255.878 LINE",
"586 665 LINE SMOOTH",
"601 694 OFFCURVE",
"588 702 OFFCURVE",
"580 709 CURVE SMOOTH",
"570 717 OFFCURVE",
"529 720 OFFCURVE",
"521 705 CURVE SMOOTH",
"333.2 326.12 LINE",
"139 703 LINE SMOOTH",
"131 719 OFFCURVE",
"90 715 OFFCURVE",
"80 707 CURVE SMOOTH",
"71 699 OFFCURVE",
"59 692 OFFCURVE",
"74 664 CURVE SMOOTH",
"294 254.86 LINE",
"294 20 LINE SMOOTH",
"294 9 OFFCURVE",
"303 0 OFFCURVE",
"314 0 CURVE SMOOTH"
);
}
);
width = 672;
}
);
unicode = 0059;
},
{
glyphname = Z;
lastChange = "2020-12-29 14:14:00 +0000";
layers = (
{
layerId = "A36D14D1-FF07-4574-A62D-30DF65569781";
paths = (
{
closed = 1;
nodes = (
"413 -1 LINE SMOOTH",
"427 -1 OFFCURVE",
"437 9 OFFCURVE",
"437 23 CURVE SMOOTH",
"437 37 OFFCURVE",
"427 47 OFFCURVE",
"413 47 CURVE SMOOTH",
"137.269 47 LINE",
"485 656 LINE SMOOTH",
"501 684 OFFCURVE",
"488 692 OFFCURVE",
"479 700 CURVE SMOOTH",
"474.638 703.489 OFFCURVE",
"464.57 706.218 OFFCURVE",
"453.856 706.857 CURVE SMOOTH",
"451 707 LINE",
"148 707 LINE SMOOTH",
"134 707 OFFCURVE",
"124 697 OFFCURVE",
"124 683 CURVE SMOOTH",
"124 669 OFFCURVE",
"134 659 OFFCURVE",
"148 659 CURVE SMOOTH",
"399.25 659 LINE",
"65 63 LINE SMOOTH",
"51 37 OFFCURVE",
"71 17 OFFCURVE",
"81 8 CURVE SMOOTH",
"86.379 2.621 OFFCURVE",
"94.072 0.135 OFFCURVE",
"100.968 0.543 CURVE",
"103.713 -0.461 OFFCURVE",
"106.748 -1 OFFCURVE",
"110 -1 CURVE SMOOTH"
);
}
);
width = 522;
}
);
unicode = 005A;
},
{
glyphname = a;
lastChange = "2020-12-29 14:14:00 +0000";
layers = (
{
anchors = (
{
name = top;
position = "{251, 504}";
}
);
layerId = "A36D14D1-FF07-4574-A62D-30DF65569781";
paths = (
{
closed = 1;
nodes = (
"400 0 LINE SMOOTH",
"429 0 OFFCURVE",
"451 22 OFFCURVE",
"451 51 CURVE SMOOTH",
"451 449 LINE SMOOTH",
"451 478 OFFCURVE",
"429 500 OFFCURVE",
"400 500 CURVE SMOOTH",
"101 500 LINE SMOOTH",
"72 500 OFFCURVE",
"50 478 OFFCURVE",
"50 449 CURVE SMOOTH",
"50 437 LINE SMOOTH",
"50 424 OFFCURVE",
"61 413 OFFCURVE",
"74 413 CURVE SMOOTH",
"108 414 LINE SMOOTH",
"121 414 OFFCURVE",
"131 424 OFFCURVE",
"131 437 CURVE SMOOTH",
"131 439 LINE SMOOTH",
"131 445 OFFCURVE",
"140 452 OFFCURVE",
"151 452 CURVE SMOOTH",
"350 452 LINE SMOOTH",
"361 452 OFFCURVE",
"370 447 OFFCURVE",
"370 439 CURVE SMOOTH",
"370 294 LINE",
"101 294 LINE SMOOTH",
"72 294 OFFCURVE",
"50 272 OFFCURVE",
"50 243 CURVE SMOOTH",
"50 51 LINE SMOOTH",
"50 22 OFFCURVE",
"72 0 OFFCURVE",
"101 0 CURVE SMOOTH"
);
},
{
closed = 1;
nodes = (
"140 48 OFFCURVE",
"131 58 OFFCURVE",
"131 71 CURVE SMOOTH",
"131 229 LINE SMOOTH",
"131 240 OFFCURVE",
"140 246 OFFCURVE",
"151 246 CURVE SMOOTH",
"350 246 LINE SMOOTH",
"361 246 OFFCURVE",
"370 236 OFFCURVE",
"370 225 CURVE SMOOTH",
"370 71 LINE SMOOTH",
"370 60 OFFCURVE",
"361 48 OFFCURVE",
"350 48 CURVE SMOOTH",
"151 48 LINE SMOOTH"
);
}
);
width = 501;
}
);
unicode = 0061;
},
{
glyphname = c;
lastChange = "2020-12-29 22:23:48 +0000";
layers = (
{
anchors = (
{
name = top;
position = "{250, 504}";
}
);
layerId = "A36D14D1-FF07-4574-A62D-30DF65569781";
paths = (
{
closed = 1;
nodes = (
"410 0 LINE SMOOTH",
"433 0 OFFCURVE",
"451 18 OFFCURVE",
"451 41 CURVE SMOOTH",
"451 69 LINE",
"370 67 LINE",
"370 56 OFFCURVE",
"361 47 OFFCURVE",
"350 47 CURVE SMOOTH",
"151 47 LINE SMOOTH",
"140 47 OFFCURVE",
"131 56 OFFCURVE",
"131 67 CURVE SMOOTH",
"131 433 LINE SMOOTH",
"131 444 OFFCURVE",
"140 453 OFFCURVE",
"151 453 CURVE SMOOTH",
"350 453 LINE SMOOTH",
"361 453 OFFCURVE",
"370 444 OFFCURVE",
"370 433 CURVE SMOOTH",
"370 428 LINE",
"451 429 LINE",
"451 459 LINE SMOOTH",
"451 482 OFFCURVE",
"433 500 OFFCURVE",
"410 500 CURVE SMOOTH",
"91 500 LINE SMOOTH",
"68 500 OFFCURVE",
"50 482 OFFCURVE",
"50 459 CURVE SMOOTH",
"50 41 LINE SMOOTH",
"50 18 OFFCURVE",
"68 0 OFFCURVE",
"91 0 CURVE SMOOTH"
);
}
);
width = 501;
}
);
unicode = 0063;
},
{
glyphname = eth;
lastChange = "2020-12-29 14:14:00 +0000";
layers = (
{
layerId = "A36D14D1-FF07-4574-A62D-30DF65569781";
paths = (
{
closed = 1;
nodes = (
"308 -32 OFFCURVE",
"392 39 OFFCURVE",
"400 204 CURVE SMOOTH",
"409 393 OFFCURVE",
"369 480 OFFCURVE",
"350 569 CURVE",
"418 587 LINE",
"409 619 LINE",
"337 602 LINE",
"310 694 LINE SMOOTH",
"307 705 OFFCURVE",
"296 712 OFFCURVE",
"286 709 CURVE SMOOTH",
"263 702 LINE SMOOTH",
"252 699 OFFCURVE",
"246 688 OFFCURVE",
"249 677 CURVE SMOOTH",
"274 583 LINE",
"193 561 LINE",
"202 529 LINE",
"291 551 LINE",
"332 349 LINE",
"303 398 OFFCURVE",
"231 409 OFFCURVE",
"203 409 CURVE SMOOTH",
"119 409 OFFCURVE",
"34 387 OFFCURVE",
"34 229 CURVE SMOOTH",
"34 27 OFFCURVE",
"87 -32 OFFCURVE",
"203 -32 CURVE SMOOTH"
);
},
{
closed = 1;
nodes = (
"141 23 OFFCURVE",
"111 84 OFFCURVE",
"111 225 CURVE SMOOTH",
"111 326 OFFCURVE",
"148 364 OFFCURVE",
"206 364 CURVE SMOOTH",
"280 364 OFFCURVE",
"340 312 OFFCURVE",
"327 200 CURVE SMOOTH",
"315 96 OFFCURVE",
"286 23 OFFCURVE",
"203 23 CURVE SMOOTH"
);
}
);
width = 523;
}
);
unicode = 00F0;
},
{
glyphname = e;
lastChange = "2020-12-29 14:14:00 +0000";
layers = (
{
anchors = (
{
name = top;
position = "{252, 501}";
}
);
layerId = "A36D14D1-FF07-4574-A62D-30DF65569781";
paths = (
{
closed = 1;
nodes = (
"400 0 LINE SMOOTH",
"429 0 OFFCURVE",
"451 22 OFFCURVE",
"451 51 CURVE SMOOTH",
"451 60 OFFCURVE",
"441 67 OFFCURVE",
"427 67 CURVE SMOOTH",
"395 68 LINE SMOOTH",
"381 68 OFFCURVE",
"370 65 OFFCURVE",
"370 61 CURVE SMOOTH",
"370 50 OFFCURVE",
"361 41 OFFCURVE",
"350 41 CURVE SMOOTH",
"151 41 LINE SMOOTH",
"140 41 OFFCURVE",
"131 50 OFFCURVE",
"131 61 CURVE SMOOTH",
"131 260 LINE",
"418 260 LINE SMOOTH",
"420.665 260 OFFCURVE",
"423.184 260.362 OFFCURVE",
"425.518 261.045 CURVE SMOOTH",
"427 261 LINE SMOOTH",
"441 261 OFFCURVE",
"451 271 OFFCURVE",
"451 285 CURVE SMOOTH",
"451 449 LINE SMOOTH",
"451 478 OFFCURVE",
"429 500 OFFCURVE",
"400 500 CURVE SMOOTH",
"101 500 LINE SMOOTH",
"72 500 OFFCURVE",
"50 478 OFFCURVE",
"50 449 CURVE SMOOTH",
"50 51 LINE SMOOTH",
"50 22 OFFCURVE",
"72 0 OFFCURVE",
"101 0 CURVE SMOOTH"
);
},
{
closed = 1;
nodes = (
"131 439 LINE SMOOTH",
"131 450 OFFCURVE",
"140 459 OFFCURVE",
"151 459 CURVE SMOOTH",
"350 459 LINE SMOOTH",
"361 459 OFFCURVE",
"370 450 OFFCURVE",
"370 439 CURVE SMOOTH",
"370 308 LINE",
"131 308 LINE"
);
}
);
width = 1021;
}
);
unicode = 0065;
},
{
glyphname = f;
lastChange = "2020-12-29 14:13:59 +0000";
layers = (
{
layerId = "A36D14D1-FF07-4574-A62D-30DF65569781";
paths = (
{
closed = 1;
nodes = (
"215 0 LINE SMOOTH",
"226 0 OFFCURVE",
"235 9 OFFCURVE",
"235 20 CURVE SMOOTH",
"235 439 LINE SMOOTH",
"235 450 OFFCURVE",
"244 459 OFFCURVE",
"255 459 CURVE SMOOTH",
"379 459 LINE SMOOTH",
"390 459 OFFCURVE",
"399 468 OFFCURVE",
"399 479 CURVE SMOOTH",
"399 480 LINE SMOOTH",
"399 491 OFFCURVE",
"390 500 OFFCURVE",
"379 500 CURVE SMOOTH",
"255 500 LINE SMOOTH",
"244 500 OFFCURVE",
"235 509 OFFCURVE",
"235 520 CURVE SMOOTH",
"235 631 LINE SMOOTH",
"235 642 OFFCURVE",
"244 651 OFFCURVE",
"255 651 CURVE SMOOTH",
"380 651 LINE SMOOTH",
"390 651 OFFCURVE",
"404 660 OFFCURVE",
"404 680 CURVE SMOOTH",
"404 692 OFFCURVE",
"395 700 OFFCURVE",
"384 700 CURVE SMOOTH",
"185 699 LINE SMOOTH",
"170 699 OFFCURVE",
"154 679 OFFCURVE",
"154 660 CURVE SMOOTH",
"154 520 LINE SMOOTH",
"154 509 OFFCURVE",
"145 500 OFFCURVE",
"134 500 CURVE SMOOTH",
"70 500 LINE SMOOTH",
"59 500 OFFCURVE",
"50 491 OFFCURVE",
"50 480 CURVE SMOOTH",
"50 479 LINE SMOOTH",
"50 468 OFFCURVE",
"59 459 OFFCURVE",
"70 459 CURVE SMOOTH",
"134 459 LINE SMOOTH",
"145 459 OFFCURVE",
"154 450 OFFCURVE",
"154 439 CURVE SMOOTH",
"154 20 LINE SMOOTH",
"154 9 OFFCURVE",
"163 0 OFFCURVE",
"174 0 CURVE SMOOTH"
);
}
);
width = 454;
}
);
unicode = 0066;
},
{
glyphname = g;
lastChange = "2020-12-29 22:22:48 +0000";
layers = (
{
anchors = (
{
name = bottom;
position = "{-199, -4}";
},
{
name = top;
position = "{302, 504}";
}
);
components = (
{
name = b.base;
transform = "{-1, 0, 0, -1, 551, 506}";
}
);
layerId = "A36D14D1-FF07-4574-A62D-30DF65569781";
paths = (
{
closed = 1;
nodes = (
"449 -199 LINE SMOOTH",
"478 -199 OFFCURVE",
"500 -177 OFFCURVE",
"500 -148 CURVE SMOOTH",
"500 23 LINE",
"419 -12 LINE",
"419 -138 LINE SMOOTH",
"419 -146 OFFCURVE",
"410 -151 OFFCURVE",
"399 -151 CURVE SMOOTH",
"200 -151 LINE SMOOTH",
"189 -151 OFFCURVE",
"180 -144 OFFCURVE",
"180 -138 CURVE SMOOTH",
"180 -136 LINE SMOOTH",
"180 -123 OFFCURVE",
"170 -113 OFFCURVE",
"157 -113 CURVE SMOOTH",
"123 -112 LINE SMOOTH",
"110 -112 OFFCURVE",
"99 -123 OFFCURVE",
"99 -136 CURVE SMOOTH",
"99 -148 LINE SMOOTH",
"99 -177 OFFCURVE",
"121 -199 OFFCURVE",
"150 -199 CURVE SMOOTH"
);
}
);
width = 602;
}
);
unicode = 0067;
},
{
glyphname = h;
lastChange = "2020-12-29 14:13:59 +0000";
layers = (
{
layerId = "A36D14D1-FF07-4574-A62D-30DF65569781";
paths = (
{
closed = 1;
nodes = (
"111 0 LINE SMOOTH",
"122 0 OFFCURVE",
"131 9 OFFCURVE",
"131 20 CURVE SMOOTH",
"131 432 LINE SMOOTH",
"131 443 OFFCURVE",
"140 453 OFFCURVE",
"151 453 CURVE SMOOTH",
"350 453 LINE SMOOTH",
"361 453 OFFCURVE",
"370 443 OFFCURVE",
"370 432 CURVE SMOOTH",
"370 20 LINE SMOOTH",
"370 9 OFFCURVE",
"379 0 OFFCURVE",
"390 0 CURVE SMOOTH",
"431 0 LINE SMOOTH",
"442 0 OFFCURVE",
"451 9 OFFCURVE",
"451 20 CURVE SMOOTH",
"451 449 LINE SMOOTH",
"451 478 OFFCURVE",
"429 500 OFFCURVE",
"400 500 CURVE SMOOTH",
"125 500 LINE",
"125 684 LINE SMOOTH",
"125 695 OFFCURVE",
"116 704 OFFCURVE",
"105 704 CURVE SMOOTH",
"70 704 LINE SMOOTH",
"59 704 OFFCURVE",
"50 695 OFFCURVE",
"50 684 CURVE SMOOTH",
"50 20 LINE SMOOTH",
"50 9 OFFCURVE",
"59 0 OFFCURVE",
"70 0 CURVE SMOOTH"
);
}
);
width = 501;
}
);
unicode = 0068;
},
{
glyphname = i;
lastChange = "2020-12-29 14:14:00 +0000";
layers = (
{
layerId = "A36D14D1-FF07-4574-A62D-30DF65569781";
paths = (
{
closed = 1;
nodes = (
"130 0 LINE SMOOTH",
"144 0 OFFCURVE",
"154 10 OFFCURVE",
"154 24 CURVE SMOOTH",
"154 27 LINE SMOOTH",
"154 36 OFFCURVE",
"149 43 OFFCURVE",
"140 47 CURVE SMOOTH",
"131 51 LINE",
"131 480 LINE SMOOTH",
"131 491 OFFCURVE",
"122 500 OFFCURVE",
"111 500 CURVE SMOOTH",
"70 500 LINE SMOOTH",
"59 500 OFFCURVE",
"50 491 OFFCURVE",
"50 480 CURVE SMOOTH",
"50 51 LINE SMOOTH",
"50 22 OFFCURVE",
"72 0 OFFCURVE",
"101 0 CURVE SMOOTH"
);
},
{
closed = 1;
nodes = (
"104 601 LINE SMOOTH",
"120 601 OFFCURVE",
"131 612 OFFCURVE",
"131 628 CURVE SMOOTH",
"131 679 LINE SMOOTH",
"131 695 OFFCURVE",
"120 706 OFFCURVE",
"104 706 CURVE SMOOTH",
"77 706 LINE SMOOTH",
"61 706 OFFCURVE",
"50 695 OFFCURVE",
"50 679 CURVE SMOOTH",
"50 628 LINE SMOOTH",
"50 612 OFFCURVE",
"61 601 OFFCURVE",
"77 601 CURVE SMOOTH"
);
}
);
width = 204;
}
);
unicode = 0069;
},
{
glyphname = idotless;
lastChange = "2020-12-29 14:13:59 +0000";
layers = (
{
anchors = (
{
name = "new anchor";
position = "{255, 501}";
},
{
name = top;
position = "{92, 500}";
}
);
layerId = "A36D14D1-FF07-4574-A62D-30DF65569781";
paths = (
{
closed = 1;
nodes = (
"130 0 LINE SMOOTH",
"144 0 OFFCURVE",
"154 10 OFFCURVE",
"154 24 CURVE SMOOTH",
"154 27 LINE SMOOTH",
"154 36 OFFCURVE",
"149 43 OFFCURVE",
"140 47 CURVE SMOOTH",
"131 51 LINE",
"131 480 LINE SMOOTH",
"131 491 OFFCURVE",
"122 500 OFFCURVE",
"111 500 CURVE SMOOTH",
"70 500 LINE SMOOTH",
"59 500 OFFCURVE",
"50 491 OFFCURVE",
"50 480 CURVE SMOOTH",
"50 51 LINE SMOOTH",
"50 22 OFFCURVE",
"72 0 OFFCURVE",
"101 0 CURVE SMOOTH"
);
}
);
width = 204;
}
);
unicode = 0131;
},
{
glyphname = j;
lastChange = "2020-12-29 14:14:00 +0000";
layers = (
{
layerId = "A36D14D1-FF07-4574-A62D-30DF65569781";
paths = (
{
closed = 1;
nodes = (
"88 -194 OFFCURVE",
"101 -189 OFFCURVE",
"107 -177 CURVE SMOOTH",
"199 -6 LINE SMOOTH",
"202 -1 OFFCURVE",
"201 8 OFFCURVE",
"201 11 CURVE SMOOTH",
"201 480 LINE SMOOTH",
"201 491 OFFCURVE",
"192 500 OFFCURVE",
"181 500 CURVE SMOOTH",
"140 500 LINE SMOOTH",
"129 500 OFFCURVE",
"120 491 OFFCURVE",
"120 480 CURVE SMOOTH",
"120 12 LINE SMOOTH",
"120 10 OFFCURVE",
"120 1 OFFCURVE",
"117 -5 CURVE SMOOTH",
"54 -143 LINE SMOOTH",
"40 -174 OFFCURVE",
"63 -183 OFFCURVE",
"75 -189 CURVE SMOOTH"
);
},
{
closed = 1;
nodes = (
"171 601 LINE SMOOTH",
"187 601 OFFCURVE",
"198 612 OFFCURVE",
"198 628 CURVE SMOOTH",
"198 679 LINE SMOOTH",
"198 695 OFFCURVE",
"187 706 OFFCURVE",
"171 706 CURVE SMOOTH",
"144 706 LINE SMOOTH",
"128 706 OFFCURVE",
"117 695 OFFCURVE",
"117 679 CURVE SMOOTH",
"117 628 LINE SMOOTH",
"117 612 OFFCURVE",
"128 601 OFFCURVE",
"144 601 CURVE SMOOTH"
);
}
);
width = 251;
}
);
unicode = 006A;
},
{
glyphname = k;
lastChange = "2020-12-29 14:13:59 +0000";
layers = (
{
layerId = "A36D14D1-FF07-4574-A62D-30DF65569781";
paths = (
{
closed = 1;
nodes = (
"111 -3 LINE SMOOTH",
"122 -3 OFFCURVE",
"131 13 OFFCURVE",
"131 32 CURVE SMOOTH",
"131 253 LINE",
"172 253 LINE",
"322 4 LINE",
"373 4 LINE",
"220 262 LINE",
"360 500 LINE",
"309 500 LINE",
"182 285 LINE",
"131 286 LINE",
"132 686 LINE SMOOTH",
"132 697 OFFCURVE",
"123 706 OFFCURVE",
"112 706 CURVE SMOOTH",
"71 706 LINE SMOOTH",
"60 706 OFFCURVE",
"51 697 OFFCURVE",
"51 686 CURVE SMOOTH",
"50 32 LINE SMOOTH",
"50 13 OFFCURVE",
"59 -3 OFFCURVE",
"70 -3 CURVE SMOOTH"
);
}
);
width = 423;
}
);
unicode = 006B;
},
{
glyphname = l;
lastChange = "2020-12-29 14:14:00 +0000";
layers = (
{
layerId = "A36D14D1-FF07-4574-A62D-30DF65569781";
paths = (
{
closed = 1;
nodes = (
"153 0 LINE SMOOTH",
"167 0 OFFCURVE",
"178 10 OFFCURVE",
"178 21 CURVE SMOOTH",
"177 33 OFFCURVE",
"167 41 OFFCURVE",
"154 41 CURVE SMOOTH",
"151 41 LINE SMOOTH",
"140 41 OFFCURVE",
"131 50 OFFCURVE",
"131 61 CURVE SMOOTH",
"131 686 LINE SMOOTH",
"131 697 OFFCURVE",
"122 706 OFFCURVE",
"111 706 CURVE SMOOTH",
"70 706 LINE SMOOTH",
"59 706 OFFCURVE",
"50 697 OFFCURVE",
"50 686 CURVE SMOOTH",
"50 51 LINE SMOOTH",
"50 22 OFFCURVE",
"72 0 OFFCURVE",
"101 0 CURVE SMOOTH"
);
}
);
width = 228;
}
);
unicode = 006C;
},
{
glyphname = m;
lastChange = "2020-12-29 14:13:59 +0000";
layers = (
{
layerId = "A36D14D1-FF07-4574-A62D-30DF65569781";
paths = (
{
closed = 1;
nodes = (
"111 0 LINE SMOOTH",
"122 0 OFFCURVE",
"131 9 OFFCURVE",
"131 20 CURVE SMOOTH",
"131 350.86 LINE",
"300 427.248 LINE",
"300 20 LINE SMOOTH",
"300 9 OFFCURVE",
"309 0 OFFCURVE",
"320 0 CURVE SMOOTH",
"361 0 LINE SMOOTH",
"372 0 OFFCURVE",
"381 9 OFFCURVE",
"381 20 CURVE SMOOTH",
"381 343.06 LINE",
"550 426.208 LINE",
"550 20 LINE SMOOTH",
"550 9 OFFCURVE",
"559 0 OFFCURVE",
"570 0 CURVE SMOOTH",
"611 0 LINE SMOOTH",
"622 0 OFFCURVE",
"631 9 OFFCURVE",
"631 20 CURVE SMOOTH",
"631 481 LINE SMOOTH",
"631 492 OFFCURVE",
"615 501 OFFCURVE",
"589 501 CURVE SMOOTH",
"581.592 501 OFFCURVE",
"574.911 500.17 OFFCURVE",
"569.256 498.41 CURVE SMOOTH",
"566.479 498.137 OFFCURVE",
"563.689 497.345 OFFCURVE",
"561 496 CURVE SMOOTH",
"381 407.076 LINE",
"381 481 LINE SMOOTH",
"381 492 OFFCURVE",
"365 501 OFFCURVE",
"339 501 CURVE SMOOTH",
"331.592 501 OFFCURVE",
"324.911 500.17 OFFCURVE",
"319.256 498.41 CURVE SMOOTH",
"316.479 498.137 OFFCURVE",
"313.689 497.345 OFFCURVE",
"311 496 CURVE SMOOTH",
"131 414.247 LINE",
"131 481 LINE SMOOTH",
"131 492 OFFCURVE",
"115 501 OFFCURVE",
"89 501 CURVE SMOOTH",
"66 501 OFFCURVE",
"50 493 OFFCURVE",
"50 474 CURVE SMOOTH",
"50 20 LINE SMOOTH",
"50 9 OFFCURVE",
"59 0 OFFCURVE",
"70 0 CURVE SMOOTH"
);
}
);
width = 681;
}
);
unicode = 006D;
},
{
glyphname = n;
lastChange = "2020-12-29 14:13:59 +0000";
layers = (
{
anchors = (
{
name = top;
position = "{257, 507}";
}
);
layerId = "A36D14D1-FF07-4574-A62D-30DF65569781";
paths = (
{
closed = 1;
nodes = (
"111 0 LINE SMOOTH",
"122 0 OFFCURVE",
"131 9 OFFCURVE",
"131 20 CURVE SMOOTH",
"131 365.079 LINE",
"367 431.664 LINE",
"367 20 LINE SMOOTH",
"367 9 OFFCURVE",
"376 0 OFFCURVE",
"387 0 CURVE SMOOTH",
"428 0 LINE SMOOTH",
"439 0 OFFCURVE",
"448 9 OFFCURVE",
"448 20 CURVE SMOOTH",
"448 481 LINE SMOOTH",
"448 492 OFFCURVE",
"432 501 OFFCURVE",
"406 501 CURVE SMOOTH",
"396.599 501 OFFCURVE",
"388.368 499.664 OFFCURVE",
"381.921 496.786 CURVE",
"378 496 LINE",
"131 425.68 LINE",
"131 481 LINE SMOOTH",
"131 492 OFFCURVE",
"115 501 OFFCURVE",
"89 501 CURVE SMOOTH",
"66 501 OFFCURVE",
"50 493 OFFCURVE",
"50 474 CURVE SMOOTH",
"50 20 LINE SMOOTH",
"50 9 OFFCURVE",
"59 0 OFFCURVE",
"70 0 CURVE SMOOTH"
);
}
);
width = 498;
}
);
unicode = 006E;
},
{
glyphname = o;
lastChange = "2020-12-29 14:14:00 +0000";
layers = (
{
anchors = (
{
name = top;
position = "{251, 504}";
}
);
layerId = "A36D14D1-FF07-4574-A62D-30DF65569781";
paths = (
{
closed = 1;
nodes = (
"410 0 LINE SMOOTH",
"433 0 OFFCURVE",
"451 18 OFFCURVE",
"451 41 CURVE SMOOTH",
"451 459 LINE SMOOTH",
"451 482 OFFCURVE",
"433 500 OFFCURVE",
"410 500 CURVE SMOOTH",
"91 500 LINE SMOOTH",
"68 500 OFFCURVE",
"50 482 OFFCURVE",
"50 459 CURVE SMOOTH",
"50 41 LINE SMOOTH",
"50 18 OFFCURVE",
"68 0 OFFCURVE",
"91 0 CURVE SMOOTH"
);
},
{
closed = 1;
nodes = (
"140 47 OFFCURVE",
"131 56 OFFCURVE",
"131 67 CURVE SMOOTH",
"131 433 LINE SMOOTH",
"131 444 OFFCURVE",
"140 453 OFFCURVE",
"151 453 CURVE SMOOTH",
"350 453 LINE SMOOTH",
"361 453 OFFCURVE",
"370 444 OFFCURVE",
"370 433 CURVE SMOOTH",
"370 67 LINE SMOOTH",
"370 56 OFFCURVE",
"361 47 OFFCURVE",
"350 47 CURVE SMOOTH",
"151 47 LINE SMOOTH"
);
}
);
width = 501;
}
);
unicode = 006F;
},
{
glyphname = oslash;
lastChange = "2020-12-29 14:13:59 +0000";
layers = (
{
components = (
{
name = o;
}
);
layerId = "A36D14D1-FF07-4574-A62D-30DF65569781";
paths = (
{
closed = 1;
nodes = (
"182 -66 LINE",
"478 681 LINE",
"405 681 LINE",
"110 -66 LINE"
);
}
);
width = 528;
}
);
unicode = 00F8;
},
{
glyphname = oe;
lastChange = "2020-12-29 14:14:00 +0000";
layers = (
{
anchors = (
{
name = top;
position = "{763, 501}";
}
);
layerId = "A36D14D1-FF07-4574-A62D-30DF65569781";
paths = (
{
closed = 1;
nodes = (
"410 0 LINE SMOOTH",
"411.907 0 OFFCURVE",
"413.779 0.124 OFFCURVE",
"415.61 0.364 CURVE SMOOTH",
"422 0 LINE",
"721 0 LINE SMOOTH",
"750 0 OFFCURVE",
"772 22 OFFCURVE",
"772 51 CURVE SMOOTH",
"772 60 OFFCURVE",
"762 67 OFFCURVE",
"748 67 CURVE SMOOTH",
"716 68 LINE SMOOTH",
"702 68 OFFCURVE",
"691 65 OFFCURVE",
"691 61 CURVE SMOOTH",
"691 50 OFFCURVE",
"682 41 OFFCURVE",
"671 41 CURVE SMOOTH",
"472 41 LINE SMOOTH",
"461 41 OFFCURVE",
"452 50 OFFCURVE",
"452 61 CURVE SMOOTH",
"452 249 LINE",
"624 249 LINE SMOOTH",
"641 249 OFFCURVE",
"650 251 OFFCURVE",
"653 256 CURVE SMOOTH",
"729 381 LINE SMOOTH",
"741 401 OFFCURVE",
"758 421 OFFCURVE",
"759 449 CURVE SMOOTH",
"760 487 OFFCURVE",
"750 500 OFFCURVE",
"721 500 CURVE SMOOTH",
"422 500 LINE SMOOTH",
"419.829 500 OFFCURVE",
"417.696 499.877 OFFCURVE",
"415.61 499.636 CURVE SMOOTH",
"410 500 LINE",
"91 500 LINE SMOOTH",
"68 500 OFFCURVE",
"50 482 OFFCURVE",
"50 459 CURVE SMOOTH",
"50 41 LINE SMOOTH",
"50 18 OFFCURVE",
"68 0 OFFCURVE",
"91 0 CURVE SMOOTH"
);
},
{
closed = 1;
nodes = (
"140 47 OFFCURVE",
"131 56 OFFCURVE",
"131 67 CURVE SMOOTH",
"131 433 LINE SMOOTH",
"131 444 OFFCURVE",
"140 453 OFFCURVE",
"151 453 CURVE SMOOTH",
"350 453 LINE SMOOTH",
"361 453 OFFCURVE",
"370 444 OFFCURVE",
"370 433 CURVE SMOOTH",
"370 67 LINE SMOOTH",
"370 56 OFFCURVE",
"361 47 OFFCURVE",
"350 47 CURVE SMOOTH",
"151 47 LINE SMOOTH"
);
},
{
closed = 1;
nodes = (
"452 439 LINE SMOOTH",
"452 450 OFFCURVE",
"461 459 OFFCURVE",
"472 459 CURVE SMOOTH",
"671 459 LINE SMOOTH",
"702 459 OFFCURVE",
"704 443 OFFCURVE",
"699 434 CURVE SMOOTH",
"629 314 LINE SMOOTH",
"624 306 OFFCURVE",
"613 302 OFFCURVE",
"578 303 CURVE SMOOTH",
"452 303 LINE"
);
}
);
width = 822;
}
);
unicode = 0153;
},
{
glyphname = thorn;
lastChange = "2020-12-29 14:14:00 +0000";
layers = (
{
anchors = (
{
name = top;
position = "{261, 504}";
}
);
layerId = "A36D14D1-FF07-4574-A62D-30DF65569781";
paths = (
{
closed = 1;
nodes = (
"111 -120 LINE SMOOTH",
"122 -120 OFFCURVE",
"131 -111 OFFCURVE",
"131 -100 CURVE SMOOTH",
"131 0 LINE",
"420 0 LINE SMOOTH",
"443 0 OFFCURVE",
"461 18 OFFCURVE",
"461 41 CURVE SMOOTH",
"461 459 LINE SMOOTH",
"461 482 OFFCURVE",
"443 500 OFFCURVE",
"420 500 CURVE SMOOTH",
"131 500 LINE",
"131 620 LINE SMOOTH",
"131 631 OFFCURVE",
"115 640 OFFCURVE",
"89 640 CURVE SMOOTH",
"66 640 OFFCURVE",
"50 632 OFFCURVE",
"50 613 CURVE SMOOTH",
"50 -100 LINE SMOOTH",
"50 -111 OFFCURVE",
"59 -120 OFFCURVE",
"70 -120 CURVE SMOOTH"
);
},
{
closed = 1;
nodes = (
"150 47 OFFCURVE",
"141 56 OFFCURVE",
"141 67 CURVE SMOOTH",
"141 433 LINE SMOOTH",
"141 444 OFFCURVE",
"150 453 OFFCURVE",
"161 453 CURVE SMOOTH",
"360 453 LINE SMOOTH",
"371 453 OFFCURVE",
"380 444 OFFCURVE",
"380 433 CURVE SMOOTH",
"380 67 LINE SMOOTH",
"380 56 OFFCURVE",
"371 47 OFFCURVE",
"360 47 CURVE SMOOTH",
"161 47 LINE SMOOTH"
);
}
);
width = 511;
}
);
unicode = 00FE;
},
{
glyphname = r;
lastChange = "2020-12-29 14:14:00 +0000";
layers = (
{
layerId = "A36D14D1-FF07-4574-A62D-30DF65569781";
paths = (
{
closed = 1;
nodes = (
"111 10 LINE SMOOTH",
"122 10 OFFCURVE",
"131 19 OFFCURVE",
"131 30 CURVE SMOOTH",
"131 443 LINE SMOOTH",
"131 454 OFFCURVE",
"140 463 OFFCURVE",
"151 463 CURVE SMOOTH",
"350 463 LINE SMOOTH",
"361 463 OFFCURVE",
"370 454 OFFCURVE",
"370 443 CURVE SMOOTH",
"370 433 OFFCURVE",
"381 426 OFFCURVE",
"395 426 CURVE SMOOTH",
"427 427 LINE SMOOTH",
"440 427 OFFCURVE",
"451 439 OFFCURVE",
"451 452 CURVE SMOOTH",
"451 459 LINE SMOOTH",
"451 488 OFFCURVE",
"429 510 OFFCURVE",
"400 510 CURVE SMOOTH",
"101 510 LINE SMOOTH",
"72 510 OFFCURVE",
"50 488 OFFCURVE",
"50 459 CURVE SMOOTH",
"50 30 LINE SMOOTH",
"50 19 OFFCURVE",
"59 10 OFFCURVE",
"70 10 CURVE SMOOTH"
);
}
);
width = 501;
}
);
unicode = 0072;
},
{
glyphname = s;
lastChange = "2020-12-29 14:14:00 +0000";
layers = (
{
layerId = "A36D14D1-FF07-4574-A62D-30DF65569781";
paths = (
{
closed = 1;
nodes = (
"400 0 LINE SMOOTH",
"429 0 OFFCURVE",
"451 22 OFFCURVE",
"451 51 CURVE SMOOTH",
"451 243 LINE SMOOTH",
"451 272 OFFCURVE",
"429 294 OFFCURVE",
"400 294 CURVE SMOOTH",
"131 294 LINE",
"131 439 LINE SMOOTH",
"131 447 OFFCURVE",
"140 452 OFFCURVE",
"151 452 CURVE SMOOTH",
"350 452 LINE SMOOTH",
"361 452 OFFCURVE",
"370 445 OFFCURVE",
"370 439 CURVE SMOOTH",
"370 438 LINE SMOOTH",
"370 424 OFFCURVE",
"380 414 OFFCURVE",
"394 414 CURVE SMOOTH",
"426 413 LINE SMOOTH",
"440 413 OFFCURVE",
"451 424 OFFCURVE",
"451 438 CURVE SMOOTH",
"451 449 LINE SMOOTH",
"451 478 OFFCURVE",
"429 500 OFFCURVE",
"400 500 CURVE SMOOTH",
"101 500 LINE SMOOTH",
"72 500 OFFCURVE",
"50 478 OFFCURVE",
"50 449 CURVE SMOOTH",
"50 265 LINE SMOOTH",
"50 251 OFFCURVE",
"60 241 OFFCURVE",
"74 241 CURVE SMOOTH",
"340 241 LINE SMOOTH",
"360 241 OFFCURVE",
"370 237 OFFCURVE",
"370 229 CURVE SMOOTH",
"370 71 LINE SMOOTH",
"370 58 OFFCURVE",
"361 48 OFFCURVE",
"350 48 CURVE SMOOTH",
"151 48 LINE SMOOTH",
"140 48 OFFCURVE",
"131 60 OFFCURVE",
"131 71 CURVE SMOOTH",
"131 76 OFFCURVE",
"121 79 OFFCURVE",
"107 79 CURVE SMOOTH",
"75 80 LINE SMOOTH",
"61 80 OFFCURVE",
"50 69 OFFCURVE",
"50 55 CURVE SMOOTH",
"50 51 LINE SMOOTH",
"50 22 OFFCURVE",
"72 0 OFFCURVE",
"101 0 CURVE SMOOTH"
);
}
);
width = 501;
}
);
unicode = 0073;
},
{
glyphname = germandbls;
lastChange = "2020-12-29 14:14:00 +0000";
layers = (
{
layerId = "A36D14D1-FF07-4574-A62D-30DF65569781";
paths = (
{
closed = 1;
nodes = (
"136 0 LINE",
"135 57 LINE",
"132 61 OFFCURVE",
"131 66 OFFCURVE",
"131 71 CURVE SMOOTH",
"131 439 LINE SMOOTH",
"131 445 OFFCURVE",
"140 452 OFFCURVE",
"151 452 CURVE SMOOTH",
"350 452 LINE SMOOTH",
"361 452 OFFCURVE",
"370 447 OFFCURVE",
"370 439 CURVE SMOOTH",
"370 71 LINE SMOOTH",
"370 60 OFFCURVE",
"361 48 OFFCURVE",
"350 48 CURVE SMOOTH",
"230 48 LINE SMOOTH",
"216 48 OFFCURVE",
"204 37 OFFCURVE",
"205 24 CURVE SMOOTH",
"205 23 LINE SMOOTH",
"206 10 OFFCURVE",
"216 0 OFFCURVE",
"229 0 CURVE SMOOTH",
"400 0 LINE SMOOTH",
"429 0 OFFCURVE",
"451 22 OFFCURVE",
"451 51 CURVE SMOOTH",
"451 449 LINE SMOOTH",
"451 478 OFFCURVE",
"429 500 OFFCURVE",
"400 500 CURVE SMOOTH",
"397 500 LINE",
"397 661 LINE SMOOTH",
"397 686 OFFCURVE",
"378 705 OFFCURVE",
"353 705 CURVE SMOOTH",
"70 705 LINE SMOOTH",
"59 705 OFFCURVE",
"50 696 OFFCURVE",
"50 685 CURVE SMOOTH",
"50 51 LINE SMOOTH",
"50 22 OFFCURVE",
"72 0 OFFCURVE",
"101 0 CURVE SMOOTH"
);
},
{
closed = 1;
nodes = (
"131 661.437 LINE",
"133.148 662.443 OFFCURVE",
"135.512 663 OFFCURVE",
"138 663 CURVE SMOOTH",
"309 663 LINE SMOOTH",
"319 663 OFFCURVE",
"327 653 OFFCURVE",
"327 643 CURVE SMOOTH",
"327 500 LINE",
"131 500 LINE"
);
}
);
width = 501;
}
);
unicode = 00DF;
},
{
glyphname = t;
lastChange = "2020-12-29 14:13:59 +0000";
layers = (
{
layerId = "A36D14D1-FF07-4574-A62D-30DF65569781";
paths = (
{
closed = 1;
nodes = (
"174 0 LINE SMOOTH",
"188 0 OFFCURVE",
"198 10 OFFCURVE",
"198 24 CURVE SMOOTH",
"198 27 LINE SMOOTH",
"198 36 OFFCURVE",
"193 43 OFFCURVE",
"184 47 CURVE SMOOTH",
"175 51 LINE",
"175 470 LINE",
"297 470 LINE SMOOTH",
"311 470 OFFCURVE",
"321 480 OFFCURVE",
"321 494 CURVE SMOOTH",
"321 508 OFFCURVE",
"311 518 OFFCURVE",
"297 518 CURVE SMOOTH",
"173.45 518 LINE",
"174 524 LINE",
"174 679 LINE SMOOTH",
"174 695 OFFCURVE",
"163 706 OFFCURVE",
"147 706 CURVE SMOOTH",
"120 706 LINE SMOOTH",
"104 706 OFFCURVE",
"93 695 OFFCURVE",
"93 679 CURVE SMOOTH",
"93 524 LINE",
"93.55 518 LINE",
"74 518 LINE SMOOTH",
"60 518 OFFCURVE",
"50 508 OFFCURVE",
"50 494 CURVE SMOOTH",
"50 480 OFFCURVE",
"60 470 OFFCURVE",
"74 470 CURVE SMOOTH",
"94 470 LINE",
"94 51 LINE SMOOTH",
"94 22 OFFCURVE",
"116 0 OFFCURVE",
"145 0 CURVE SMOOTH"
);
}
);
width = 371;
}
);
unicode = 0074;
},
{
glyphname = u;
lastChange = "2020-12-29 14:14:00 +0000";
layers = (
{
anchors = (
{
name = top;
position = "{244, 499}";
}
);
layerId = "A36D14D1-FF07-4574-A62D-30DF65569781";
paths = (
{
closed = 1;
nodes = (
"400 0 LINE SMOOTH",
"429 0 OFFCURVE",
"451 22 OFFCURVE",
"451 51 CURVE SMOOTH",
"451 480 LINE SMOOTH",
"451 491 OFFCURVE",
"442 500 OFFCURVE",
"431 500 CURVE SMOOTH",
"390 500 LINE SMOOTH",
"379 500 OFFCURVE",
"370 491 OFFCURVE",
"370 480 CURVE SMOOTH",
"370 66 LINE SMOOTH",
"370 55 OFFCURVE",
"361 46 OFFCURVE",
"350 46 CURVE SMOOTH",
"151 46 LINE SMOOTH",
"140 46 OFFCURVE",
"131 55 OFFCURVE",
"131 66 CURVE SMOOTH",
"131 480 LINE SMOOTH",
"131 491 OFFCURVE",
"122 500 OFFCURVE",
"111 500 CURVE SMOOTH",
"70 500 LINE SMOOTH",
"59 500 OFFCURVE",
"50 491 OFFCURVE",
"50 480 CURVE SMOOTH",
"50 51 LINE SMOOTH",
"50 22 OFFCURVE",
"72 0 OFFCURVE",
"101 0 CURVE SMOOTH"
);
}
);
width = 501;
}
);
unicode = 0075;
},
{
glyphname = v;
lastChange = "2020-12-29 14:14:00 +0000";
layers = (
{
layerId = "A36D14D1-FF07-4574-A62D-30DF65569781";
paths = (
{
closed = 1;
nodes = (
"282 -2 OFFCURVE",
"296 3 OFFCURVE",
"300 13 CURVE SMOOTH",
"463 463 LINE SMOOTH",
"470 482 OFFCURVE",
"457 499 OFFCURVE",
"437 500 CURVE SMOOTH",
"419 501 OFFCURVE",
"393 495 OFFCURVE",
"390 486 CURVE SMOOTH",
"256 75 LINE",
"123 486 LINE SMOOTH",
"120 494 OFFCURVE",
"92 501 OFFCURVE",
"79 501 CURVE SMOOTH",
"59 501 OFFCURVE",
"45 484 OFFCURVE",
"52 464 CURVE SMOOTH",
"216 12 LINE SMOOTH",
"220 2 OFFCURVE",
"229 -2 OFFCURVE",
"256 -2 CURVE SMOOTH"
);
}
);
width = 515;
}
);
unicode = 0076;
},
{
glyphname = w;
lastChange = "2020-12-29 14:14:00 +0000";
layers = (
{
layerId = "A36D14D1-FF07-4574-A62D-30DF65569781";
paths = (
{
closed = 1;
nodes = (
"485 -7 OFFCURVE",
"503 -5 OFFCURVE",
"509 13 CURVE SMOOTH",
"664 461 LINE SMOOTH",
"668 472 OFFCURVE",
"660 485 OFFCURVE",
"637 495 CURVE SMOOTH",
"627 499 OFFCURVE",
"609 499 OFFCURVE",
"606 489 CURVE SMOOTH",
"469 83 LINE",
"383 320 LINE SMOOTH",
"378 334 OFFCURVE",
"364 342 OFFCURVE",
"352 342 CURVE SMOOTH",
"341 341 OFFCURVE",
"327 335 OFFCURVE",
"323 321 CURVE SMOOTH",
"250 85 LINE",
"105 489 LINE SMOOTH",
"101 499 OFFCURVE",
"83 500 OFFCURVE",
"63 490 CURVE SMOOTH",
"53 485 OFFCURVE",
"47 472 OFFCURVE",
"51 461 CURVE SMOOTH",
"208 6 LINE SMOOTH",
"212 -4 OFFCURVE",
"230 -5 OFFCURVE",
"255 2 CURVE SMOOTH",
"262 4 OFFCURVE",
"280 9 OFFCURVE",
"283 19 CURVE SMOOTH",
"350 251 LINE SMOOTH",
"351 254 OFFCURVE",
"351 256 OFFCURVE",
"353 256 CURVE SMOOTH",
"355 256 OFFCURVE",
"355 253 OFFCURVE",
"356 251 CURVE SMOOTH",
"431 26 LINE SMOOTH",
"433 18 OFFCURVE",
"444 7 OFFCURVE",
"463 1 CURVE SMOOTH"
);
}
);
width = 715;
}
);
unicode = 0077;
},
{
glyphname = x;
lastChange = "2020-12-29 14:14:00 +0000";
layers = (
{
layerId = "A36D14D1-FF07-4574-A62D-30DF65569781";
paths = (
{
closed = 1;
nodes = (
"112 2 LINE SMOOTH",
"123 2 OFFCURVE",
"129 11 OFFCURVE",
"132 22 CURVE SMOOTH",
"192 227 LINE SMOOTH",
"195 238 OFFCURVE",
"201 247 OFFCURVE",
"212 247 CURVE SMOOTH",
"241 247 LINE SMOOTH",
"252 247 OFFCURVE",
"258 238 OFFCURVE",
"261 227 CURVE SMOOTH",
"321 22 LINE SMOOTH",
"324 11 OFFCURVE",
"330 2 OFFCURVE",
"341 2 CURVE SMOOTH",
"382 2 LINE SMOOTH",
"393 2 OFFCURVE",
"405 11 OFFCURVE",
"402 22 CURVE SMOOTH",
"342 221 LINE SMOOTH",
"336.841 237.625 OFFCURVE",
"330.366 251.949 OFFCURVE",
"320.317 261.147 CURVE",
"330.013 270.355 OFFCURVE",
"336.328 284.551 OFFCURVE",
"342 301 CURVE SMOOTH",
"402 480 LINE SMOOTH",
"406 491 OFFCURVE",
"393 500 OFFCURVE",
"382 500 CURVE SMOOTH",
"341 500 LINE SMOOTH",
"330 500 OFFCURVE",
"325 491 OFFCURVE",
"321 480 CURVE SMOOTH",
"261 298 LINE SMOOTH",
"257 287 OFFCURVE",
"252 278 OFFCURVE",
"241 278 CURVE SMOOTH",
"212 278 LINE SMOOTH",
"201 278 OFFCURVE",
"196 287 OFFCURVE",
"192 298 CURVE SMOOTH",
"132 480 LINE SMOOTH",
"128 491 OFFCURVE",
"123 500 OFFCURVE",
"112 500 CURVE SMOOTH",
"71 500 LINE SMOOTH",
"60 500 OFFCURVE",
"47 491 OFFCURVE",
"51 480 CURVE SMOOTH",
"111 301 LINE SMOOTH",
"116.672 284.551 OFFCURVE",
"122.987 270.355 OFFCURVE",
"132.683 261.147 CURVE",
"122.634 251.949 OFFCURVE",
"116.159 237.625 OFFCURVE",
"111 221 CURVE SMOOTH",
"51 22 LINE SMOOTH",
"48 11 OFFCURVE",
"60 2 OFFCURVE",
"71 2 CURVE SMOOTH"
);
}
);
width = 453;
}
);
unicode = 0078;
},
{
glyphname = y;
lastChange = "2020-12-29 14:13:59 +0000";
layers = (
{
anchors = (
{
name = top;
position = "{246, 500}";
}
);
layerId = "A36D14D1-FF07-4574-A62D-30DF65569781";
paths = (
{
closed = 1;
nodes = (
"405 -199 LINE SMOOTH",
"434 -199 OFFCURVE",
"456 -177 OFFCURVE",
"456 -148 CURVE SMOOTH",
"456 46 LINE",
"455.769 45.9 LINE",
"456 51 LINE",
"456 480 LINE SMOOTH",
"456 491 OFFCURVE",
"447 500 OFFCURVE",
"436 500 CURVE SMOOTH",
"395 500 LINE SMOOTH",
"384 500 OFFCURVE",
"375 491 OFFCURVE",
"375 480 CURVE SMOOTH",
"375 66 LINE SMOOTH",
"375 55 OFFCURVE",
"366 46 OFFCURVE",
"355 46 CURVE SMOOTH",
"156 46 LINE SMOOTH",
"145 46 OFFCURVE",
"136 55 OFFCURVE",
"136 66 CURVE SMOOTH",
"136 480 LINE SMOOTH",
"136 491 OFFCURVE",
"127 500 OFFCURVE",
"116 500 CURVE SMOOTH",
"75 500 LINE SMOOTH",
"64 500 OFFCURVE",
"55 491 OFFCURVE",
"55 480 CURVE SMOOTH",
"55 51 LINE SMOOTH",
"55 22 OFFCURVE",
"77 0 OFFCURVE",
"106 0 CURVE SMOOTH",
"375 0 LINE",
"375 -138 LINE SMOOTH",
"375 -146 OFFCURVE",
"366 -151 OFFCURVE",
"355 -151 CURVE SMOOTH",
"156 -151 LINE SMOOTH",
"145 -151 OFFCURVE",
"136 -144 OFFCURVE",
"136 -138 CURVE SMOOTH",
"136 -136 LINE SMOOTH",
"136 -123 OFFCURVE",
"126 -113 OFFCURVE",
"113 -113 CURVE SMOOTH",
"79 -112 LINE SMOOTH",
"66 -112 OFFCURVE",
"55 -123 OFFCURVE",
"55 -136 CURVE SMOOTH",
"55 -148 LINE SMOOTH",
"55 -177 OFFCURVE",
"77 -199 OFFCURVE",
"106 -199 CURVE SMOOTH"
);
}
);
width = 501;
}
);
unicode = 0079;
},
{
glyphname = z;
lastChange = "2020-12-29 14:13:59 +0000";
layers = (
{
layerId = "A36D14D1-FF07-4574-A62D-30DF65569781";
paths = (
{
closed = 1;
nodes = (
"400 0 LINE SMOOTH",
"429 0 OFFCURVE",
"451 22 OFFCURVE",
"451 51 CURVE SMOOTH",
"451 63 OFFCURVE",
"439 72 OFFCURVE",
"425 71 CURVE SMOOTH",
"382 69 LINE SMOOTH",
"375 69 OFFCURVE",
"370 65 OFFCURVE",
"366 58 CURVE SMOOTH",
"362 52 OFFCURVE",
"356 48 OFFCURVE",
"350 48 CURVE SMOOTH",
"151 48 LINE SMOOTH",
"143 48 OFFCURVE",
"136 51 OFFCURVE",
"135.706 56.268 CURVE",
"450 461 LINE",
"450 484 OFFCURVE",
"425 500 OFFCURVE",
"400 500 CURVE SMOOTH",
"101 500 LINE SMOOTH",
"72 500 OFFCURVE",
"50 478 OFFCURVE",
"50 449 CURVE SMOOTH",
"50 438 LINE SMOOTH",
"50 424 OFFCURVE",
"61 413 OFFCURVE",
"75 413 CURVE SMOOTH",
"107 414 LINE SMOOTH",
"121 414 OFFCURVE",
"131 424 OFFCURVE",
"131 438 CURVE SMOOTH",
"131 439 LINE SMOOTH",
"131 445 OFFCURVE",
"140 452 OFFCURVE",
"151 452 CURVE SMOOTH",
"349.16 452 LINE",
"62 75 LINE SMOOTH",
"58 70 OFFCURVE",
"55 59 OFFCURVE",
"55 53 CURVE SMOOTH",
"55 26 OFFCURVE",
"67 0 OFFCURVE",
"101 0 CURVE SMOOTH"
);
}
);
width = 501;
}
);
unicode = 007A;
},
{
glyphname = b.base;
lastChange = "2020-12-29 22:22:19 +0000";
layers = (
{
layerId = "A36D14D1-FF07-4574-A62D-30DF65569781";
paths = (
{
closed = 1;
nodes = (
"321 0 LINE SMOOTH",
"420 0 OFFCURVE",
"451 56 OFFCURVE",
"451 171 CURVE SMOOTH",
"451 332 LINE SMOOTH",
"451 472 OFFCURVE",
"420 500 OFFCURVE",
"260 500 CURVE SMOOTH",
"131 500 LINE",
"131 685 LINE SMOOTH",
"131 696 OFFCURVE",
"122 705 OFFCURVE",
"111 705 CURVE SMOOTH",
"70 705 LINE SMOOTH",
"59 705 OFFCURVE",
"50 696 OFFCURVE",
"50 685 CURVE SMOOTH",
"50 51 LINE SMOOTH",
"50 22 OFFCURVE",
"72 0 OFFCURVE",
"101 0 CURVE SMOOTH"
);
},
{
closed = 1;
nodes = (
"138 48 OFFCURVE",
"131 52 OFFCURVE",
"131 61 CURVE SMOOTH",
"131 429 LINE SMOOTH",
"131 447 OFFCURVE",
"137 452 OFFCURVE",
"154 452 CURVE SMOOTH",
"307 453 LINE SMOOTH",
"353 453 OFFCURVE",
"370 441 OFFCURVE",
"370 365 CURVE SMOOTH",
"370 141 LINE SMOOTH",
"370 65 OFFCURVE",
"356 48 OFFCURVE",
"307 48 CURVE SMOOTH",
"151 48 LINE SMOOTH"
);
}
);
width = 501;
}
);
},
{
glyphname = c.base;
lastChange = "2020-12-29 20:35:49 +0000";
layers = (
{
layerId = "A36D14D1-FF07-4574-A62D-30DF65569781";
paths = (
{
closed = 1;
nodes = (
"417 -1 LINE SMOOTH",
"431 -1 OFFCURVE",
"441 15 OFFCURVE",
"441 29 CURVE SMOOTH",
"441 43 OFFCURVE",
"431 53 OFFCURVE",
"417 53 CURVE SMOOTH",
"176 53 LINE SMOOTH",
"149 53 OFFCURVE",
"140 68 OFFCURVE",
"140 123 CURVE SMOOTH",
"140 590 LINE SMOOTH",
"140 629 OFFCURVE",
"147 643 OFFCURVE",
"188 643 CURVE SMOOTH",
"406 643 LINE SMOOTH",
"417 643 OFFCURVE",
"428 645 OFFCURVE",
"431 664 CURVE SMOOTH",
"434 684 OFFCURVE",
"425 699 OFFCURVE",
"413 699 CURVE SMOOTH",
"154 699 LINE SMOOTH",
"90 699 OFFCURVE",
"60 627 OFFCURVE",
"60 588 CURVE SMOOTH",
"60 125 LINE SMOOTH",
"60 24 OFFCURVE",
"109 -1 OFFCURVE",
"150 -1 CURVE SMOOTH"
);
}
);
width = 501;
}
);
},
{
glyphname = ordfeminine;
lastChange = "2020-12-29 14:14:00 +0000";
layers = (
{
layerId = "A36D14D1-FF07-4574-A62D-30DF65569781";
paths = (
{
closed = 1;
nodes = (
"216 380 OFFCURVE",
"255 395 OFFCURVE",
"284 426 CURVE",
"286 395 OFFCURVE",
"303 380 OFFCURVE",
"335 380 CURVE SMOOTH",
"352 380 OFFCURVE",
"365 383 OFFCURVE",
"378 388 CURVE",
"378 432 LINE",
"374 431 OFFCURVE",
"370 430 OFFCURVE",
"367 430 CURVE SMOOTH",
"356 430 LINE SMOOTH",
"351 430 OFFCURVE",
"347 432 OFFCURVE",
"345 437 CURVE SMOOTH",
"343 442 OFFCURVE",
"342 450 OFFCURVE",
"342 462 CURVE SMOOTH",
"342 622 LINE SMOOTH",
"342 695 OFFCURVE",
"270 709 OFFCURVE",
"212 709 CURVE SMOOTH",
"138 709 OFFCURVE",
"68 682 OFFCURVE",
"65 603 CURVE",
"125 603 LINE",
"128 646 OFFCURVE",
"160 659 OFFCURVE",
"208 659 CURVE SMOOTH",
"246 659 OFFCURVE",
"285 655 OFFCURVE",
"285 610 CURVE SMOOTH",
"285 583 OFFCURVE",
"261 577 OFFCURVE",
"170 568 CURVE SMOOTH",
"111 563 OFFCURVE",
"50 540 OFFCURVE",
"50 469 CURVE SMOOTH",
"50 407 OFFCURVE",
"105 379 OFFCURVE",
"167 380 CURVE SMOOTH"
);
},
{
closed = 1;
nodes = (
"147 430 OFFCURVE",
"118 436 OFFCURVE",
"118 471 CURVE SMOOTH",
"118 506 OFFCURVE",
"146 516 OFFCURVE",
"182 523 CURVE SMOOTH",
"238 532 LINE SMOOTH",
"257 535 OFFCURVE",
"271 539 OFFCURVE",
"282 546 CURVE",
"282 499 LINE SMOOTH",
"282 466 OFFCURVE",
"251 430 OFFCURVE",
"180 430 CURVE SMOOTH"
);
}
);
width = 428;
}
);
note = ordfeminine;
unicode = 00AA;
},
{
glyphname = ordmasculine;
lastChange = "2020-12-29 14:14:00 +0000";
layers = (
{
layerId = "A36D14D1-FF07-4574-A62D-30DF65569781";
paths = (
{
closed = 1;
nodes = (
"327 380 OFFCURVE",
"384 447 OFFCURVE",
"384 543 CURVE SMOOTH",
"384 637 OFFCURVE",
"323 712 OFFCURVE",
"217 709 CURVE SMOOTH",
"111 709 OFFCURVE",
"50 637 OFFCURVE",
"50 543 CURVE SMOOTH",
"50 446 OFFCURVE",
"114 380 OFFCURVE",
"218 380 CURVE SMOOTH"
);
},
{
closed = 1;
nodes = (
"163 439 OFFCURVE",
"120 485 OFFCURVE",
"118 543 CURVE SMOOTH",
"118 623 OFFCURVE",
"161 659 OFFCURVE",
"217 659 CURVE SMOOTH",
"256 659 OFFCURVE",
"314 645 OFFCURVE",
"316 542 CURVE",
"313 463 OFFCURVE",
"259 436 OFFCURVE",
"216 437 CURVE SMOOTH"
);
}
);
width = 434;
}
);
note = ordmasculine;
unicode = 00BA;
},
{
glyphname = "fu-ethiopic";
lastChange = "2020-12-30 02:30:49 +0000";
layers = (
{
components = (
{
name = fa.base;
}
);
layerId = "A36D14D1-FF07-4574-A62D-30DF65569781";
paths = (
{
closed = 1;
nodes = (
"182 -162 OFFCURVE",
"193 -160 OFFCURVE",
"201 -152 CURVE",
"307 -26 LINE SMOOTH",
"314 -17 OFFCURVE",
"313 -6 OFFCURVE",
"304 2 CURVE SMOOTH",
"289 15 LINE SMOOTH",
"280 22 OFFCURVE",
"269 20 OFFCURVE",
"261 12 CURVE",
"155 -114 LINE SMOOTH",
"148 -123 OFFCURVE",
"149 -134 OFFCURVE",
"158 -142 CURVE SMOOTH",
"173 -155 LINE SMOOTH"
);
}
);
width = 501;
}
);
unicode = 1349;
},
{
glyphname = "mya-ethiopic";
lastChange = "2020-12-29 14:14:00 +0000";
layers = (
{
layerId = "A36D14D1-FF07-4574-A62D-30DF65569781";
paths = (
{
closed = 1;
nodes = (
"238 0 LINE SMOOTH",
"249 0 OFFCURVE",
"258 9 OFFCURVE",
"258 20 CURVE SMOOTH",
"258 475 LINE",
"316 475 LINE",
"316 20 LINE SMOOTH",
"316 9 OFFCURVE",
"325 0 OFFCURVE",
"336 0 CURVE SMOOTH",
"480 0 LINE SMOOTH",
"509 0 OFFCURVE",
"531 22 OFFCURVE",
"531 51 CURVE SMOOTH",
"531 480 LINE SMOOTH",
"531 491 OFFCURVE",
"523 499 OFFCURVE",
"512 500 CURVE",
"290 500 LINE",
"290 595 LINE",
"365 595 LINE",
"365 612 LINE",
"172 612 LINE",
"172 595 LINE",
"270 595 LINE",
"270 500 LINE",
"69 500 LINE",
"58 499 OFFCURVE",
"50 491 OFFCURVE",
"50 480 CURVE SMOOTH",
"50 51 LINE SMOOTH",
"50 22 OFFCURVE",
"72 0 OFFCURVE",
"101 0 CURVE SMOOTH"
);
},
{
closed = 1;
nodes = (
"511 -162 LINE SMOOTH",
"522 -162 OFFCURVE",
"531 -153 OFFCURVE",
"531 -142 CURVE SMOOTH",
"531 -141 LINE SMOOTH",
"531 -130 OFFCURVE",
"522 -121 OFFCURVE",
"511 -121 CURVE SMOOTH",
"441 -121 LINE",
"441 -21 LINE",
"400 -20 LINE",
"400 -162 LINE"
);
},
{
closed = 1;
nodes = (
"133 41 OFFCURVE",
"124 50 OFFCURVE",
"124 61 CURVE SMOOTH",
"124 455 LINE SMOOTH",
"124 466 OFFCURVE",
"133 475 OFFCURVE",
"144 475 CURVE SMOOTH",
"206 475 LINE",
"206 41 LINE",
"144 41 LINE SMOOTH"
);
},
{
closed = 1;
nodes = (
"368 475 LINE",
"441 475 LINE SMOOTH",
"452 475 OFFCURVE",
"461 466 OFFCURVE",
"461 455 CURVE SMOOTH",
"461 61 LINE SMOOTH",
"461 50 OFFCURVE",
"452 41 OFFCURVE",
"441 41 CURVE SMOOTH",
"368 41 LINE"
);
}
);
width = 581;
}
);
unicode = 1359;
},
{
glyphname = "fya-ethiopic";
lastChange = "2020-12-29 14:14:00 +0000";
layers = (
{
layerId = "A36D14D1-FF07-4574-A62D-30DF65569781";
paths = (
{
closed = 1;
nodes = (
"400 0 LINE SMOOTH",
"429 0 OFFCURVE",
"451 22 OFFCURVE",
"451 51 CURVE SMOOTH",
"451 76 LINE",
"370 78 LINE",
"370 61 LINE SMOOTH",
"370 50 OFFCURVE",
"361 41 OFFCURVE",
"350 41 CURVE SMOOTH",
"151 41 LINE SMOOTH",
"140 41 OFFCURVE",
"131 50 OFFCURVE",
"131 61 CURVE SMOOTH",
"131 480 LINE SMOOTH",
"131 491 OFFCURVE",
"122 500 OFFCURVE",
"111 500 CURVE SMOOTH",
"70 500 LINE SMOOTH",
"59 500 OFFCURVE",
"50 491 OFFCURVE",
"50 480 CURVE SMOOTH",
"50 51 LINE SMOOTH",
"50 22 OFFCURVE",
"72 0 OFFCURVE",
"101 0 CURVE SMOOTH"
);
},
{
closed = 1;
nodes = (
"304 44 LINE",
"304 155 LINE SMOOTH",
"304 166 OFFCURVE",
"295 175 OFFCURVE",
"284 175 CURVE SMOOTH",
"134 175 LINE",
"135 134 LINE",
"263 134 LINE",
"263 44 LINE"
);
},
{
closed = 1;
nodes = (
"405 78 OFFCURVE",
"454 115 OFFCURVE",
"455 160 CURVE SMOOTH",
"456 206 OFFCURVE",
"422 245 OFFCURVE",
"377 245 CURVE SMOOTH",
"373 245 LINE",
"373 213 LINE",
"377 213 LINE SMOOTH",
"410 213 OFFCURVE",
"426 190 OFFCURVE",
"425 161 CURVE SMOOTH",
"424 131 OFFCURVE",
"403 110 OFFCURVE",
"374 110 CURVE SMOOTH",
"373 110 OFFCURVE",
"372 111 OFFCURVE",
"371 111 CURVE",
"371 79 LINE",
"371 79 OFFCURVE",
"373 78 OFFCURVE",
"374 78 CURVE SMOOTH"
);
},
{
closed = 1;
nodes = (
"192 518 LINE",
"191 559 LINE",
"91 559 LINE",
"91 629 LINE SMOOTH",
"91 640 OFFCURVE",
"82 649 OFFCURVE",
"71 649 CURVE SMOOTH",
"70 649 LINE SMOOTH",
"59 649 OFFCURVE",
"50 640 OFFCURVE",
"50 629 CURVE SMOOTH",
"50 518 LINE"
);
}
);
width = 505;
}
);
unicode = 135A;
},
{
glyphname = "mya-ethiopic.etcp";
lastChange = "2020-12-29 14:14:00 +0000";
layers = (
{
layerId = "A36D14D1-FF07-4574-A62D-30DF65569781";
paths = (
{
closed = 1;
nodes = (
"267 -2 LINE SMOOTH",
"279 -2 OFFCURVE",
"289 10 OFFCURVE",
"289 24 CURVE SMOOTH",
"289 616 LINE",
"353 616 LINE",
"353 24 LINE SMOOTH",
"353 10 OFFCURVE",
"362 -2 OFFCURVE",
"375 -2 CURVE SMOOTH",
"533 -2 LINE SMOOTH",
"565 -2 OFFCURVE",
"589 27 OFFCURVE",
"589 64 CURVE SMOOTH",
"589 622 LINE SMOOTH",
"589 636 OFFCURVE",
"580 647 OFFCURVE",
"568 648 CURVE",
"324 648 LINE",
"324 772 LINE",
"406 772 LINE",
"406 794 LINE",
"194 794 LINE",
"194 772 LINE",
"302 772 LINE",
"302 648 LINE",
"81 648 LINE",
"69 647 OFFCURVE",
"60 636 OFFCURVE",
"60 622 CURVE SMOOTH",
"60 64 LINE SMOOTH",
"60 27 OFFCURVE",
"84 -2 OFFCURVE",
"116 -2 CURVE SMOOTH"
);
},
{
closed = 1;
nodes = (
"567 -213 LINE SMOOTH",
"579 -213 OFFCURVE",
"589 -201 OFFCURVE",
"589 -187 CURVE SMOOTH",
"589 -185 LINE SMOOTH",
"589 -171 OFFCURVE",
"579 -159 OFFCURVE",
"567 -159 CURVE SMOOTH",
"490 -159 LINE",
"490 -29 LINE",
"445 -28 LINE",
"445 -213 LINE"
);
},
{
closed = 1;
nodes = (
"151 51 OFFCURVE",
"141 63 OFFCURVE",
"141 77 CURVE SMOOTH",
"141 590 LINE SMOOTH",
"141 604 OFFCURVE",
"151 616 OFFCURVE",
"163 616 CURVE SMOOTH",
"232 616 LINE",
"232 51 LINE",
"163 51 LINE SMOOTH"
);
},
{
closed = 1;
nodes = (
"410 616 LINE",
"490 616 LINE SMOOTH",
"502 616 OFFCURVE",
"512 604 OFFCURVE",
"512 590 CURVE SMOOTH",
"512 77 LINE SMOOTH",
"512 63 OFFCURVE",
"502 51 OFFCURVE",
"490 51 CURVE SMOOTH",
"410 51 LINE"
);
}
);
width = 649;
}
);
},
{
glyphname = "fya-ethiopic.etcp";
lastChange = "2020-12-29 14:14:00 +0000";
layers = (
{
layerId = "A36D14D1-FF07-4574-A62D-30DF65569781";
paths = (
{
closed = 1;
nodes = (
"445 -2 LINE SMOOTH",
"477 -2 OFFCURVE",
"501 27 OFFCURVE",
"501 64 CURVE SMOOTH",
"501 97 LINE",
"412 99 LINE",
"412 77 LINE SMOOTH",
"412 63 OFFCURVE",
"402 51 OFFCURVE",
"390 51 CURVE SMOOTH",
"171 51 LINE SMOOTH",
"159 51 OFFCURVE",
"149 63 OFFCURVE",
"149 77 CURVE SMOOTH",
"149 622 LINE SMOOTH",
"149 636 OFFCURVE",
"139 648 OFFCURVE",
"127 648 CURVE SMOOTH",
"105 648 LINE",
"105 671 LINE",
"216 671 LINE",
"215 725 LINE",
"105 725 LINE",
"105 768 LINE SMOOTH",
"105 782 OFFCURVE",
"95 794 OFFCURVE",
"83 794 CURVE SMOOTH",
"82 794 LINE SMOOTH",
"70 794 OFFCURVE",
"60 782 OFFCURVE",
"60 768 CURVE SMOOTH",
"60 625 LINE",
"60.154 625 LINE",
"60 622 LINE",
"60 64 LINE SMOOTH",
"60 27 OFFCURVE",
"84 -2 OFFCURVE",
"116 -2 CURVE SMOOTH"
);
},
{
closed = 1;
nodes = (
"339 55 LINE",
"339 200 LINE SMOOTH",
"339 214 OFFCURVE",
"329 226 OFFCURVE",
"317 226 CURVE SMOOTH",
"152 226 LINE",
"153 172 LINE",
"294 172 LINE",
"294 55 LINE"
);
},
{
closed = 1;
nodes = (
"450 99 OFFCURVE",
"504 148 OFFCURVE",
"505 206 CURVE SMOOTH",
"507 266 OFFCURVE",
"469 317 OFFCURVE",
"420 317 CURVE SMOOTH",
"415 317 LINE",
"415 275 LINE",
"420 275 LINE SMOOTH",
"456 275 OFFCURVE",
"474 245 OFFCURVE",
"472 207 CURVE SMOOTH",
"471 168 OFFCURVE",
"448 141 OFFCURVE",
"416 141 CURVE SMOOTH",
"415 141 OFFCURVE",
"414 142 OFFCURVE",
"413 142 CURVE",
"413 101 LINE",
"413 101 OFFCURVE",
"415 99 OFFCURVE",
"416 99 CURVE SMOOTH"
);
}
);
width = 565;
}
);
},
{
glyphname = "one-ethiopic";
lastChange = "2020-12-29 14:14:00 +0000";
layers = (
{
components = (
{
name = _number.bar;
}
);
layerId = "A36D14D1-FF07-4574-A62D-30DF65569781";
paths = (
{
closed = 1;
nodes = (
"357 108 LINE SMOOTH",
"418 108 OFFCURVE",
"442 131 OFFCURVE",
"442 163 CURVE SMOOTH",
"443 359 LINE SMOOTH",
"443 367 OFFCURVE",
"437 373 OFFCURVE",
"429 373 CURVE SMOOTH",
"197 372 LINE SMOOTH",
"189 372 OFFCURVE",
"183 378 OFFCURVE",
"183 387 CURVE SMOOTH",
"183 528 LINE SMOOTH",
"183 538 OFFCURVE",
"186 541 OFFCURVE",
"197 541 CURVE SMOOTH",
"210 541 LINE",
"210 586 LINE",
"182 587 LINE SMOOTH",
"130 589 OFFCURVE",
"124 547 OFFCURVE",
"124 529 CURVE SMOOTH",
"124 163 LINE SMOOTH",
"124 132 OFFCURVE",
"143 108 OFFCURVE",
"201 108 CURVE SMOOTH"
);
},
{
closed = 1;
nodes = (
"186 152 OFFCURVE",
"183 155 OFFCURVE",
"183 166 CURVE SMOOTH",
"183 302 LINE SMOOTH",
"183 318 OFFCURVE",
"195 331 OFFCURVE",
"211 331 CURVE SMOOTH",
"372 331 LINE SMOOTH",
"380 331 OFFCURVE",
"386 324 OFFCURVE",
"386 317 CURVE SMOOTH",
"386 166 LINE SMOOTH",
"386 155 OFFCURVE",
"382 152 OFFCURVE",
"372 152 CURVE SMOOTH",
"197 152 LINE SMOOTH"
);
}
);
width = 503;
}
);
unicode = 1369;
},
{
glyphname = "two-ethiopic";
lastChange = "2020-12-29 14:14:00 +0000";
layers = (
{
components = (
{
name = _number.bar;
}
);
layerId = "A36D14D1-FF07-4574-A62D-30DF65569781";
paths = (
{
closed = 1;
nodes = (
"357 108 LINE SMOOTH",
"418 108 OFFCURVE",
"442 131 OFFCURVE",
"442 163 CURVE SMOOTH",
"443 359 LINE SMOOTH",
"443 367 OFFCURVE",
"437 373 OFFCURVE",
"429 373 CURVE SMOOTH",
"197 372 LINE SMOOTH",
"189 372 OFFCURVE",
"183 378 OFFCURVE",
"183 387 CURVE SMOOTH",
"183 414 LINE",
"376 414 LINE SMOOTH",
"384 414 OFFCURVE",
"392 423 OFFCURVE",
"392 432 CURVE SMOOTH",
"392 567 LINE SMOOTH",
"392 576 OFFCURVE",
"384 584 OFFCURVE",
"376 587 CURVE",
"182 587 LINE SMOOTH",
"130 588 OFFCURVE",
"124 547 OFFCURVE",
"124 529 CURVE SMOOTH",
"124 163 LINE SMOOTH",
"124 132 OFFCURVE",
"143 108 OFFCURVE",
"201 108 CURVE SMOOTH"
);
},
{
closed = 1;
nodes = (
"186 152 OFFCURVE",
"183 155 OFFCURVE",
"183 166 CURVE SMOOTH",
"183 302 LINE SMOOTH",
"183 318 OFFCURVE",
"195 331 OFFCURVE",
"211 331 CURVE SMOOTH",
"372 331 LINE SMOOTH",
"380 331 OFFCURVE",
"386 324 OFFCURVE",
"386 317 CURVE SMOOTH",
"386 166 LINE SMOOTH",
"386 155 OFFCURVE",
"382 152 OFFCURVE",
"372 152 CURVE SMOOTH",
"197 152 LINE SMOOTH"
);
},
{
closed = 1;
nodes = (
"183 528 LINE SMOOTH",
"183 538 OFFCURVE",
"186 540 OFFCURVE",
"197 540 CURVE SMOOTH",
"340 539 LINE SMOOTH",
"348 539 OFFCURVE",
"356 531 OFFCURVE",
"356 523 CURVE SMOOTH",
"356 469 LINE SMOOTH",
"356 459 OFFCURVE",
"348 452 OFFCURVE",
"340 452 CURVE SMOOTH",
"183 452 LINE"
);
}
);
width = 503;
}
);
unicode = 136A;
},
{
glyphname = "three-ethiopic";
lastChange = "2020-12-29 14:13:59 +0000";
layers = (
{
components = (
{
name = _number.bar;
}
);
layerId = "A36D14D1-FF07-4574-A62D-30DF65569781";
paths = (
{
closed = 1;
nodes = (
"199 531 LINE SMOOTH",
"199 539 OFFCURVE",
"202 542 OFFCURVE",
"208 542 CURVE SMOOTH",
"352 542 LINE SMOOTH",
"357 542 OFFCURVE",
"359 539 OFFCURVE",
"359 531 CURVE SMOOTH",
"359 528 OFFCURVE",
"366 524 OFFCURVE",
"376 524 CURVE SMOOTH",
"399 524 LINE SMOOTH",
"408 524 OFFCURVE",
"415 528 OFFCURVE",
"415 533 CURVE SMOOTH",
"415 560 OFFCURVE",
"404 578 OFFCURVE",
"354 578 CURVE SMOOTH",
"212 578 LINE SMOOTH",
"164 578 OFFCURVE",
"144 558 OFFCURVE",
"144 533 CURVE SMOOTH",
"144 148 LINE SMOOTH",
"144 134 OFFCURVE",
"156 101 OFFCURVE",
"199 101 CURVE"
);
}
);
width = 499;
}
);
unicode = 136B;
},
{
glyphname = "four-ethiopic";
lastChange = "2020-12-29 14:14:00 +0000";
layers = (
{
components = (
{
name = _number.bar;
}
);
layerId = "A36D14D1-FF07-4574-A62D-30DF65569781";
paths = (
{
closed = 1;
nodes = (
"377 118 OFFCURVE",
"386 151 OFFCURVE",
"385 165 CURVE",
"385 550 LINE SMOOTH",
"386 575 OFFCURVE",
"366 595 OFFCURVE",
"318 595 CURVE SMOOTH",
"176 595 LINE SMOOTH",
"126 595 OFFCURVE",
"115 577 OFFCURVE",
"115 550 CURVE SMOOTH",
"115 163 LINE SMOOTH",
"115 139 OFFCURVE",
"130 119 OFFCURVE",
"172 119 CURVE SMOOTH",
"333 118 LINE SMOOTH"
);
},
{
closed = 1;
nodes = (
"173 155 OFFCURVE",
"171 158 OFFCURVE",
"170 167 CURVE",
"170 548 LINE",
"171 556 OFFCURVE",
"173 559 OFFCURVE",
"178 559 CURVE SMOOTH",
"322 559 LINE SMOOTH",
"328 559 OFFCURVE",
"331 556 OFFCURVE",
"330 548 CURVE",
"330 167 LINE",
"331 158 OFFCURVE",
"328 155 OFFCURVE",
"322 155 CURVE SMOOTH",
"178 155 LINE SMOOTH"
);
}
);
width = 499;
}
);
unicode = 136C;
},
{
glyphname = "five-ethiopic";
lastChange = "2020-12-29 14:14:00 +0000";
layers = (
{
components = (
{
name = _number.bar;
}
);
layerId = "A36D14D1-FF07-4574-A62D-30DF65569781";
paths = (
{
closed = 1;
nodes = (
"374 108 LINE SMOOTH",
"424 108 OFFCURVE",
"435 126 OFFCURVE",
"435 153 CURVE SMOOTH",
"435 158 OFFCURVE",
"428 162 OFFCURVE",
"419 162 CURVE SMOOTH",
"396 162 LINE SMOOTH",
"386 162 OFFCURVE",
"379 158 OFFCURVE",
"379 155 CURVE SMOOTH",
"379 147 OFFCURVE",
"377 144 OFFCURVE",
"372 144 CURVE SMOOTH",
"228 144 LINE SMOOTH",
"222 144 OFFCURVE",
"219 147 OFFCURVE",
"219 155 CURVE SMOOTH",
"219 445 LINE",
"366 445 LINE",
"366 500 LINE",
"219 500 LINE",
"219 585 LINE",
"176 585 OFFCURVE",
"164 552 OFFCURVE",
"164 538 CURVE SMOOTH",
"164 153 LINE SMOOTH",
"164 128 OFFCURVE",
"184 108 OFFCURVE",
"232 108 CURVE SMOOTH"
);
}
);
width = 499;
}
);
unicode = 136D;
},
{
glyphname = "six-ethiopic";
lastChange = "2020-12-29 14:14:00 +0000";
layers = (
{
components = (
{
name = _number.bar;
transform = "{-1, 0, 0, 1, 499, 0}";
}
);
layerId = "A36D14D1-FF07-4574-A62D-30DF65569781";
paths = (
{
closed = 1;
nodes = (
"327 103 OFFCURVE",
"361 138 OFFCURVE",
"361 181 CURVE SMOOTH",
"361 220.01 OFFCURVE",
"330.221 253.588 OFFCURVE",
"291.919 256.756 CURVE",
"384 533 LINE SMOOTH",
"394 563 OFFCURVE",
"365 587 OFFCURVE",
"306 587 CURVE SMOOTH",
"150 587 LINE SMOOTH",
"90 587 OFFCURVE",
"66 565 OFFCURVE",
"66 533 CURVE SMOOTH",
"66 523 LINE",
"122 523 LINE",
"122 529 LINE SMOOTH",
"122 540 OFFCURVE",
"125 543 OFFCURVE",
"135 543 CURVE SMOOTH",
"310 543 LINE SMOOTH",
"321 543 OFFCURVE",
"328 540 OFFCURVE",
"324 529 CURVE SMOOTH",
"228.716 230.563 LINE",
"217.058 217.116 OFFCURVE",
"210 199.681 OFFCURVE",
"210 181 CURVE SMOOTH",
"210 138 OFFCURVE",
"244 103 OFFCURVE",
"286 103 CURVE SMOOTH"
);
},
{
closed = 1;
nodes = (
"262 137 OFFCURVE",
"243 156 OFFCURVE",
"243 181 CURVE SMOOTH",
"243 204 OFFCURVE",
"262 223 OFFCURVE",
"286 223 CURVE SMOOTH",
"309 223 OFFCURVE",
"328 204 OFFCURVE",
"328 181 CURVE SMOOTH",
"328 156 OFFCURVE",
"309 137 OFFCURVE",
"286 137 CURVE SMOOTH"
);
}
);
width = 499;
}
);
unicode = 136E;
},
{
glyphname = "seven-ethiopic";
lastChange = "2020-12-29 14:14:00 +0000";
layers = (
{
components = (
{
name = _number.bar;
transform = "{-1, 0, 0, 1, 513, 0}";
}
);
layerId = "A36D14D1-FF07-4574-A62D-30DF65569781";
paths = (
{
closed = 1;
nodes = (
"196 126.518 LINE",
"341 126 LINE",
"341 159 LINE",
"245.24 159 LINE",
"378 535 LINE SMOOTH",
"389 565 OFFCURVE",
"359 589 OFFCURVE",
"300 589 CURVE SMOOTH",
"144 589 LINE SMOOTH",
"84 589 OFFCURVE",
"60 567 OFFCURVE",
"60 535 CURVE SMOOTH",
"60 525 LINE",
"116 525 LINE",
"116 531 LINE SMOOTH",
"116 542 OFFCURVE",
"119 545 OFFCURVE",
"129 545 CURVE SMOOTH",
"304 545 LINE SMOOTH",
"315 545 OFFCURVE",
"322 542 OFFCURVE",
"318 531 CURVE SMOOTH",
"179 125 LINE"
);
}
);
width = 513;
}
);
unicode = 136F;
},
{
glyphname = "eight-ethiopic";
lastChange = "2020-12-29 14:14:00 +0000";
layers = (
{
components = (
{
name = _number.bar;
}
);
layerId = "A36D14D1-FF07-4574-A62D-30DF65569781";
paths = (
{
closed = 1;
nodes = (
"303 125 LINE",
"303 167 LINE",
"269 167 LINE",
"269 186 LINE",
"270 515 LINE",
"270 523 LINE",
"310 523 LINE",
"310 585 LINE",
"190 585 LINE",
"190 523 LINE",
"195 523 LINE",
"195 522 LINE",
"217 522 LINE",
"217 523 LINE",
"218 523 LINE",
"218 167 LINE",
"182 167 LINE",
"182 125 LINE"
);
}
);
width = 499;
}
);
unicode = 1370;
},
{
glyphname = "nine-ethiopic";
lastChange = "2020-12-29 14:14:00 +0000";
layers = (
{
components = (
{
name = _number.bar;
}
);
layerId = "A36D14D1-FF07-4574-A62D-30DF65569781";
paths = (
{
closed = 1;
nodes = (
"404 130 OFFCURVE",
"410 168 OFFCURVE",
"410 184 CURVE SMOOTH",
"410 516 LINE SMOOTH",
"410 544 OFFCURVE",
"393 565 OFFCURVE",
"341 566 CURVE",
"341 526 LINE",
"343 526 LINE SMOOTH",
"353 526 OFFCURVE",
"356 523 OFFCURVE",
"356 513 CURVE SMOOTH",
"356 418 LINE",
"173 418 LINE",
"173 513 LINE SMOOTH",
"173 522 OFFCURVE",
"174 525 OFFCURVE",
"182 526 CURVE",
"181 565 LINE",
"138 561 OFFCURVE",
"121 542 OFFCURVE",
"121 516 CURVE SMOOTH",
"121 188 LINE SMOOTH",
"121 162 OFFCURVE",
"133 134 OFFCURVE",
"179 133 CURVE SMOOTH",
"357 131 LINE SMOOTH"
);
},
{
closed = 1;
nodes = (
"175 173 OFFCURVE",
"173 176 OFFCURVE",
"173 185 CURVE SMOOTH",
"173 386 LINE",
"356 386 LINE",
"356 185 LINE SMOOTH",
"356 176 OFFCURVE",
"353 173 OFFCURVE",
"343 173 CURVE SMOOTH",
"184 173 LINE SMOOTH"
);
}
);
width = 499;
}
);
unicode = 1371;
},
{
glyphname = "twenty-ethiopic";
lastChange = "2020-12-29 14:14:00 +0000";
layers = (
{
components = (
{
name = _number.bar;
}
);
layerId = "A36D14D1-FF07-4574-A62D-30DF65569781";
paths = (
{
closed = 1;
nodes = (
"200 157 LINE",
"199 160 OFFCURVE",
"198 162 OFFCURVE",
"198 166 CURVE SMOOTH",
"198 303 LINE SMOOTH",
"198 318 OFFCURVE",
"211 331 OFFCURVE",
"226 331 CURVE SMOOTH",
"387 331 LINE SMOOTH",
"395 331 OFFCURVE",
"401 324 OFFCURVE",
"401 317 CURVE SMOOTH",
"401 166 LINE SMOOTH",
"401 158 OFFCURVE",
"399 155 OFFCURVE",
"394 153 CURVE",
"397 110 LINE",
"440 115 OFFCURVE",
"457 136 OFFCURVE",
"457 163 CURVE SMOOTH",
"459 359 LINE SMOOTH",
"459 367 OFFCURVE",
"452 373 OFFCURVE",
"445 373 CURVE SMOOTH",
"212 372 LINE SMOOTH",
"204 372 OFFCURVE",
"198 379 OFFCURVE",
"198 387 CURVE SMOOTH",
"198 528 LINE SMOOTH",
"198 538 OFFCURVE",
"202 541 OFFCURVE",
"212 541 CURVE SMOOTH",
"225 541 LINE",
"225 542 LINE",
"282 542 LINE SMOOTH",
"291 542 OFFCURVE",
"299 543 OFFCURVE",
"306 544 CURVE",
"303 587 LINE",
"302 586 OFFCURVE",
"299 586 OFFCURVE",
"297 586 CURVE SMOOTH",
"225 586 LINE",
"197 587 LINE SMOOTH",
"190.907 587.234 OFFCURVE",
"185.445 586.865 OFFCURVE",
"180.551 586 CURVE",
"121 586 LINE",
"111 543 LINE",
"116 542 OFFCURVE",
"121 542 OFFCURVE",
"125 542 CURVE SMOOTH",
"140.018 542 LINE",
"139.236 537.077 OFFCURVE",
"139 532.567 OFFCURVE",
"139 529 CURVE SMOOTH",
"139 163 LINE SMOOTH",
"139 135 OFFCURVE",
"154 112 OFFCURVE",
"202 109 CURVE"
);
}
);
width = 519;
}
);
unicode = 1373;
},
{
glyphname = "thirty-ethiopic";
lastChange = "2020-12-29 14:14:00 +0000";
layers = (
{
components = (
{
name = _number.bar;
}
);
layerId = "A36D14D1-FF07-4574-A62D-30DF65569781";
paths = (
{
closed = 1;
nodes = (
"365 109 LINE SMOOTH",
"417 109 OFFCURVE",
"423 149 OFFCURVE",
"423 167 CURVE SMOOTH",
"423 533 LINE SMOOTH",
"423 563 OFFCURVE",
"405 586 OFFCURVE",
"351 588 CURVE",
"351 544 LINE",
"361 544 OFFCURVE",
"364 541 OFFCURVE",
"364 530 CURVE SMOOTH",
"364 168 LINE SMOOTH",
"364 158 OFFCURVE",
"361 155 OFFCURVE",
"350 155 CURVE SMOOTH",
"348 155 LINE",
"348 154 LINE",
"288 154 LINE SMOOTH",
"278 154 OFFCURVE",
"275 157 OFFCURVE",
"275 168 CURVE SMOOTH",
"272 570 LINE SMOOTH",
"272 580 OFFCURVE",
"264 588 OFFCURVE",
"254 588 CURVE SMOOTH",
"178 588 LINE SMOOTH",
"118 588 OFFCURVE",
"94 565 OFFCURVE",
"94 533 CURVE SMOOTH",
"94 171 LINE SMOOTH",
"94 144 OFFCURVE",
"105 113 OFFCURVE",
"154 111 CURVE",
"154 157 LINE",
"151 159 OFFCURVE",
"150 162 OFFCURVE",
"150 168 CURVE SMOOTH",
"150 530 LINE SMOOTH",
"150 541 OFFCURVE",
"153 544 OFFCURVE",
"163 544 CURVE SMOOTH",
"218 544 LINE",
"218 165 LINE SMOOTH",
"218 132 OFFCURVE",
"242 110 OFFCURVE",
"303 110 CURVE SMOOTH",
"348 110 LINE",
"348 109 LINE"
);
}
);
width = 499;
}
);
unicode = 1374;
},
{
glyphname = "forty-ethiopic";
lastChange = "2020-12-29 14:14:00 +0000";
layers = (
{
components = (
{
name = _number.bar;
transform = "{-1, 0, 0, -1, 501, 700}";
}
);
layerId = "A36D14D1-FF07-4574-A62D-30DF65569781";
paths = (
{
closed = 1;
nodes = (
"321 113 LINE SMOOTH",
"373 113 OFFCURVE",
"379 153 OFFCURVE",
"379 171 CURVE SMOOTH",
"379 537 LINE SMOOTH",
"379 565 OFFCURVE",
"364 588 OFFCURVE",
"316 591 CURVE",
"318 543 LINE",
"319 540 OFFCURVE",
"320 538 OFFCURVE",
"320 534 CURVE SMOOTH",
"320 397 LINE SMOOTH",
"320 382 OFFCURVE",
"308 369 OFFCURVE",
"292 369 CURVE SMOOTH",
"228 369 LINE",
"228 591 LINE",
"194 591 LINE",
"194 369 LINE",
"131 369 LINE SMOOTH",
"123 369 OFFCURVE",
"117 376 OFFCURVE",
"117 383 CURVE SMOOTH",
"117 534 LINE SMOOTH",
"117 542 OFFCURVE",
"119 545 OFFCURVE",
"124 547 CURVE",
"121 590 LINE",
"79 585 OFFCURVE",
"61 564 OFFCURVE",
"61 537 CURVE SMOOTH",
"60 341 LINE SMOOTH",
"60 333 OFFCURVE",
"66 327 OFFCURVE",
"74 327 CURVE SMOOTH",
"306 328 LINE SMOOTH",
"314 328 OFFCURVE",
"320 321 OFFCURVE",
"320 313 CURVE SMOOTH",
"320 172 LINE SMOOTH",
"320 164 OFFCURVE",
"317 160 OFFCURVE",
"311 159 CURVE",
"312 113 LINE"
);
}
);
width = 501;
}
);
unicode = 1375;
},
{
glyphname = "fifty-ethiopic";
lastChange = "2020-12-29 14:14:00 +0000";
layers = (
{
components = (
{
name = _number.bar;
}
);
layerId = "A36D14D1-FF07-4574-A62D-30DF65569781";
paths = (
{
closed = 1;
nodes = (
"331 135 LINE SMOOTH",
"378 135 OFFCURVE",
"383 172 OFFCURVE",
"383 188 CURVE SMOOTH",
"383 520 LINE SMOOTH",
"383 545 OFFCURVE",
"370 566 OFFCURVE",
"326 569 CURVE",
"328 525 LINE",
"329 523 OFFCURVE",
"330 521 OFFCURVE",
"330 517 CURVE SMOOTH",
"330 393 LINE SMOOTH",
"330 379 OFFCURVE",
"319 367 OFFCURVE",
"304 367 CURVE SMOOTH",
"158 367 LINE SMOOTH",
"151 367 OFFCURVE",
"146 374 OFFCURVE",
"146 380 CURVE SMOOTH",
"146 517 LINE SMOOTH",
"146 524 OFFCURVE",
"147 527 OFFCURVE",
"152 529 CURVE",
"149 568 LINE",
"111 563 OFFCURVE",
"95 544 OFFCURVE",
"95 520 CURVE SMOOTH",
"94 342 LINE SMOOTH",
"94 335 OFFCURVE",
"99 329 OFFCURVE",
"107 329 CURVE SMOOTH",
"317 330 LINE SMOOTH",
"324 330 OFFCURVE",
"330 324 OFFCURVE",
"330 317 CURVE SMOOTH",
"330 189 LINE SMOOTH",
"330 181 OFFCURVE",
"327 178 OFFCURVE",
"321 177 CURVE",
"322 135 LINE"
);
}
);
width = 499;
}
);
unicode = 1376;
},
{
glyphname = "sixty-ethiopic";
lastChange = "2020-12-29 14:14:00 +0000";
layers = (
{
components = (
{
name = _number.bar;
transform = "{0.8351, 0, 0, 1, 10, 0}";
}
);
layerId = "A36D14D1-FF07-4574-A62D-30DF65569781";
paths = (
{
closed = 1;
nodes = (
"315 135 LINE",
"315 175 LINE",
"267.778 175 LINE",
"266 199 LINE",
"269 342 LINE",
"269 350 LINE",
"269 396 LINE",
"229.347 396 LINE",
"231 515 LINE",
"299 515 LINE",
"299 575 LINE",
"138 575 LINE",
"138 515 LINE",
"180 515 LINE",
"180 344 LINE",
"217 344 LINE",
"217 175 LINE",
"153 175 LINE",
"153 135 LINE"
);
}
);
width = 437;
}
);
unicode = 1377;
},
{
glyphname = "seventy-ethiopic";
lastChange = "2020-12-29 14:14:00 +0000";
layers = (
{
components = (
{
name = _number.bar;
}
);
layerId = "A36D14D1-FF07-4574-A62D-30DF65569781";
paths = (
{
closed = 1;
nodes = (
"372 142 OFFCURVE",
"392 161 OFFCURVE",
"392 189 CURVE SMOOTH",
"392 198 LINE",
"343 198 LINE",
"343 192 LINE SMOOTH",
"343 182 OFFCURVE",
"340 180 OFFCURVE",
"332 180 CURVE SMOOTH",
"181 180 LINE SMOOTH",
"171 180 OFFCURVE",
"169 182 OFFCURVE",
"169 192 CURVE SMOOTH",
"168 321 LINE",
"169 505 LINE SMOOTH",
"169 515 OFFCURVE",
"171 517 OFFCURVE",
"181 517 CURVE SMOOTH",
"258 517 LINE",
"258 430 LINE",
"390 430 LINE",
"390 433 LINE",
"392 499 LINE",
"392 508 LINE SMOOTH",
"392 536 OFFCURVE",
"372 555 OFFCURVE",
"319 555 CURVE SMOOTH",
"184 555 LINE SMOOTH",
"133 555 OFFCURVE",
"117 535 OFFCURVE",
"117 508 CURVE SMOOTH",
"117 189 LINE SMOOTH",
"117 165 OFFCURVE",
"129 147 OFFCURVE",
"167 143 CURVE",
"319 142 LINE SMOOTH"
);
},
{
closed = 1;
nodes = (
"283 517 LINE",
"332 517 LINE SMOOTH",
"340 517 OFFCURVE",
"343 515 OFFCURVE",
"343 505 CURVE SMOOTH",
"343 499 LINE",
"345 457 LINE",
"283 457 LINE"
);
}
);
width = 499;
}
);
unicode = 1378;
},
{
glyphname = "eighty-ethiopic";
lastChange = "2020-12-29 14:14:00 +0000";
layers = (
{
components = (
{
name = _number.bar;
transform = "{0.8931, 0, 0, 1, 6, 0}";
}
);
layerId = "A36D14D1-FF07-4574-A62D-30DF65569781";
paths = (
{
closed = 1;
nodes = (
"192 111 LINE",
"192 157 LINE",
"192 168 LINE",
"192.997 529 LINE",
"251 529 LINE",
"251 111 LINE",
"307 111 LINE",
"307 157 LINE",
"307 168 LINE",
"307.997 529 LINE",
"326 529 LINE",
"326 590 LINE",
"112 590 LINE",
"112 529 LINE",
"136 529 LINE",
"136 111 LINE"
);
}
);
width = 458;
}
);
unicode = 1379;
},
{
glyphname = "ninety-ethiopic";
lastChange = "2020-12-29 14:14:00 +0000";
layers = (
{
components = (
{
name = _number.bar;
transform = "{-1, 0, 0, 1, 499, 0}";
}
);
layerId = "A36D14D1-FF07-4574-A62D-30DF65569781";
paths = (
{
closed = 1;
nodes = (
"258 161 LINE",
"258 342 LINE",
"363 511 LINE SMOOTH",
"378 537 OFFCURVE",
"346 559 OFFCURVE",
"295 559 CURVE SMOOTH",
"161 559 LINE SMOOTH",
"109 559 OFFCURVE",
"88 539 OFFCURVE",
"88 511 CURVE SMOOTH",
"88 503 LINE",
"136 503 LINE",
"136 509 LINE SMOOTH",
"136 518 OFFCURVE",
"139 521 OFFCURVE",
"148 521 CURVE SMOOTH",
"300 521 LINE SMOOTH",
"308 521 OFFCURVE",
"318 518 OFFCURVE",
"312 509 CURVE SMOOTH",
"206.755 342 LINE",
"206 340.802 LINE",
"191 317 LINE",
"206 317 LINE",
"206 161 LINE"
);
}
);
width = 499;
}
);
unicode = 137A;
},
{
glyphname = "hundred-ethiopic";
lastChange = "2020-12-29 14:13:59 +0000";
layers = (
{
components = (
{
name = _number.bar;
}
);
layerId = "A36D14D1-FF07-4574-A62D-30DF65569781";
paths = (
{
closed = 1;
nodes = (
"365 132 LINE SMOOTH",
"374 132 OFFCURVE",
"381 138 OFFCURVE",
"381 148 CURVE SMOOTH",
"381 151 LINE SMOOTH",
"381 160 OFFCURVE",
"374 167 OFFCURVE",
"365 167 CURVE SMOOTH",
"188 166 LINE SMOOTH",
"181 166 OFFCURVE",
"179 169 OFFCURVE",
"179 177 CURVE SMOOTH",
"179 300 LINE",
"369 300 LINE SMOOTH",
"378 300 OFFCURVE",
"385 307 OFFCURVE",
"385 316 CURVE SMOOTH",
"385 543 LINE SMOOTH",
"385 568 OFFCURVE",
"374 585 OFFCURVE",
"326 585 CURVE SMOOTH",
"192 585 LINE SMOOTH",
"146 585 OFFCURVE",
"127 567 OFFCURVE",
"127 543 CURVE SMOOTH",
"127 176 LINE SMOOTH",
"127 162 OFFCURVE",
"135 131 OFFCURVE",
"177 131 CURVE SMOOTH"
);
},
{
closed = 1;
nodes = (
"179 541 LINE SMOOTH",
"179 548 OFFCURVE",
"182 551 OFFCURVE",
"188 551 CURVE SMOOTH",
"325 551 LINE SMOOTH",
"330 551 OFFCURVE",
"332 548 OFFCURVE",
"332 541 CURVE SMOOTH",
"332 331 LINE",
"179 331 LINE"
);
}
);
width = 499;
}
);
unicode = 137B;
},
{
glyphname = "tenthousand-ethiopic";
lastChange = "2020-12-29 14:13:59 +0000";
layers = (
{
components = (
{
name = _number.bar;
transform = "{1.4011, 0, 0, 1, -24, 0}";
}
);
layerId = "A36D14D1-FF07-4574-A62D-30DF65569781";
paths = (
{
closed = 1;
nodes = (
"180 274 LINE",
"360 274 LINE",
"360 121 LINE",
"416 120 LINE",
"417 385 LINE",
"561 385 LINE",
"561 528 LINE",
"559 556 OFFCURVE",
"536 577 OFFCURVE",
"481 577 CURVE SMOOTH",
"434 577 LINE SMOOTH",
"378 577 OFFCURVE",
"360 554 OFFCURVE",
"360 524 CURVE SMOOTH",
"360 298 LINE",
"181 298 LINE",
"181 385 LINE",
"325 385 LINE",
"325 528 LINE",
"323 556 OFFCURVE",
"300 577 OFFCURVE",
"245 577 CURVE SMOOTH",
"198 577 LINE SMOOTH",
"142 577 OFFCURVE",
"124 554 OFFCURVE",
"124 524 CURVE SMOOTH",
"124 121 LINE",
"180 120 LINE"
);
},
{
closed = 1;
nodes = (
"181 521 LINE SMOOTH",
"181 532 OFFCURVE",
"184 535 OFFCURVE",
"194 535 CURVE SMOOTH",
"258 535 LINE SMOOTH",
"268 535 OFFCURVE",
"272 532 OFFCURVE",
"272 521 CURVE SMOOTH",
"272 411 LINE",
"181 411 LINE"
);
},
{
closed = 1;
nodes = (
"417 521 LINE SMOOTH",
"417 532 OFFCURVE",
"420 535 OFFCURVE",
"431 535 CURVE SMOOTH",
"494 535 LINE SMOOTH",
"504 535 OFFCURVE",
"508 532 OFFCURVE",
"508 521 CURVE SMOOTH",
"508 411 LINE",
"417 411 LINE"
);
}
);
width = 651;
}
);
unicode = 137C;
},
{
glyphname = zero;
lastChange = "2020-12-29 14:14:00 +0000";
layers = (
{
layerId = "A36D14D1-FF07-4574-A62D-30DF65569781";
paths = (
{
closed = 1;
nodes = (
"445 -1 OFFCURVE",
"458 47 OFFCURVE",
"458 68 CURVE SMOOTH",
"458 634 LINE SMOOTH",
"458 671 OFFCURVE",
"429 700 OFFCURVE",
"358 700 CURVE SMOOTH",
"150 700 LINE SMOOTH",
"76 700 OFFCURVE",
"60 674 OFFCURVE",
"60 634 CURVE SMOOTH",
"60 64 LINE SMOOTH",
"60 30 OFFCURVE",
"82 0 OFFCURVE",
"144 0 CURVE SMOOTH",
"381 -1 LINE SMOOTH"
);
},
{
closed = 1;
nodes = (
"146 53 OFFCURVE",
"142 57 OFFCURVE",
"142 70 CURVE SMOOTH",
"142 631 LINE SMOOTH",
"142 643 OFFCURVE",
"145 647 OFFCURVE",
"152 647 CURVE SMOOTH",
"364 647 LINE SMOOTH",
"373 647 OFFCURVE",
"377 643 OFFCURVE",
"377 631 CURVE SMOOTH",
"377 70 LINE SMOOTH",
"377 57 OFFCURVE",
"374 53 OFFCURVE",
"364 53 CURVE SMOOTH",
"152 53 LINE SMOOTH"
);
}
);
width = 518;
}
);
unicode = 0030;
},
{
glyphname = one;
lastChange = "2020-12-29 14:13:59 +0000";
layers = (
{
layerId = "A36D14D1-FF07-4574-A62D-30DF65569781";
paths = (
{
closed = 1;
nodes = (
"178 0 LINE",
"179 700 LINE",
"84 700 LINE SMOOTH",
"70 700 OFFCURVE",
"60 690 OFFCURVE",
"60 676 CURVE SMOOTH",
"60 652 LINE SMOOTH",
"60 638 OFFCURVE",
"70 628 OFFCURVE",
"84 628 CURVE SMOOTH",
"97 628 LINE",
"97 0 LINE"
);
}
);
width = 239;
}
);
unicode = 0031;
},
{
glyphname = two;
lastChange = "2020-12-29 14:13:59 +0000";
layers = (
{
layerId = "A36D14D1-FF07-4574-A62D-30DF65569781";
paths = (
{
closed = 1;
nodes = (
"444 -1 OFFCURVE",
"457 47 OFFCURVE",
"457 68 CURVE SMOOTH",
"457 93 LINE",
"376 92 LINE",
"376 70 LINE SMOOTH",
"376 57 OFFCURVE",
"373 53 OFFCURVE",
"363 53 CURVE SMOOTH",
"151 53 LINE SMOOTH",
"145 53 OFFCURVE",
"141 64 OFFCURVE",
"142 76 CURVE",
"142 169 LINE SMOOTH",
"142 183 OFFCURVE",
"144 190 OFFCURVE",
"148 194 CURVE SMOOTH",
"452 485 LINE SMOOTH",
"455 488 OFFCURVE",
"456 495 OFFCURVE",
"456 500 CURVE SMOOTH",
"457 634 LINE SMOOTH",
"457 671 OFFCURVE",
"428 700 OFFCURVE",
"357 700 CURVE SMOOTH",
"149 700 LINE SMOOTH",
"75 700 OFFCURVE",
"60 674 OFFCURVE",
"60 634 CURVE SMOOTH",
"60 614 LINE",
"141 613 LINE",
"141 631 LINE SMOOTH",
"141 643 OFFCURVE",
"144 647 OFFCURVE",
"151 647 CURVE SMOOTH",
"363 647 LINE SMOOTH",
"372 647 OFFCURVE",
"376 643 OFFCURVE",
"376 631 CURVE SMOOTH",
"376 508 LINE SMOOTH",
"376 504 OFFCURVE",
"373 495 OFFCURVE",
"370 492 CURVE SMOOTH",
"77 215 LINE SMOOTH",
"63 202 OFFCURVE",
"61 182 OFFCURVE",
"61 172 CURVE SMOOTH",
"61 66 LINE SMOOTH",
"61 8 OFFCURVE",
"86 0 OFFCURVE",
"143 0 CURVE SMOOTH",
"380 -1 LINE SMOOTH"
);
}
);
width = 517;
}
);
unicode = 0032;
},
{
glyphname = three;
lastChange = "2020-12-29 14:13:59 +0000";
layers = (
{
components = (
{
name = _bar.part;
transform = "{1, 0, 0, 1, -704, 0}";
}
);
layerId = "A36D14D1-FF07-4574-A62D-30DF65569781";
paths = (
{
closed = 1;
nodes = (
"444 -1 OFFCURVE",
"457 47 OFFCURVE",
"457 68 CURVE SMOOTH",
"457 634 LINE SMOOTH",
"457 671 OFFCURVE",
"428 700 OFFCURVE",
"357 700 CURVE SMOOTH",
"149 700 LINE SMOOTH",
"75 700 OFFCURVE",
"60 674 OFFCURVE",
"60 634 CURVE SMOOTH",
"60 620 OFFCURVE",
"71 610 OFFCURVE",
"85 610 CURVE SMOOTH",
"117 611 LINE SMOOTH",
"131 611 OFFCURVE",
"141 620 OFFCURVE",
"141 631 CURVE SMOOTH",
"141 643 OFFCURVE",
"144 647 OFFCURVE",
"151 647 CURVE SMOOTH",
"363 647 LINE SMOOTH",
"372 647 OFFCURVE",
"376 643 OFFCURVE",
"376 631 CURVE SMOOTH",
"376 70 LINE SMOOTH",
"376 57 OFFCURVE",
"373 53 OFFCURVE",
"363 53 CURVE SMOOTH",
"151 53 LINE SMOOTH",
"145 53 OFFCURVE",
"141 57 OFFCURVE",
"141 70 CURVE SMOOTH",
"141 79 OFFCURVE",
"131 85 OFFCURVE",
"117 85 CURVE SMOOTH",
"85 86 LINE SMOOTH",
"71 86 OFFCURVE",
"60 76 OFFCURVE",
"60 64 CURVE SMOOTH",
"60 30 OFFCURVE",
"81 0 OFFCURVE",
"143 0 CURVE SMOOTH",
"380 -1 LINE SMOOTH"
);
}
);
width = 517;
}
);
unicode = 0033;
},
{
glyphname = four;
lastChange = "2020-12-29 14:13:59 +0000";
layers = (
{
layerId = "A36D14D1-FF07-4574-A62D-30DF65569781";
paths = (
{
closed = 1;
nodes = (
"352 -1 LINE SMOOTH",
"416 -1 OFFCURVE",
"429 47 OFFCURVE",
"429 68 CURVE SMOOTH",
"429 260 LINE",
"477 260 LINE SMOOTH",
"491 260 OFFCURVE",
"501 270 OFFCURVE",
"501 284 CURVE SMOOTH",
"501 298 OFFCURVE",
"491 308 OFFCURVE",
"477 308 CURVE SMOOTH",
"429 308 LINE",
"429 368 LINE SMOOTH",
"429 382 OFFCURVE",
"419 392 OFFCURVE",
"405 392 CURVE SMOOTH",
"372 392 LINE SMOOTH",
"358 392 OFFCURVE",
"348 382 OFFCURVE",
"348 368 CURVE SMOOTH",
"348 308 LINE",
"142 308 LINE",
"142 371 LINE",
"390 644 LINE SMOOTH",
"413 669 OFFCURVE",
"401 683 OFFCURVE",
"391 692 CURVE SMOOTH",
"381 702 OFFCURVE",
"366 702 OFFCURVE",
"357 692 CURVE SMOOTH",
"142 456 LINE",
"66 378 LINE",
"63 374 OFFCURVE",
"60 367 OFFCURVE",
"60 362 CURVE SMOOTH",
"60 281 LINE SMOOTH",
"60 269 OFFCURVE",
"71 260 OFFCURVE",
"84 260 CURVE SMOOTH",
"348 260 LINE",
"348 70 LINE SMOOTH",
"348 66 OFFCURVE",
"343 63 OFFCURVE",
"338 61 CURVE SMOOTH",
"330 58 OFFCURVE",
"324 49 OFFCURVE",
"325 40 CURVE SMOOTH",
"326 23 LINE SMOOTH",
"327 9 OFFCURVE",
"336 -1 OFFCURVE",
"350 -1 CURVE SMOOTH"
);
}
);
width = 561;
}
);
unicode = 0034;
},
{
glyphname = five;
lastChange = "2020-12-29 14:13:59 +0000";
layers = (
{
layerId = "A36D14D1-FF07-4574-A62D-30DF65569781";
paths = (
{
closed = 1;
nodes = (
"374 0 LINE SMOOTH",
"431 0 OFFCURVE",
"456 8 OFFCURVE",
"456 66 CURVE SMOOTH",
"456 274 LINE SMOOTH",
"456 295 OFFCURVE",
"453 318 OFFCURVE",
"428 318 CURVE SMOOTH",
"165 319 LINE SMOOTH",
"151 319 OFFCURVE",
"141 329 OFFCURVE",
"141 343 CURVE SMOOTH",
"141 631 LINE SMOOTH",
"141 643 OFFCURVE",
"145 647 OFFCURVE",
"154 647 CURVE SMOOTH",
"366 647 LINE SMOOTH",
"373 647 OFFCURVE",
"376 643 OFFCURVE",
"376 631 CURVE SMOOTH",
"376 621 OFFCURVE",
"387 613 OFFCURVE",
"401 613 CURVE SMOOTH",
"433 614 LINE SMOOTH",
"447 614 OFFCURVE",
"457 623 OFFCURVE",
"457 634 CURVE SMOOTH",
"457 674 OFFCURVE",
"442 700 OFFCURVE",
"368 700 CURVE SMOOTH",
"160 700 LINE SMOOTH",
"89 700 OFFCURVE",
"60 671 OFFCURVE",
"60 634 CURVE SMOOTH",
"61 294 LINE SMOOTH",
"61 279 OFFCURVE",
"71 270 OFFCURVE",
"85 270 CURVE SMOOTH",
"375 270 LINE",
"375 76 LINE",
"376 64 OFFCURVE",
"372 53 OFFCURVE",
"366 53 CURVE SMOOTH",
"154 53 LINE SMOOTH",
"144 53 OFFCURVE",
"141 57 OFFCURVE",
"141 70 CURVE SMOOTH",
"141 83 OFFCURVE",
"131 92 OFFCURVE",
"117 92 CURVE SMOOTH",
"85 93 LINE SMOOTH",
"71 93 OFFCURVE",
"60 82 OFFCURVE",
"60 68 CURVE SMOOTH",
"60 47 OFFCURVE",
"73 -1 OFFCURVE",
"137 -1 CURVE SMOOTH"
);
}
);
width = 517;
}
);
unicode = 0035;
},
{
glyphname = six;
lastChange = "2020-12-29 14:14:00 +0000";
layers = (
{
layerId = "A36D14D1-FF07-4574-A62D-30DF65569781";
paths = (
{
closed = 1;
nodes = (
"374 0 LINE SMOOTH",
"431 0 OFFCURVE",
"456 8 OFFCURVE",
"456 66 CURVE SMOOTH",
"456 274 LINE SMOOTH",
"456 295 OFFCURVE",
"453 318 OFFCURVE",
"428 318 CURVE SMOOTH",
"165 319 LINE SMOOTH",
"151 319 OFFCURVE",
"141 329 OFFCURVE",
"141 343 CURVE SMOOTH",
"141 631 LINE SMOOTH",
"141 643 OFFCURVE",
"145 647 OFFCURVE",
"154 647 CURVE SMOOTH",
"366 647 LINE SMOOTH",
"373 647 OFFCURVE",
"376 643 OFFCURVE",
"376 631 CURVE SMOOTH",
"376 621 OFFCURVE",
"387 613 OFFCURVE",
"401 613 CURVE SMOOTH",
"433 614 LINE SMOOTH",
"447 614 OFFCURVE",
"457 623 OFFCURVE",
"457 634 CURVE SMOOTH",
"457 674 OFFCURVE",
"442 700 OFFCURVE",
"368 700 CURVE SMOOTH",
"160 700 LINE SMOOTH",
"89 700 OFFCURVE",
"60 671 OFFCURVE",
"60 634 CURVE SMOOTH",
"61 294 LINE",
"60 68 LINE SMOOTH",
"60 47 OFFCURVE",
"73 -1 OFFCURVE",
"137 -1 CURVE SMOOTH"
);
},
{
closed = 1;
nodes = (
"144 53 OFFCURVE",
"141 57 OFFCURVE",
"141 70 CURVE SMOOTH",
"141 270 LINE",
"375 270 LINE",
"375 76 LINE",
"376 64 OFFCURVE",
"372 53 OFFCURVE",
"366 53 CURVE SMOOTH",
"154 53 LINE SMOOTH"
);
}
);
width = 517;
}
);
unicode = 0036;
},
{
glyphname = seven;
lastChange = "2020-12-29 14:13:59 +0000";
layers = (
{
layerId = "A36D14D1-FF07-4574-A62D-30DF65569781";
paths = (
{
closed = 1;
nodes = (
"441 -1 OFFCURVE",
"458 47 OFFCURVE",
"458 68 CURVE SMOOTH",
"458 634 LINE SMOOTH",
"458 671 OFFCURVE",
"429 700 OFFCURVE",
"358 700 CURVE SMOOTH",
"150 700 LINE SMOOTH",
"76 700 OFFCURVE",
"60 674 OFFCURVE",
"60 634 CURVE SMOOTH",
"60 626 OFFCURVE",
"70 621 OFFCURVE",
"84 621 CURVE SMOOTH",
"118 621 LINE SMOOTH",
"132 621 OFFCURVE",
"142 626 OFFCURVE",
"142 631 CURVE SMOOTH",
"142 643 OFFCURVE",
"145 647 OFFCURVE",
"152 647 CURVE SMOOTH",
"364 647 LINE SMOOTH",
"373 647 OFFCURVE",
"377 643 OFFCURVE",
"377 631 CURVE SMOOTH",
"377 -1 LINE"
);
}
);
width = 518;
}
);
unicode = 0037;
},
{
glyphname = eight;
lastChange = "2020-12-29 14:14:00 +0000";
layers = (
{
layerId = "A36D14D1-FF07-4574-A62D-30DF65569781";
paths = (
{
closed = 1;
nodes = (
"445 -1 OFFCURVE",
"458 47 OFFCURVE",
"458 68 CURVE SMOOTH",
"458 634 LINE SMOOTH",
"458 671 OFFCURVE",
"429 700 OFFCURVE",
"358 700 CURVE SMOOTH",
"150 700 LINE SMOOTH",
"76 700 OFFCURVE",
"60 674 OFFCURVE",
"60 634 CURVE SMOOTH",
"60 64 LINE SMOOTH",
"60 30 OFFCURVE",
"82 0 OFFCURVE",
"144 0 CURVE SMOOTH",
"381 -1 LINE SMOOTH"
);
},
{
closed = 1;
nodes = (
"146 53 OFFCURVE",
"142 57 OFFCURVE",
"142 70 CURVE SMOOTH",
"142 260 LINE",
"377 260 LINE",
"377 70 LINE SMOOTH",
"377 57 OFFCURVE",
"374 53 OFFCURVE",
"364 53 CURVE SMOOTH",
"152 53 LINE SMOOTH"
);
},
{
closed = 1;
nodes = (
"142 631 LINE SMOOTH",
"142 643 OFFCURVE",
"145 647 OFFCURVE",
"152 647 CURVE SMOOTH",
"364 647 LINE SMOOTH",
"373 647 OFFCURVE",
"377 643 OFFCURVE",
"377 631 CURVE SMOOTH",
"377 308 LINE",
"142 308 LINE"
);
}
);
width = 518;
}
);
unicode = 0038;
},
{
glyphname = nine;
lastChange = "2020-12-29 14:13:59 +0000";
layers = (
{
layerId = "A36D14D1-FF07-4574-A62D-30DF65569781";
paths = (
{
closed = 1;
nodes = (
"445 -1 OFFCURVE",
"458 47 OFFCURVE",
"458 68 CURVE SMOOTH",
"458 634 LINE SMOOTH",
"458 671 OFFCURVE",
"429 700 OFFCURVE",
"358 700 CURVE SMOOTH",
"150 700 LINE SMOOTH",
"76 700 OFFCURVE",
"60 674 OFFCURVE",
"60 634 CURVE SMOOTH",
"60 284 LINE SMOOTH",
"60 270 OFFCURVE",
"70 260 OFFCURVE",
"84 260 CURVE SMOOTH",
"377 260 LINE",
"377 70 LINE SMOOTH",
"377 57 OFFCURVE",
"374 53 OFFCURVE",
"364 53 CURVE SMOOTH",
"91 54 LINE SMOOTH",
"77 54 OFFCURVE",
"66 43 OFFCURVE",
"66 29 CURVE SMOOTH",
"66 24 LINE SMOOTH",
"66 10 OFFCURVE",
"76 0 OFFCURVE",
"90 0 CURVE SMOOTH",
"381 -1 LINE SMOOTH"
);
},
{
closed = 1;
nodes = (
"142 631 LINE SMOOTH",
"142 643 OFFCURVE",
"145 647 OFFCURVE",
"152 647 CURVE SMOOTH",
"364 647 LINE SMOOTH",
"373 647 OFFCURVE",
"377 643 OFFCURVE",
"377 631 CURVE SMOOTH",
"377 308 LINE",
"142 308 LINE"
);
}
);
width = 518;
}
);
unicode = 0039;
},
{
glyphname = onesuperior;
lastChange = "2020-12-29 20:58:22 +0000";
layers = (
{
layerId = "A36D14D1-FF07-4574-A62D-30DF65569781";
paths = (
{
closed = 1;
nodes = (
"143 441 LINE",
"143 719 LINE",
"106 719 LINE SMOOTH",
"100 719 OFFCURVE",
"96 715 OFFCURVE",
"96 709 CURVE SMOOTH",
"96 699 LINE SMOOTH",
"96 694 OFFCURVE",
"100 690 OFFCURVE",
"106 690 CURVE SMOOTH",
"111 690 LINE",
"111 441 LINE"
);
}
);
width = 239;
}
);
unicode = 00B9;
},
{
glyphname = twosuperior;
lastChange = "2020-12-29 14:14:00 +0000";
layers = (
{
layerId = "A36D14D1-FF07-4574-A62D-30DF65569781";
paths = (
{
closed = 1;
nodes = (
"207 479 LINE SMOOTH",
"236 479 OFFCURVE",
"243 501 OFFCURVE",
"243 510 CURVE SMOOTH",
"243 522 LINE",
"205 521 LINE",
"205 511 LINE SMOOTH",
"205 506 OFFCURVE",
"204 504 OFFCURVE",
"199 504 CURVE SMOOTH",
"102 504 LINE SMOOTH",
"99 504 OFFCURVE",
"98 508 OFFCURVE",
"98 514 CURVE SMOOTH",
"98 557 LINE SMOOTH",
"98 563 OFFCURVE",
"99 566 OFFCURVE",
"101 568 CURVE SMOOTH",
"240 702 LINE",
"242 703 OFFCURVE",
"242 706 OFFCURVE",
"242 709 CURVE SMOOTH",
"243 770 LINE SMOOTH",
"243 787 OFFCURVE",
"229 800 OFFCURVE",
"196 800 CURVE SMOOTH",
"101 800 LINE SMOOTH",
"68 800 OFFCURVE",
"60 788 OFFCURVE",
"60 770 CURVE SMOOTH",
"60 761 LINE",
"98 761 LINE",
"98 769 LINE SMOOTH",
"98 774 OFFCURVE",
"99 776 OFFCURVE",
"102 776 CURVE SMOOTH",
"199 776 LINE SMOOTH",
"204 776 OFFCURVE",
"205 774 OFFCURVE",
"205 769 CURVE SMOOTH",
"205 713 LINE SMOOTH",
"205 711 OFFCURVE",
"204 706 OFFCURVE",
"203 704 CURVE",
"69 578 LINE SMOOTH",
"62 572 OFFCURVE",
"61 563 OFFCURVE",
"61 558 CURVE SMOOTH",
"61 509 LINE SMOOTH",
"61 483 OFFCURVE",
"72 479 OFFCURVE",
"98 479 CURVE SMOOTH"
);
}
);
width = 303;
}
);
unicode = 00B2;
},
{
glyphname = threesuperior;
lastChange = "2020-12-29 14:14:00 +0000";
layers = (
{
layerId = "A36D14D1-FF07-4574-A62D-30DF65569781";
paths = (
{
closed = 1;
nodes = (
"207 480 LINE SMOOTH",
"236 480 OFFCURVE",
"243 502 OFFCURVE",
"243 511 CURVE SMOOTH",
"243 771 LINE SMOOTH",
"243 787 OFFCURVE",
"229 801 OFFCURVE",
"196 801 CURVE SMOOTH",
"101 801 LINE SMOOTH",
"68 801 OFFCURVE",
"60 789 OFFCURVE",
"60 771 CURVE SMOOTH",
"60 764 OFFCURVE",
"66 760 OFFCURVE",
"72 760 CURVE SMOOTH",
"87 760 LINE SMOOTH",
"93 760 OFFCURVE",
"98 764 OFFCURVE",
"98 770 CURVE SMOOTH",
"98 775 OFFCURVE",
"99 776 OFFCURVE",
"103 776 CURVE SMOOTH",
"200 776 LINE SMOOTH",
"204 776 OFFCURVE",
"205 775 OFFCURVE",
"205 770 CURVE SMOOTH",
"205 621 LINE",
"92 621 LINE SMOOTH",
"86 621 OFFCURVE",
"81 616 OFFCURVE",
"81 610 CURVE SMOOTH",
"81 604 OFFCURVE",
"86 599 OFFCURVE",
"92 599 CURVE SMOOTH",
"205 599 LINE",
"205 512 LINE SMOOTH",
"205 506 OFFCURVE",
"204 505 OFFCURVE",
"200 505 CURVE SMOOTH",
"103 505 LINE SMOOTH",
"99 505 OFFCURVE",
"98 506 OFFCURVE",
"98 512 CURVE SMOOTH",
"98 517 OFFCURVE",
"93 519 OFFCURVE",
"87 519 CURVE SMOOTH",
"72 519 LINE SMOOTH",
"66 519 OFFCURVE",
"60 516 OFFCURVE",
"60 510 CURVE SMOOTH",
"60 494 OFFCURVE",
"70 480 OFFCURVE",
"98 480 CURVE SMOOTH"
);
}
);
width = 303;
}
);
unicode = 00B3;
},
{
glyphname = foursuperior;
lastChange = "2020-12-29 14:14:00 +0000";
layers = (
{
layerId = "A36D14D1-FF07-4574-A62D-30DF65569781";
paths = (
{
closed = 1;
nodes = (
"240 472 OFFCURVE",
"246 496 OFFCURVE",
"246 507 CURVE SMOOTH",
"246 604 LINE",
"271 604 LINE SMOOTH",
"278 604 OFFCURVE",
"283 609 OFFCURVE",
"283 616 CURVE SMOOTH",
"283 623 OFFCURVE",
"278 628 OFFCURVE",
"271 628 CURVE SMOOTH",
"246 628 LINE",
"246 659 LINE SMOOTH",
"246 666 OFFCURVE",
"242 671 OFFCURVE",
"234 671 CURVE SMOOTH",
"218 671 LINE SMOOTH",
"211 671 OFFCURVE",
"206 666 OFFCURVE",
"206 659 CURVE SMOOTH",
"206 628 LINE",
"101 628 LINE",
"101 660 LINE",
"227 798 LINE SMOOTH",
"239 810 OFFCURVE",
"232 817 OFFCURVE",
"227 822 CURVE SMOOTH",
"222 827 OFFCURVE",
"214 827 OFFCURVE",
"210 822 CURVE SMOOTH",
"101 703 LINE",
"63 664 LINE",
"62 662 OFFCURVE",
"60 658 OFFCURVE",
"60 655 CURVE SMOOTH",
"60 615 LINE SMOOTH",
"60 609 OFFCURVE",
"66 604 OFFCURVE",
"72 604 CURVE SMOOTH",
"206 604 LINE",
"206 508 LINE SMOOTH",
"206 506 OFFCURVE",
"203 505 OFFCURVE",
"200 503 CURVE",
"197 502 OFFCURVE",
"193 498 OFFCURVE",
"194 493 CURVE SMOOTH",
"195 484 LINE SMOOTH",
"195 477 OFFCURVE",
"200 472 OFFCURVE",
"207 472 CURVE SMOOTH"
);
}
);
width = 343;
}
);
unicode = 2074;
},
{
glyphname = onehalf;
lastChange = "2020-12-29 20:57:35 +0000";
layers = (
{
layerId = "A36D14D1-FF07-4574-A62D-30DF65569781";
paths = (
{
closed = 1;
nodes = (
"128 -16 LINE",
"424 731 LINE",
"371 731 LINE",
"76 -16 LINE"
);
},
{
closed = 1;
nodes = (
"132 275 LINE",
"133 705 LINE",
"74 705 LINE SMOOTH",
"66 705 OFFCURVE",
"60 699 OFFCURVE",
"60 690 CURVE SMOOTH",
"60 675 LINE SMOOTH",
"60 667 OFFCURVE",
"66 661 OFFCURVE",
"74 661 CURVE SMOOTH",
"82 661 LINE",
"82 275 LINE"
);
},
{
closed = 1;
nodes = (
"563 24 OFFCURVE",
"570 52 OFFCURVE",
"570 65 CURVE SMOOTH",
"570 79 LINE",
"523 79 LINE",
"523 66 LINE SMOOTH",
"523 58 OFFCURVE",
"521 56 OFFCURVE",
"515 56 CURVE SMOOTH",
"391 56 LINE SMOOTH",
"388 56 OFFCURVE",
"386 62 OFFCURVE",
"386 69 CURVE SMOOTH",
"386 124 LINE SMOOTH",
"386 132 OFFCURVE",
"387 136 OFFCURVE",
"390 138 CURVE",
"567 309 LINE",
"569 310 OFFCURVE",
"570 314 OFFCURVE",
"570 317 CURVE SMOOTH",
"570 396 LINE SMOOTH",
"570 417 OFFCURVE",
"553 434 OFFCURVE",
"512 434 CURVE SMOOTH",
"390 434 LINE SMOOTH",
"347 434 OFFCURVE",
"338 419 OFFCURVE",
"338 396 CURVE SMOOTH",
"338 384 LINE",
"386 383 LINE",
"386 394 LINE SMOOTH",
"386 401 OFFCURVE",
"387 403 OFFCURVE",
"391 403 CURVE SMOOTH",
"515 403 LINE SMOOTH",
"521 403 OFFCURVE",
"523 401 OFFCURVE",
"523 394 CURVE SMOOTH",
"523 322 LINE SMOOTH",
"523 320 OFFCURVE",
"521 314 OFFCURVE",
"519 313 CURVE",
"348 151 LINE SMOOTH",
"340 143 OFFCURVE",
"339 131 OFFCURVE",
"339 126 CURVE SMOOTH",
"339 64 LINE SMOOTH",
"339 30 OFFCURVE",
"353 25 OFFCURVE",
"387 25 CURVE SMOOTH",
"525 24 LINE SMOOTH"
);
}
);
width = 630;
}
);
unicode = 00BD;
},
{
glyphname = onequarter;
lastChange = "2020-12-29 20:57:30 +0000";
layers = (
{
layerId = "A36D14D1-FF07-4574-A62D-30DF65569781";
paths = (
{
closed = 1;
nodes = (
"132 -16 LINE",
"428 731 LINE",
"375 731 LINE",
"80 -16 LINE"
);
},
{
closed = 1;
nodes = (
"154 275 LINE",
"155 684 LINE",
"99 684 LINE SMOOTH",
"91 684 OFFCURVE",
"85 678 OFFCURVE",
"85 670 CURVE SMOOTH",
"85 656 LINE SMOOTH",
"85 648 OFFCURVE",
"91 642 OFFCURVE",
"99 642 CURVE SMOOTH",
"107 642 LINE",
"107 275 LINE"
);
},
{
closed = 1;
nodes = (
"433 24 LINE SMOOTH",
"470 24 OFFCURVE",
"478 52 OFFCURVE",
"478 65 CURVE SMOOTH",
"478 177 LINE",
"506 177 LINE SMOOTH",
"514 177 OFFCURVE",
"520 183 OFFCURVE",
"520 191 CURVE SMOOTH",
"520 199 OFFCURVE",
"514 205 OFFCURVE",
"506 205 CURVE SMOOTH",
"478 205 LINE",
"478 240 LINE SMOOTH",
"478 248 OFFCURVE",
"472 254 OFFCURVE",
"464 254 CURVE SMOOTH",
"445 254 LINE SMOOTH",
"436 254 OFFCURVE",
"431 248 OFFCURVE",
"431 240 CURVE SMOOTH",
"431 205 LINE",
"310 205 LINE",
"310 242 LINE",
"455 402 LINE SMOOTH",
"468 417 OFFCURVE",
"462 424 OFFCURVE",
"456 430 CURVE SMOOTH",
"450 435 OFFCURVE",
"441 435 OFFCURVE",
"436 430 CURVE SMOOTH",
"310 291 LINE",
"266 246 LINE SMOOTH",
"264 244 OFFCURVE",
"262 240 OFFCURVE",
"262 237 CURVE SMOOTH",
"262 189 LINE SMOOTH",
"262 182 OFFCURVE",
"269 177 OFFCURVE",
"276 177 CURVE SMOOTH",
"431 177 LINE",
"431 66 LINE SMOOTH",
"431 64 OFFCURVE",
"428 62 OFFCURVE",
"425 61 CURVE SMOOTH",
"420 59 OFFCURVE",
"416 54 OFFCURVE",
"417 48 CURVE SMOOTH",
"418 38 LINE SMOOTH",
"419 30 OFFCURVE",
"424 24 OFFCURVE",
"432 24 CURVE SMOOTH"
);
}
);
width = 580;
}
);
unicode = 00BC;
},
{
glyphname = threequarters;
lastChange = "2020-12-29 20:57:24 +0000";
layers = (
{
layerId = "A36D14D1-FF07-4574-A62D-30DF65569781";
paths = (
{
closed = 1;
nodes = (
"184 -16 LINE",
"480 731 LINE",
"427 731 LINE",
"132 -16 LINE"
);
},
{
closed = 1;
nodes = (
"497 4 LINE SMOOTH",
"536 4 OFFCURVE",
"544 34 OFFCURVE",
"544 47 CURVE SMOOTH",
"544 165 LINE",
"574 165 LINE SMOOTH",
"582 165 OFFCURVE",
"588 171 OFFCURVE",
"588 179 CURVE SMOOTH",
"588 188 OFFCURVE",
"582 194 OFFCURVE",
"574 194 CURVE SMOOTH",
"544 194 LINE",
"544 231 LINE SMOOTH",
"544 240 OFFCURVE",
"538 246 OFFCURVE",
"529 246 CURVE SMOOTH",
"509 246 LINE SMOOTH",
"501 246 OFFCURVE",
"495 240 OFFCURVE",
"495 231 CURVE SMOOTH",
"495 194 LINE",
"368 194 LINE",
"368 233 LINE",
"520 400 LINE SMOOTH",
"534 416 OFFCURVE",
"527 424 OFFCURVE",
"521 430 CURVE SMOOTH",
"515 436 OFFCURVE",
"506 436 OFFCURVE",
"500 430 CURVE SMOOTH",
"368 285 LINE",
"321 237 LINE SMOOTH",
"319 235 OFFCURVE",
"318 230 OFFCURVE",
"318 227 CURVE SMOOTH",
"318 178 LINE SMOOTH",
"318 170 OFFCURVE",
"324 165 OFFCURVE",
"332 165 CURVE SMOOTH",
"495 165 LINE",
"495 48 LINE SMOOTH",
"495 46 OFFCURVE",
"491 44 OFFCURVE",
"488 42 CURVE",
"483 41 OFFCURVE",
"480 35 OFFCURVE",
"480 30 CURVE SMOOTH",
"481 19 LINE SMOOTH",
"482 11 OFFCURVE",
"487 4 OFFCURVE",
"496 4 CURVE SMOOTH"
);
},
{
closed = 1;
nodes = (
"207 369 LINE SMOOTH",
"236 369 OFFCURVE",
"242 391 OFFCURVE",
"242 400 CURVE SMOOTH",
"242 659 LINE SMOOTH",
"242 676 OFFCURVE",
"228 690 OFFCURVE",
"196 690 CURVE SMOOTH",
"101 690 LINE SMOOTH",
"67 690 OFFCURVE",
"60 678 OFFCURVE",
"60 659 CURVE SMOOTH",
"60 653 OFFCURVE",
"65 648 OFFCURVE",
"71 648 CURVE SMOOTH",
"86 649 LINE SMOOTH",
"92 649 OFFCURVE",
"97 653 OFFCURVE",
"97 658 CURVE SMOOTH",
"97 664 OFFCURVE",
"98 665 OFFCURVE",
"102 665 CURVE SMOOTH",
"199 665 LINE SMOOTH",
"203 665 OFFCURVE",
"205 664 OFFCURVE",
"205 658 CURVE SMOOTH",
"205 510 LINE",
"92 510 LINE SMOOTH",
"86 510 OFFCURVE",
"81 506 OFFCURVE",
"81 499 CURVE SMOOTH",
"81 493 OFFCURVE",
"86 488 OFFCURVE",
"92 488 CURVE SMOOTH",
"205 488 LINE",
"205 401 LINE SMOOTH",
"205 395 OFFCURVE",
"203 393 OFFCURVE",
"199 393 CURVE SMOOTH",
"102 393 LINE SMOOTH",
"99 393 OFFCURVE",
"97 395 OFFCURVE",
"97 401 CURVE SMOOTH",
"97 405 OFFCURVE",
"92 408 OFFCURVE",
"86 408 CURVE SMOOTH",
"71 408 LINE SMOOTH",
"65 408 OFFCURVE",
"60 404 OFFCURVE",
"60 398 CURVE SMOOTH",
"60 383 OFFCURVE",
"70 369 OFFCURVE",
"98 369 CURVE SMOOTH"
);
}
);
width = 648;
}
);
unicode = 00BE;
},
{
glyphname = fraction.001;
lastChange = "2020-12-29 14:14:00 +0000";
layers = (
{
layerId = "A36D14D1-FF07-4574-A62D-30DF65569781";
paths = (
{
closed = 1;
nodes = (
"124 -27 LINE",
"558 725 LINE",
"494 725 LINE",
"60 -27 LINE"
);
}
);
userData = {
assembly = "SVTCA[0]	/* SetFreedomAndProjectionVectorToAxis */
PUSHW[ ]	/* 1 value pushed */
1 
MDAP[1]	/* MoveDirectAbsPt */
PUSHW[ ]	/* 1 value pushed */
0 
MDAP[1]	/* MoveDirectAbsPt */
IUP[0]	/* InterpolateUntPts */
IUP[1]	/* InterpolateUntPts */";
};
width = 618;
}
);
note = fraction;
},
{
glyphname = uni0387;
lastChange = "2020-12-29 14:14:00 +0000";
layers = (
{
layerId = "A36D14D1-FF07-4574-A62D-30DF65569781";
paths = (
{
closed = 1;
nodes = (
"171 406 LINE",
"171 517 LINE",
"60 517 LINE",
"60 406 LINE"
);
}
);
userData = {
assembly = "PUSHW[ ]	/* 1 value pushed */
20 
CALL[ ]	/* CallFunction */
PUSHW[ ]	/* 4 values pushed */
0 3 1 24 
CALL[ ]	/* CallFunction */
SVTCA[0]	/* SetFreedomAndProjectionVectorToAxis */
PUSHW[ ]	/* 1 value pushed */
1 
RCVT[ ]	/* ReadCVT */
IF[ ]	/* If */
PUSHW[ ]	/* 1 value pushed */
2 
MDAP[1]	/* MoveDirectAbsPt */
ELSE[ ]	/* Else */
PUSHW[ ]	/* 2 values pushed */
2 8 
MIAP[0]	/* MoveIndirectAbsPt */
EIF[ ]	/* EndIf */
PUSHW[ ]	/* 2 values pushed */
0 2 
MIRP[10100]	/* MoveIndirectRelPt */
IUP[0]	/* InterpolateUntPts */
IUP[1]	/* InterpolateUntPts */";
};
width = 231;
}
);
note = uni0387;
unicode = 0387;
},
{
glyphname = uni037E;
lastChange = "2020-12-29 14:14:00 +0000";
layers = (
{
layerId = "A36D14D1-FF07-4574-A62D-30DF65569781";
paths = (
{
closed = 1;
nodes = (
"138.333 -124.333 OFFCURVE",
"172.333 -66 OFFCURVE",
"171 10 CURVE SMOOTH",
"171 111 LINE",
"60 111 LINE",
"60 0 LINE",
"119 0 LINE",
"121.775 -33.305 OFFCURVE",
"105.422 -80.342 OFFCURVE",
"61 -97 CURVE",
"61 -147 LINE"
);
},
{
closed = 1;
nodes = (
"171 406 LINE",
"171 517 LINE",
"60 517 LINE",
"60 406 LINE"
);
}
);
userData = {
assembly = "PUSHW[ ]	/* 1 value pushed */
20 
CALL[ ]	/* CallFunction */
PUSHW[ ]	/* 4 values pushed */
0 3 1 24 
CALL[ ]	/* CallFunction */
PUSHW[ ]	/* 1 value pushed */
1 
SRP0[ ]	/* SetRefPoint0 */
PUSHW[ ]	/* 1 value pushed */
4 
MDRP[10000]	/* MoveDirectRelPt */
PUSHW[ ]	/* 1 value pushed */
0 
SRP0[ ]	/* SetRefPoint0 */
PUSHW[ ]	/* 1 value pushed */
5 
MDRP[10000]	/* MoveDirectRelPt */
PUSHW[ ]	/* 1 value pushed */
1 
SRP0[ ]	/* SetRefPoint0 */
PUSHW[ ]	/* 1 value pushed */
9 
MDRP[10000]	/* MoveDirectRelPt */
PUSHW[ ]	/* 1 value pushed */
9 
MDAP[1]	/* MoveDirectAbsPt */
SVTCA[0]	/* SetFreedomAndProjectionVectorToAxis */
PUSHW[ ]	/* 1 value pushed */
9 
MDAP[1]	/* MoveDirectAbsPt */
PUSHW[ ]	/* 1 value pushed */
4 
MDAP[1]	/* MoveDirectAbsPt */
PUSHW[ ]	/* 1 value pushed */
1 
RCVT[ ]	/* ReadCVT */
IF[ ]	/* If */
PUSHW[ ]	/* 1 value pushed */
2 
MDAP[1]	/* MoveDirectAbsPt */
ELSE[ ]	/* Else */
PUSHW[ ]	/* 2 values pushed */
2 8 
MIAP[0]	/* MoveIndirectAbsPt */
EIF[ ]	/* EndIf */
PUSHW[ ]	/* 1 value pushed */
1 
RCVT[ ]	/* ReadCVT */
IF[ ]	/* If */
PUSHW[ ]	/* 1 value pushed */
15 
MDAP[1]	/* MoveDirectAbsPt */
ELSE[ ]	/* Else */
PUSHW[ ]	/* 2 values pushed */
15 4 
MIAP[0]	/* MoveIndirectAbsPt */
EIF[ ]	/* EndIf */
PUSHW[ ]	/* 1 value pushed */
2 
SRP0[ ]	/* SetRefPoint0 */
PUSHW[ ]	/* 2 values pushed */
0 2 
MIRP[10100]	/* MoveIndirectRelPt */
IUP[0]	/* InterpolateUntPts */
IUP[1]	/* InterpolateUntPts */";
};
width = 231;
}
);
note = uni037E;
unicode = 037E;
},
{
glyphname = "colon-ethiopic";
lastChange = "2020-12-29 14:14:00 +0000";
layers = (
{
layerId = "A36D14D1-FF07-4574-A62D-30DF65569781";
paths = (
{
closed = 1;
nodes = (
"368 257 LINE",
"368 328 LINE",
"60 328 LINE",
"60 257 LINE"
);
},
{
closed = 1;
nodes = (
"268 0 LINE",
"268 113 LINE",
"154 113 LINE",
"154 0 LINE"
);
},
{
closed = 1;
nodes = (
"268 500 LINE",
"268 613 LINE",
"154 613 LINE",
"154 500 LINE"
);
}
);
width = 428;
}
);
unicode = 1365;
},
{
glyphname = "comma-ethiopic";
lastChange = "2020-12-29 14:14:00 +0000";
layers = (
{
layerId = "A36D14D1-FF07-4574-A62D-30DF65569781";
paths = (
{
closed = 1;
nodes = (
"322 500 LINE",
"322 600 LINE",
"60 600 LINE",
"60 500 LINE"
);
},
{
closed = 1;
nodes = (
"276 0 LINE",
"276 113 LINE",
"162 113 LINE",
"162 0 LINE"
);
},
{
closed = 1;
nodes = (
"276 300 LINE",
"276 413 LINE",
"162 413 LINE",
"162 300 LINE"
);
}
);
width = 382;
}
);
unicode = 1363;
},
{
glyphname = "period-ethiopic";
lastChange = "2020-12-29 14:14:00 +0000";
layers = (
{
layerId = "A36D14D1-FF07-4574-A62D-30DF65569781";
paths = (
{
closed = 1;
nodes = (
"424 390 LINE",
"424 503 LINE",
"310 503 LINE",
"310 390 LINE"
);
},
{
closed = 1;
nodes = (
"174 0 LINE",
"174 113 LINE",
"60 113 LINE",
"60 0 LINE"
);
},
{
closed = 1;
nodes = (
"424 0 LINE",
"424 113 LINE",
"310 113 LINE",
"310 0 LINE"
);
},
{
closed = 1;
nodes = (
"174 390 LINE",
"174 503 LINE",
"60 503 LINE",
"60 390 LINE"
);
}
);
width = 484;
}
);
unicode = 1362;
},
{
glyphname = "semicolon-ethiopic";
lastChange = "2020-12-29 14:14:00 +0000";
layers = (
{
layerId = "A36D14D1-FF07-4574-A62D-30DF65569781";
paths = (
{
closed = 1;
nodes = (
"312 500 LINE",
"312 577 LINE",
"60 577 LINE",
"60 500 LINE"
);
},
{
closed = 1;
nodes = (
"339 -72 LINE",
"339 0 LINE",
"97 0 LINE",
"97 -72 LINE"
);
},
{
closed = 1;
nodes = (
"271 75 LINE",
"271 189 LINE",
"158 189 LINE",
"158 75 LINE"
);
},
{
closed = 1;
nodes = (
"272 325 LINE",
"272 439 LINE",
"158 439 LINE",
"159 325 LINE"
);
}
);
width = 399;
}
);
unicode = 1364;
},
{
glyphname = "wordspace-ethiopic";
lastChange = "2020-12-29 14:14:00 +0000";
layers = (
{
layerId = "A36D14D1-FF07-4574-A62D-30DF65569781";
paths = (
{
closed = 1;
nodes = (
"173 74 LINE",
"173 189 LINE",
"60 189 LINE",
"60 74 LINE"
);
},
{
closed = 1;
nodes = (
"173 395 LINE",
"173 509 LINE",
"60 509 LINE",
"60 395 LINE"
);
}
);
width = 233;
}
);
unicode = 1361;
},
{
glyphname = period;
lastChange = "2020-12-30 02:16:29 +0000";
layers = (
{
layerId = "A36D14D1-FF07-4574-A62D-30DF65569781";
paths = (
{
closed = 1;
nodes = (
"151 0 LINE SMOOTH",
"164 0 OFFCURVE",
"174 10 OFFCURVE",
"174 23 CURVE SMOOTH",
"174 90 LINE SMOOTH",
"174 103 OFFCURVE",
"164 113 OFFCURVE",
"151 113 CURVE SMOOTH",
"83 113 LINE SMOOTH",
"70 113 OFFCURVE",
"60 103 OFFCURVE",
"60 90 CURVE SMOOTH",
"60 23 LINE SMOOTH",
"60 10 OFFCURVE",
"70 0 OFFCURVE",
"83 0 CURVE SMOOTH"
);
}
);
width = 234;
}
);
unicode = 002E;
},
{
glyphname = comma;
lastChange = "2020-12-29 14:13:59 +0000";
layers = (
{
layerId = "A36D14D1-FF07-4574-A62D-30DF65569781";
paths = (
{
closed = 1;
nodes = (
"184 107 LINE",
"118 120 LINE",
"60 -89 LINE",
"106 -122 LINE"
);
}
);
width = 244;
}
);
unicode = 002C;
},
{
glyphname = colon;
lastChange = "2020-12-29 14:13:59 +0000";
layers = (
{
layerId = "A36D14D1-FF07-4574-A62D-30DF65569781";
paths = (
{
closed = 1;
nodes = (
"171 406 LINE",
"171 517 LINE",
"60 517 LINE",
"60 406 LINE"
);
},
{
closed = 1;
nodes = (
"171 0 LINE",
"171 111 LINE",
"60 111 LINE",
"60 0 LINE"
);
}
);
userData = {
assembly = "PUSHW[ ]	/* 3 values pushed */
1 2 3 
CALL[ ]	/* CallFunction */
PUSHW[ ]	/* 1 value pushed */
1 
SRP0[ ]	/* SetRefPoint0 */
PUSHW[ ]	/* 1 value pushed */
2 
SRP0[ ]	/* SetRefPoint0 */
PUSHW[ ]	/* 1 value pushed */
4 
MDRP[10000]	/* MoveDirectRelPt */
PUSHW[ ]	/* 1 value pushed */
1 
SRP0[ ]	/* SetRefPoint0 */
PUSHW[ ]	/* 1 value pushed */
6 
MDRP[10000]	/* MoveDirectRelPt */
SVTCA[0]	/* SetFreedomAndProjectionVectorToAxis */
PUSHW[ ]	/* 3 values pushed */
4 5 3 
CALL[ ]	/* CallFunction */
PUSHW[ ]	/* 1 value pushed */
4 
SRP0[ ]	/* SetRefPoint0 */
PUSHW[ ]	/* 3 values pushed */
1 0 3 
CALL[ ]	/* CallFunction */
PUSHW[ ]	/* 1 value pushed */
1 
SRP0[ ]	/* SetRefPoint0 */
IUP[0]	/* InterpolateUntPts */
IUP[1]	/* InterpolateUntPts */";
};
width = 231;
}
);
note = colon;
unicode = 003A;
},
{
glyphname = semicolon;
lastChange = "2020-12-29 14:13:59 +0000";
layers = (
{
layerId = "A36D14D1-FF07-4574-A62D-30DF65569781";
paths = (
{
closed = 1;
nodes = (
"138 -123 OFFCURVE",
"172 -66 OFFCURVE",
"171 10 CURVE SMOOTH",
"171 111 LINE",
"60 111 LINE",
"60 0 LINE",
"119 0 LINE",
"122 -31 OFFCURVE",
"108 -77 OFFCURVE",
"61 -96 CURVE",
"61 -146 LINE"
);
},
{
closed = 1;
nodes = (
"171 406 LINE",
"171 517 LINE",
"60 517 LINE",
"60 406 LINE"
);
}
);
userData = {
assembly = "PUSHW[ ]	/* 3 values pushed */
1 2 3 
CALL[ ]	/* CallFunction */
PUSHW[ ]	/* 1 value pushed */
1 
SRP0[ ]	/* SetRefPoint0 */
PUSHW[ ]	/* 1 value pushed */
2 
SRP0[ ]	/* SetRefPoint0 */
PUSHW[ ]	/* 1 value pushed */
4 
MDRP[10000]	/* MoveDirectRelPt */
PUSHW[ ]	/* 1 value pushed */
2 
SRP0[ ]	/* SetRefPoint0 */
PUSHW[ ]	/* 1 value pushed */
11 
MDRP[10000]	/* MoveDirectRelPt */
PUSHW[ ]	/* 1 value pushed */
11 
MDAP[1]	/* MoveDirectAbsPt */
PUSHW[ ]	/* 3 values pushed */
12 2 1 
SRP1[ ]	/* SetRefPoint1 */
SRP2[ ]	/* SetRefPoint2 */
IP[ ]	/* InterpolatePts */
PUSHW[ ]	/* 1 value pushed */
1 
SRP0[ ]	/* SetRefPoint0 */
PUSHW[ ]	/* 1 value pushed */
15 
MDRP[10000]	/* MoveDirectRelPt */
SVTCA[0]	/* SetFreedomAndProjectionVectorToAxis */
PUSHW[ ]	/* 1 value pushed */
12 
MDAP[1]	/* MoveDirectAbsPt */
PUSHW[ ]	/* 3 values pushed */
1 0 3 
CALL[ ]	/* CallFunction */
PUSHW[ ]	/* 1 value pushed */
1 
SRP0[ ]	/* SetRefPoint0 */
IUP[0]	/* InterpolateUntPts */
IUP[1]	/* InterpolateUntPts */";
};
width = 231;
}
);
note = semicolon;
unicode = 003B;
},
{
glyphname = ellipsis;
lastChange = "2020-12-29 14:13:59 +0000";
layers = (
{
layerId = "A36D14D1-FF07-4574-A62D-30DF65569781";
paths = (
{
closed = 1;
nodes = (
"837 0 LINE",
"837 111 LINE",
"726 111 LINE",
"726 0 LINE"
);
},
{
closed = 1;
nodes = (
"171 0 LINE",
"171 111 LINE",
"60 111 LINE",
"60 0 LINE"
);
},
{
closed = 1;
nodes = (
"504 0 LINE",
"504 111 LINE",
"393 111 LINE",
"393 0 LINE"
);
}
);
userData = {
assembly = "PUSHW[ ]	/* 3 values pushed */
11 8 3 
CALL[ ]	/* CallFunction */
PUSHW[ ]	/* 1 value pushed */
11 
SRP0[ ]	/* SetRefPoint0 */
PUSHW[ ]	/* 1 value pushed */
4 
MDRP[11100]	/* MoveDirectRelPt */
NPUSHW[ ]	/* 3 values pushed */
191 4 1 
DELTAP1[ ]	/* DeltaExceptionP1 */
NPUSHW[ ]	/* 3 values pushed */
47 4 1 
DELTAP1[ ]	/* DeltaExceptionP1 */
NPUSHW[ ]	/* 3 values pushed */
112 4 1 
DELTAP1[ ]	/* DeltaExceptionP1 */
PUSHW[ ]	/* 1 value pushed */
7 
MDRP[11100]	/* MoveDirectRelPt */
PUSHW[ ]	/* 1 value pushed */
0 
MDRP[11100]	/* MoveDirectRelPt */
NPUSHW[ ]	/* 3 values pushed */
47 0 1 
DELTAP1[ ]	/* DeltaExceptionP1 */
NPUSHW[ ]	/* 3 values pushed */
191 0 1 
DELTAP1[ ]	/* DeltaExceptionP1 */
NPUSHW[ ]	/* 3 values pushed */
112 0 1 
DELTAP1[ ]	/* DeltaExceptionP1 */
PUSHW[ ]	/* 1 value pushed */
3 
MDRP[11100]	/* MoveDirectRelPt */
PUSHW[ ]	/* 1 value pushed */
13 
MDRP[11100]	/* MoveDirectRelPt */
SVTCA[0]	/* SetFreedomAndProjectionVectorToAxis */
PUSHW[ ]	/* 3 values pushed */
0 1 3 
CALL[ ]	/* CallFunction */
PUSHW[ ]	/* 1 value pushed */
0 
SRP0[ ]	/* SetRefPoint0 */
PUSHW[ ]	/* 1 value pushed */
4 
MDRP[10000]	/* MoveDirectRelPt */
PUSHW[ ]	/* 1 value pushed */
1 
SRP0[ ]	/* SetRefPoint0 */
PUSHW[ ]	/* 1 value pushed */
5 
MDRP[10000]	/* MoveDirectRelPt */
PUSHW[ ]	/* 1 value pushed */
0 
SRP0[ ]	/* SetRefPoint0 */
PUSHW[ ]	/* 1 value pushed */
8 
MDRP[10000]	/* MoveDirectRelPt */
PUSHW[ ]	/* 1 value pushed */
1 
SRP0[ ]	/* SetRefPoint0 */
PUSHW[ ]	/* 1 value pushed */
9 
MDRP[10000]	/* MoveDirectRelPt */
IUP[0]	/* InterpolateUntPts */
IUP[1]	/* InterpolateUntPts */";
};
width = 897;
}
);
note = ellipsis;
unicode = 2026;
},
{
glyphname = exclam;
lastChange = "2020-12-29 14:13:59 +0000";
layers = (
{
layerId = "A36D14D1-FF07-4574-A62D-30DF65569781";
paths = (
{
closed = 1;
nodes = (
"138 183 LINE",
"163 494 LINE",
"163 714 LINE",
"68 714 LINE",
"68 494 LINE",
"93 183 LINE"
);
},
{
closed = 1;
nodes = (
"171 0 LINE",
"171 111 LINE",
"60 111 LINE",
"60 0 LINE"
);
}
);
userData = {
assembly = "PUSHW[ ]	/* 3 values pushed */
3 0 3 
CALL[ ]	/* CallFunction */
PUSHW[ ]	/* 1 value pushed */
3 
SRP0[ ]	/* SetRefPoint0 */
PUSHW[ ]	/* 3 values pushed */
6 0 3 
SRP1[ ]	/* SetRefPoint1 */
SRP2[ ]	/* SetRefPoint2 */
IP[ ]	/* InterpolatePts */
PUSHW[ ]	/* 1 value pushed */
6 
MDAP[1]	/* MoveDirectAbsPt */
PUSHW[ ]	/* 1 value pushed */
5 
MDRP[11100]	/* MoveDirectRelPt */
SVTCA[0]	/* SetFreedomAndProjectionVectorToAxis */
PUSHW[ ]	/* 1 value pushed */
5 
MDAP[1]	/* MoveDirectAbsPt */
PUSHW[ ]	/* 3 values pushed */
0 1 3 
CALL[ ]	/* CallFunction */
PUSHW[ ]	/* 1 value pushed */
0 
SRP0[ ]	/* SetRefPoint0 */
IUP[0]	/* InterpolateUntPts */
IUP[1]	/* InterpolateUntPts */";
};
width = 231;
}
);
note = exclam;
unicode = 0021;
},
{
glyphname = exclamdown;
lastChange = "2020-12-29 14:13:59 +0000";
layers = (
{
layerId = "A36D14D1-FF07-4574-A62D-30DF65569781";
paths = (
{
closed = 1;
nodes = (
"163 -197 LINE",
"163 22 LINE",
"138 333 LINE",
"93 333 LINE",
"68 22 LINE",
"68 -197 LINE"
);
},
{
closed = 1;
nodes = (
"171 406 LINE",
"171 517 LINE",
"60 517 LINE",
"60 406 LINE"
);
}
);
userData = {
assembly = "PUSHW[ ]	/* 3 values pushed */
1 2 3 
CALL[ ]	/* CallFunction */
PUSHW[ ]	/* 1 value pushed */
1 
SRP0[ ]	/* SetRefPoint0 */
PUSHW[ ]	/* 3 values pushed */
4 2 1 
SRP1[ ]	/* SetRefPoint1 */
SRP2[ ]	/* SetRefPoint2 */
IP[ ]	/* InterpolatePts */
PUSHW[ ]	/* 1 value pushed */
4 
MDAP[1]	/* MoveDirectAbsPt */
PUSHW[ ]	/* 1 value pushed */
7 
MDRP[11100]	/* MoveDirectRelPt */
SVTCA[0]	/* SetFreedomAndProjectionVectorToAxis */
PUSHW[ ]	/* 1 value pushed */
5 
MDAP[1]	/* MoveDirectAbsPt */
PUSHW[ ]	/* 3 values pushed */
1 0 3 
CALL[ ]	/* CallFunction */
PUSHW[ ]	/* 1 value pushed */
1 
SRP0[ ]	/* SetRefPoint0 */
IUP[0]	/* InterpolateUntPts */
IUP[1]	/* InterpolateUntPts */";
};
width = 231;
}
);
note = exclamdown;
unicode = 00A1;
},
{
glyphname = question;
lastChange = "2020-12-29 14:13:59 +0000";
layers = (
{
layerId = "A36D14D1-FF07-4574-A62D-30DF65569781";
paths = (
{
closed = 1;
nodes = (
"322 174 LINE",
"322 213 LINE SMOOTH",
"322 282 OFFCURVE",
"364 317 OFFCURVE",
"409 361 CURVE SMOOTH",
"452 404 OFFCURVE",
"495 449 OFFCURVE",
"495 531 CURVE SMOOTH",
"495 659 OFFCURVE",
"409 731 OFFCURVE",
"284 731 CURVE SMOOTH",
"141 731 OFFCURVE",
"57 623 OFFCURVE",
"60 491 CURVE",
"145 491 LINE",
"145 579 OFFCURVE",
"178 650 OFFCURVE",
"284 656 CURVE",
"356 656 OFFCURVE",
"400 612 OFFCURVE",
"405 539 CURVE SMOOTH",
"409 467 OFFCURVE",
"371 429 OFFCURVE",
"327 388 CURVE SMOOTH",
"286 350 OFFCURVE",
"241 303 OFFCURVE",
"237 221 CURVE SMOOTH",
"237 174 LINE"
);
},
{
closed = 1;
nodes = (
"334 0 LINE",
"334 111 LINE",
"223 111 LINE",
"223 0 LINE"
);
}
);
userData = {
assembly = "PUSHW[ ]	/* 3 values pushed */
5 4 3 
CALL[ ]	/* CallFunction */
PUSHW[ ]	/* 1 value pushed */
5 
SRP0[ ]	/* SetRefPoint0 */
PUSHW[ ]	/* 3 values pushed */
3 0 3 
CALL[ ]	/* CallFunction */
PUSHW[ ]	/* 1 value pushed */
3 
SRP0[ ]	/* SetRefPoint0 */
PUSHW[ ]	/* 3 values pushed */
33 13 3 
CALL[ ]	/* CallFunction */
PUSHW[ ]	/* 1 value pushed */
33 
SRP0[ ]	/* SetRefPoint0 */
NPUSHW[ ]	/* 5 values pushed */
218 13 234 13 2 
DELTAP1[ ]	/* DeltaExceptionP1 */
NPUSHW[ ]	/* 27 values pushed */
9 13 25 13 41 13 57 13 73 13 89 13 105 13 121 13 137 13 153 13 169 13 185 13 201 13 13 
DELTAP1[ ]	/* DeltaExceptionP1 */
PUSHW[ ]	/* 3 values pushed */
20 0 3 
SRP1[ ]	/* SetRefPoint1 */
SRP2[ ]	/* SetRefPoint2 */
IP[ ]	/* InterpolatePts */
PUSHW[ ]	/* 1 value pushed */
20 
MDAP[1]	/* MoveDirectAbsPt */
PUSHW[ ]	/* 1 value pushed */
23 
MDRP[11100]	/* MoveDirectRelPt */
PUSHW[ ]	/* 1 value pushed */
33 
SRP0[ ]	/* SetRefPoint0 */
PUSHW[ ]	/* 1 value pushed */
44 
MDRP[11100]	/* MoveDirectRelPt */
SVTCA[0]	/* SetFreedomAndProjectionVectorToAxis */
PUSHW[ ]	/* 3 values pushed */
0 1 3 
CALL[ ]	/* CallFunction */
PUSHW[ ]	/* 1 value pushed */
0 
SRP0[ ]	/* SetRefPoint0 */
PUSHW[ ]	/* 3 values pushed */
38 10 3 
CALL[ ]	/* CallFunction */
PUSHW[ ]	/* 1 value pushed */
38 
SRP0[ ]	/* SetRefPoint0 */
IUP[0]	/* InterpolateUntPts */
IUP[1]	/* InterpolateUntPts */";
};
width = 555;
}
);
note = question;
unicode = 003F;
},
{
glyphname = questiondown;
lastChange = "2020-12-29 14:14:00 +0000";
layers = (
{
layerId = "A36D14D1-FF07-4574-A62D-30DF65569781";
paths = (
{
closed = 1;
nodes = (
"342.19 -206.808 OFFCURVE",
"412.537 -139.878 OFFCURVE",
"451.179 -97.342 CURVE",
"495 30 LINE",
"410 30 LINE",
"410 -57.972 OFFCURVE",
"369.317 -134 OFFCURVE",
"271 -134 CURVE SMOOTH",
"199 -134 OFFCURVE",
"155.333 -90.333 OFFCURVE",
"150 -17 CURVE SMOOTH",
"146.097 53.255 OFFCURVE",
"184.23 92.013 OFFCURVE",
"228.5 133.5 CURVE SMOOTH",
"271.112 172.148 OFFCURVE",
"314.079 219.621 OFFCURVE",
"318 300 CURVE SMOOTH",
"318 339 LINE",
"233 339 LINE",
"233 308 LINE SMOOTH",
"233 240.705 OFFCURVE",
"188.918 200.235 OFFCURVE",
"146 160 CURVE SMOOTH",
"100.278 116.968 OFFCURVE",
"60 71.468 OFFCURVE",
"60 -9 CURVE SMOOTH",
"60 -136.636 OFFCURVE",
"146.106 -208.566 OFFCURVE",
"271 -209 CURVE SMOOTH"
);
},
{
closed = 1;
nodes = (
"497.109 -35.704 OFFCURVE",
"490.862 -53.66 OFFCURVE",
"451.179 -97.342 CURVE",
"436.5 -140 LINE"
);
},
{
closed = 1;
nodes = (
"329 406 LINE",
"329 517 LINE",
"218 517 LINE",
"218 406 LINE"
);
}
);
userData = {
assembly = "PUSHW[ ]	/* 3 values pushed */
13 33 3 
CALL[ ]	/* CallFunction */
PUSHW[ ]	/* 1 value pushed */
13 
SRP0[ ]	/* SetRefPoint0 */
PUSHW[ ]	/* 3 values pushed */
1 2 3 
CALL[ ]	/* CallFunction */
PUSHW[ ]	/* 1 value pushed */
1 
SRP0[ ]	/* SetRefPoint0 */
PUSHW[ ]	/* 3 values pushed */
4 5 3 
CALL[ ]	/* CallFunction */
PUSHW[ ]	/* 1 value pushed */
4 
SRP0[ ]	/* SetRefPoint0 */
NPUSHW[ ]	/* 27 values pushed */
6 13 22 13 38 13 54 13 70 13 86 13 102 13 118 13 134 13 150 13 166 13 182 13 198 13 13 
DELTAP1[ ]	/* DeltaExceptionP1 */
NPUSHW[ ]	/* 5 values pushed */
213 13 229 13 2 
DELTAP1[ ]	/* DeltaExceptionP1 */
PUSHW[ ]	/* 3 values pushed */
22 2 1 
SRP1[ ]	/* SetRefPoint1 */
SRP2[ ]	/* SetRefPoint2 */
IP[ ]	/* InterpolatePts */
PUSHW[ ]	/* 1 value pushed */
22 
MDAP[1]	/* MoveDirectAbsPt */
PUSHW[ ]	/* 1 value pushed */
21 
MDRP[11100]	/* MoveDirectRelPt */
PUSHW[ ]	/* 1 value pushed */
4 
SRP0[ ]	/* SetRefPoint0 */
PUSHW[ ]	/* 1 value pushed */
44 
MDRP[11100]	/* MoveDirectRelPt */
SVTCA[0]	/* SetFreedomAndProjectionVectorToAxis */
PUSHW[ ]	/* 3 values pushed */
10 38 3 
CALL[ ]	/* CallFunction */
PUSHW[ ]	/* 1 value pushed */
10 
SRP0[ ]	/* SetRefPoint0 */
PUSHW[ ]	/* 3 values pushed */
1 0 3 
CALL[ ]	/* CallFunction */
PUSHW[ ]	/* 1 value pushed */
1 
SRP0[ ]	/* SetRefPoint0 */
IUP[0]	/* InterpolateUntPts */
IUP[1]	/* InterpolateUntPts */";
};
width = 555;
}
);
note = questiondown;
unicode = 00BF;
},
{
glyphname = periodcentered;
lastChange = "2020-12-29 14:13:59 +0000";
layers = (
{
layerId = "A36D14D1-FF07-4574-A62D-30DF65569781";
paths = (
{
closed = 1;
nodes = (
"158.333 247 OFFCURVE",
"188 279 OFFCURVE",
"188 311 CURVE SMOOTH",
"188 345.667 OFFCURVE",
"158.667 375 OFFCURVE",
"124 375 CURVE SMOOTH",
"89.333 375 OFFCURVE",
"60 345.667 OFFCURVE",
"60 311 CURVE SMOOTH",
"60 276.333 OFFCURVE",
"90.333 247 OFFCURVE",
"125 247 CURVE SMOOTH"
);
}
);
userData = {
assembly = "PUSHW[ ]	/* 3 values pushed */
6 0 3 
CALL[ ]	/* CallFunction */
PUSHW[ ]	/* 1 value pushed */
6 
SRP0[ ]	/* SetRefPoint0 */
NPUSHW[ ]	/* 27 values pushed */
6 6 22 6 38 6 54 6 70 6 86 6 102 6 118 6 134 6 150 6 166 6 182 6 198 6 13 
DELTAP1[ ]	/* DeltaExceptionP1 */
NPUSHW[ ]	/* 5 values pushed */
213 6 229 6 2 
DELTAP1[ ]	/* DeltaExceptionP1 */
SVTCA[0]	/* SetFreedomAndProjectionVectorToAxis */
PUSHW[ ]	/* 3 values pushed */
9 3 3 
CALL[ ]	/* CallFunction */
PUSHW[ ]	/* 1 value pushed */
9 
SRP0[ ]	/* SetRefPoint0 */
IUP[0]	/* InterpolateUntPts */
IUP[1]	/* InterpolateUntPts */";
};
width = 248;
}
);
note = periodcentered;
unicode = 00B7;
},
{
glyphname = bullet;
lastChange = "2020-12-29 14:14:00 +0000";
layers = (
{
layerId = "A36D14D1-FF07-4574-A62D-30DF65569781";
paths = (
{
closed = 1;
nodes = (
"342.659 183.679 OFFCURVE",
"417 261.402 OFFCURVE",
"417 357 CURVE SMOOTH",
"417 446.897 OFFCURVE",
"349.034 531.871 OFFCURVE",
"238 535 CURVE SMOOTH",
"139.585 535 OFFCURVE",
"60 455.415 OFFCURVE",
"60 357 CURVE SMOOTH",
"60.414 310.822 OFFCURVE",
"103.391 258.594 OFFCURVE",
"135.355 225.419 CURVE SMOOTH",
"173.453 185.878 OFFCURVE",
"195.906 173.404 OFFCURVE",
"112 230.5 CURVE",
"135.355 225.419 LINE SMOOTH"
);
}
);
userData = {
assembly = "PUSHW[ ]	/* 1 value pushed */
20 
CALL[ ]	/* CallFunction */
SVTCA[0]	/* SetFreedomAndProjectionVectorToAxis */
PUSHW[ ]	/* 1 value pushed */
5 
MDAP[1]	/* MoveDirectAbsPt */
PUSHW[ ]	/* 1 value pushed */
15 
MDAP[1]	/* MoveDirectAbsPt */
IUP[0]	/* InterpolateUntPts */
IUP[1]	/* InterpolateUntPts */";
};
width = 477;
}
);
note = bullet;
},
{
glyphname = asterisk;
lastChange = "2020-12-29 14:13:59 +0000";
layers = (
{
layerId = "A36D14D1-FF07-4574-A62D-30DF65569781";
paths = (
{
closed = 1;
nodes = (
"211 529 LINE",
"280 433 LINE",
"321 464 LINE",
"255 555 LINE",
"364 593 LINE",
"344 641 LINE",
"237 601 LINE",
"237 714 LINE",
"184 714 LINE",
"184 601 LINE",
"78 641 LINE",
"60 593 LINE",
"166 555 LINE",
"101 464 LINE",
"146 433 LINE"
);
}
);
userData = {
assembly = "PUSHW[ ]	/* 3 values pushed */
1 2 3 
CALL[ ]	/* CallFunction */
PUSHW[ ]	/* 1 value pushed */
1 
SRP0[ ]	/* SetRefPoint0 */
PUSHW[ ]	/* 3 values pushed */
9 2 1 
SRP1[ ]	/* SetRefPoint1 */
SRP2[ ]	/* SetRefPoint2 */
IP[ ]	/* InterpolatePts */
SVTCA[0]	/* SetFreedomAndProjectionVectorToAxis */
PUSHW[ ]	/* 1 value pushed */
1 
MDAP[1]	/* MoveDirectAbsPt */
PUSHW[ ]	/* 1 value pushed */
8 
MDAP[1]	/* MoveDirectAbsPt */
PUSHW[ ]	/* 1 value pushed */
10 
MDAP[1]	/* MoveDirectAbsPt */
PUSHW[ ]	/* 3 values pushed */
0 8 1 
SRP1[ ]	/* SetRefPoint1 */
SRP2[ ]	/* SetRefPoint2 */
IP[ ]	/* InterpolatePts */
PUSHW[ ]	/* 3 values pushed */
3 8 1 
SRP1[ ]	/* SetRefPoint1 */
SRP2[ ]	/* SetRefPoint2 */
IP[ ]	/* InterpolatePts */
PUSHW[ ]	/* 3 values pushed */
6 8 1 
SRP1[ ]	/* SetRefPoint1 */
SRP2[ ]	/* SetRefPoint2 */
IP[ ]	/* InterpolatePts */
PUSHW[ ]	/* 3 values pushed */
9 8 1 
SRP1[ ]	/* SetRefPoint1 */
SRP2[ ]	/* SetRefPoint2 */
IP[ ]	/* InterpolatePts */
PUSHW[ ]	/* 3 values pushed */
12 8 1 
SRP1[ ]	/* SetRefPoint1 */
SRP2[ ]	/* SetRefPoint2 */
IP[ ]	/* InterpolatePts */
IUP[0]	/* InterpolateUntPts */
IUP[1]	/* InterpolateUntPts */";
};
width = 424;
}
);
note = asterisk;
unicode = 002A;
},
{
glyphname = numbersign;
lastChange = "2020-12-29 14:13:59 +0000";
layers = (
{
layerId = "A36D14D1-FF07-4574-A62D-30DF65569781";
paths = (
{
closed = 1;
nodes = (
"197 0 LINE",
"226 206 LINE",
"350 206 LINE",
"321 0 LINE",
"390 0 LINE",
"419 206 LINE",
"520 206 LINE",
"520 274 LINE",
"429 274 LINE",
"450 424 LINE",
"548 424 LINE",
"548 492 LINE",
"459 492 LINE",
"488 697 LINE",
"419 697 LINE",
"390 492 LINE",
"266 492 LINE",
"295 697 LINE",
"226 697 LINE",
"197 492 LINE",
"86 492 LINE",
"86 424 LINE",
"188 424 LINE",
"167 274 LINE",
"60 274 LINE",
"60 206 LINE",
"157 206 LINE",
"128 0 LINE"
);
},
{
closed = 1;
nodes = (
"257 424 LINE",
"381 424 LINE",
"360 274 LINE",
"236 274 LINE"
);
}
);
userData = {
assembly = "SVTCA[0]	/* SetFreedomAndProjectionVectorToAxis */
PUSHW[ ]	/* 1 value pushed */
19 
MDAP[1]	/* MoveDirectAbsPt */
PUSHW[ ]	/* 1 value pushed */
23 
MDAP[1]	/* MoveDirectAbsPt */
PUSHW[ ]	/* 1 value pushed */
5 
MDAP[1]	/* MoveDirectAbsPt */
PUSHW[ ]	/* 1 value pushed */
9 
MDAP[1]	/* MoveDirectAbsPt */
PUSHW[ ]	/* 3 values pushed */
29 4 3 
CALL[ ]	/* CallFunction */
PUSHW[ ]	/* 1 value pushed */
29 
SRP0[ ]	/* SetRefPoint0 */
PUSHW[ ]	/* 3 values pushed */
22 0 3 
CALL[ ]	/* CallFunction */
PUSHW[ ]	/* 1 value pushed */
22 
SRP0[ ]	/* SetRefPoint0 */
PUSHW[ ]	/* 1 value pushed */
29 
SRP0[ ]	/* SetRefPoint0 */
PUSHW[ ]	/* 1 value pushed */
2 
MDRP[10000]	/* MoveDirectRelPt */
PUSHW[ ]	/* 1 value pushed */
4 
SRP0[ ]	/* SetRefPoint0 */
PUSHW[ ]	/* 1 value pushed */
7 
MDRP[10000]	/* MoveDirectRelPt */
PUSHW[ ]	/* 1 value pushed */
4 
SRP0[ ]	/* SetRefPoint0 */
PUSHW[ ]	/* 1 value pushed */
11 
MDRP[10000]	/* MoveDirectRelPt */
PUSHW[ ]	/* 1 value pushed */
29 
SRP0[ ]	/* SetRefPoint0 */
PUSHW[ ]	/* 1 value pushed */
13 
MDRP[10000]	/* MoveDirectRelPt */
PUSHW[ ]	/* 1 value pushed */
0 
SRP0[ ]	/* SetRefPoint0 */
PUSHW[ ]	/* 1 value pushed */
15 
MDRP[10000]	/* MoveDirectRelPt */
PUSHW[ ]	/* 1 value pushed */
22 
SRP0[ ]	/* SetRefPoint0 */
PUSHW[ ]	/* 1 value pushed */
17 
MDRP[10000]	/* MoveDirectRelPt */
PUSHW[ ]	/* 1 value pushed */
22 
SRP0[ ]	/* SetRefPoint0 */
PUSHW[ ]	/* 1 value pushed */
25 
MDRP[10000]	/* MoveDirectRelPt */
PUSHW[ ]	/* 1 value pushed */
0 
SRP0[ ]	/* SetRefPoint0 */
PUSHW[ ]	/* 1 value pushed */
27 
MDRP[10000]	/* MoveDirectRelPt */
IUP[0]	/* InterpolateUntPts */
IUP[1]	/* InterpolateUntPts */";
};
width = 608;
}
);
note = numbersign;
unicode = 0023;
},
{
glyphname = slash;
lastChange = "2020-12-29 20:56:56 +0000";
layers = (
{
layerId = "A36D14D1-FF07-4574-A62D-30DF65569781";
paths = (
{
closed = 1;
nodes = (
"110 -16 LINE",
"406 731 LINE",
"355 731 LINE",
"60 -16 LINE"
);
}
);
userData = {
assembly = "SVTCA[0]	/* SetFreedomAndProjectionVectorToAxis */
PUSHW[ ]	/* 1 value pushed */
0 
MDAP[1]	/* MoveDirectAbsPt */
PUSHW[ ]	/* 1 value pushed */
1 
MDAP[1]	/* MoveDirectAbsPt */
IUP[0]	/* InterpolateUntPts */
IUP[1]	/* InterpolateUntPts */";
};
width = 488;
}
);
note = slash;
unicode = 002F;
},
{
glyphname = hyphen;
lastChange = "2020-12-29 14:13:59 +0000";
layers = (
{
layerId = "A36D14D1-FF07-4574-A62D-30DF65569781";
paths = (
{
closed = 1;
nodes = (
"385 237 LINE",
"385 318 LINE",
"60 318 LINE",
"60 237 LINE"
);
}
);
width = 445;
}
);
unicode = 002D;
},
{
glyphname = uni00AD;
lastChange = "2020-12-29 14:13:59 +0000";
layers = (
{
layerId = "A36D14D1-FF07-4574-A62D-30DF65569781";
paths = (
{
closed = 1;
nodes = (
"349 238 LINE",
"349 318 LINE",
"60 318 LINE",
"60 238 LINE"
);
}
);
userData = {
assembly = "PUSHW[ ]	/* 1 value pushed */
20 
CALL[ ]	/* CallFunction */
SVTCA[0]	/* SetFreedomAndProjectionVectorToAxis */
PUSHW[ ]	/* 4 values pushed */
1 2 2 24 
CALL[ ]	/* CallFunction */
IUP[0]	/* InterpolateUntPts */
IUP[1]	/* InterpolateUntPts */";
};
width = 409;
}
);
note = uni00AD;
unicode = 00AD;
},
{
glyphname = endash;
lastChange = "2020-12-29 14:13:59 +0000";
layers = (
{
layerId = "A36D14D1-FF07-4574-A62D-30DF65569781";
paths = (
{
closed = 1;
nodes = (
"546 253 LINE",
"546 322 LINE",
"60 322 LINE",
"60 253 LINE"
);
}
);
width = 606;
}
);
unicode = 2013;
},
{
glyphname = emdash;
lastChange = "2020-12-29 14:13:59 +0000";
layers = (
{
layerId = "A36D14D1-FF07-4574-A62D-30DF65569781";
paths = (
{
closed = 1;
nodes = (
"1070 249 LINE",
"1070 325 LINE",
"60 325 LINE",
"60 249 LINE"
);
}
);
width = 1130;
}
);
unicode = 2014;
},
{
glyphname = underscore;
lastChange = "2020-12-29 14:13:59 +0000";
layers = (
{
layerId = "A36D14D1-FF07-4574-A62D-30DF65569781";
paths = (
{
closed = 1;
nodes = (
"560 -124 LINE",
"560 -74 LINE",
"60 -74 LINE",
"60 -124 LINE"
);
}
);
userData = {
assembly = "SVTCA[0]	/* SetFreedomAndProjectionVectorToAxis */
PUSHW[ ]	/* 3 values pushed */
0 1 3 
CALL[ ]	/* CallFunction */
IUP[0]	/* InterpolateUntPts */
IUP[1]	/* InterpolateUntPts */";
};
width = 620;
}
);
note = underscore;
unicode = 005F;
},
{
glyphname = parenleft;
lastChange = "2020-12-29 14:13:59 +0000";
layers = (
{
layerId = "A36D14D1-FF07-4574-A62D-30DF65569781";
paths = (
{
closed = 1;
nodes = (
"241 -139 LINE",
"137 275 LINE SMOOTH",
"131 298 OFFCURVE",
"137 323 OFFCURVE",
"138 325 CURVE",
"241 700 LINE",
"161 700 LINE",
"66 365 LINE SMOOTH",
"53 318 OFFCURVE",
"64 267 OFFCURVE",
"65 265 CURVE",
"161 -139 LINE"
);
}
);
width = 301;
}
);
unicode = 0028;
},
{
glyphname = parenright;
lastChange = "2020-12-29 14:13:59 +0000";
layers = (
{
layerId = "A36D14D1-FF07-4574-A62D-30DF65569781";
paths = (
{
closed = 1;
nodes = (
"140 -139 LINE",
"236 265 LINE",
"237 267 OFFCURVE",
"248 318 OFFCURVE",
"235 365 CURVE SMOOTH",
"140 700 LINE",
"60 700 LINE",
"163 325 LINE",
"164 323 OFFCURVE",
"170 298 OFFCURVE",
"164 275 CURVE SMOOTH",
"60 -139 LINE"
);
}
);
width = 301;
}
);
unicode = 0029;
},
{
glyphname = braceleft;
lastChange = "2020-12-29 14:13:59 +0000";
layers = (
{
layerId = "A36D14D1-FF07-4574-A62D-30DF65569781";
paths = (
{
closed = 1;
nodes = (
"268 -130 LINE SMOOTH",
"280 -130 OFFCURVE",
"289 -121 OFFCURVE",
"289 -109 CURVE SMOOTH",
"288 -69 LINE SMOOTH",
"288 -58 OFFCURVE",
"279 -49 OFFCURVE",
"268 -49 CURVE SMOOTH",
"171 -49 LINE SMOOTH",
"160 -49 OFFCURVE",
"151 -40 OFFCURVE",
"151 -29 CURVE SMOOTH",
"151 227 LINE SMOOTH",
"151 244 OFFCURVE",
"115 255 OFFCURVE",
"115 292 CURVE SMOOTH",
"115 344 OFFCURVE",
"151 331 OFFCURVE",
"151 362 CURVE SMOOTH",
"151 699 LINE SMOOTH",
"151 710 OFFCURVE",
"160 719 OFFCURVE",
"171 719 CURVE SMOOTH",
"257 719 LINE SMOOTH",
"268 719 OFFCURVE",
"277 728 OFFCURVE",
"277 739 CURVE SMOOTH",
"277 780 LINE SMOOTH",
"277 791 OFFCURVE",
"268 800 OFFCURVE",
"257 800 CURVE SMOOTH",
"161 800 LINE SMOOTH",
"132 800 OFFCURVE",
"110 778 OFFCURVE",
"110 749 CURVE SMOOTH",
"110 368 LINE",
"92 338 OFFCURVE",
"60 334 OFFCURVE",
"60 289 CURVE SMOOTH",
"60 255 OFFCURVE",
"96 244 OFFCURVE",
"110 227 CURVE",
"110 -79 LINE SMOOTH",
"110 -108 OFFCURVE",
"132 -130 OFFCURVE",
"161 -130 CURVE SMOOTH"
);
}
);
width = 349;
}
);
unicode = 007B;
},
{
glyphname = braceright;
lastChange = "2020-12-29 14:13:59 +0000";
layers = (
{
layerId = "A36D14D1-FF07-4574-A62D-30DF65569781";
paths = (
{
closed = 1;
nodes = (
"188 -130 LINE SMOOTH",
"217 -130 OFFCURVE",
"239 -108 OFFCURVE",
"239 -79 CURVE SMOOTH",
"239 227 LINE",
"253 244 OFFCURVE",
"289 255 OFFCURVE",
"289 289 CURVE SMOOTH",
"289 334 OFFCURVE",
"257 338 OFFCURVE",
"239 368 CURVE",
"239 749 LINE SMOOTH",
"239 778 OFFCURVE",
"217 800 OFFCURVE",
"188 800 CURVE SMOOTH",
"92 800 LINE SMOOTH",
"81 800 OFFCURVE",
"72 791 OFFCURVE",
"72 780 CURVE SMOOTH",
"72 739 LINE SMOOTH",
"72 728 OFFCURVE",
"81 719 OFFCURVE",
"92 719 CURVE SMOOTH",
"178 719 LINE SMOOTH",
"189 719 OFFCURVE",
"198 710 OFFCURVE",
"198 699 CURVE SMOOTH",
"198 362 LINE SMOOTH",
"198 331 OFFCURVE",
"234 344 OFFCURVE",
"234 292 CURVE SMOOTH",
"234 255 OFFCURVE",
"198 244 OFFCURVE",
"198 227 CURVE SMOOTH",
"198 -29 LINE SMOOTH",
"198 -40 OFFCURVE",
"189 -49 OFFCURVE",
"178 -49 CURVE SMOOTH",
"81 -49 LINE SMOOTH",
"70 -49 OFFCURVE",
"61 -58 OFFCURVE",
"61 -69 CURVE SMOOTH",
"60 -109 LINE SMOOTH",
"60 -121 OFFCURVE",
"69 -130 OFFCURVE",
"81 -130 CURVE SMOOTH"
);
}
);
width = 349;
}
);
unicode = 007D;
},
{
glyphname = bracketleft;
lastChange = "2020-12-29 14:13:59 +0000";
layers = (
{
layerId = "A36D14D1-FF07-4574-A62D-30DF65569781";
paths = (
{
closed = 1;
nodes = (
"218 -130 LINE SMOOTH",
"230 -130 OFFCURVE",
"239 -121 OFFCURVE",
"239 -109 CURVE SMOOTH",
"238 -69 LINE SMOOTH",
"238 -58 OFFCURVE",
"229 -49 OFFCURVE",
"218 -49 CURVE SMOOTH",
"121 -49 LINE SMOOTH",
"110 -49 OFFCURVE",
"101 -40 OFFCURVE",
"101 -29 CURVE SMOOTH",
"101 699 LINE SMOOTH",
"101 710 OFFCURVE",
"110 719 OFFCURVE",
"121 719 CURVE SMOOTH",
"207 719 LINE SMOOTH",
"218 719 OFFCURVE",
"227 728 OFFCURVE",
"227 739 CURVE SMOOTH",
"227 780 LINE SMOOTH",
"227 791 OFFCURVE",
"218 800 OFFCURVE",
"207 800 CURVE SMOOTH",
"111 800 LINE SMOOTH",
"82 800 OFFCURVE",
"60 778 OFFCURVE",
"60 749 CURVE SMOOTH",
"60 -79 LINE SMOOTH",
"60 -108 OFFCURVE",
"82 -130 OFFCURVE",
"111 -130 CURVE SMOOTH"
);
}
);
width = 299;
}
);
unicode = 005B;
},
{
glyphname = bracketright;
lastChange = "2020-12-29 14:13:59 +0000";
layers = (
{
layerId = "A36D14D1-FF07-4574-A62D-30DF65569781";
paths = (
{
closed = 1;
nodes = (
"188 -130 LINE SMOOTH",
"217 -130 OFFCURVE",
"239 -108 OFFCURVE",
"239 -79 CURVE SMOOTH",
"239 749 LINE SMOOTH",
"239 778 OFFCURVE",
"217 800 OFFCURVE",
"188 800 CURVE SMOOTH",
"92 800 LINE SMOOTH",
"81 800 OFFCURVE",
"72 791 OFFCURVE",
"72 780 CURVE SMOOTH",
"72 739 LINE SMOOTH",
"72 728 OFFCURVE",
"81 719 OFFCURVE",
"92 719 CURVE SMOOTH",
"178 719 LINE SMOOTH",
"189 719 OFFCURVE",
"198 710 OFFCURVE",
"198 699 CURVE SMOOTH",
"198 -29 LINE SMOOTH",
"198 -40 OFFCURVE",
"189 -49 OFFCURVE",
"178 -49 CURVE SMOOTH",
"81 -49 LINE SMOOTH",
"70 -49 OFFCURVE",
"61 -58 OFFCURVE",
"61 -69 CURVE SMOOTH",
"60 -109 LINE SMOOTH",
"60 -121 OFFCURVE",
"69 -130 OFFCURVE",
"81 -130 CURVE SMOOTH"
);
}
);
width = 299;
}
);
unicode = 005D;
},
{
glyphname = guillemetleft;
lastChange = "2020-12-29 14:14:00 +0000";
layers = (
{
layerId = "A36D14D1-FF07-4574-A62D-30DF65569781";
paths = (
{
closed = 1;
nodes = (
"241 96 LINE",
"137 274 LINE SMOOTH",
"131 284 OFFCURVE",
"137 294 OFFCURVE",
"138 295 CURVE",
"241 456 LINE",
"161 456 LINE",
"66 312 LINE SMOOTH",
"53 292 OFFCURVE",
"64 270 OFFCURVE",
"65 269 CURVE",
"161 96 LINE"
);
},
{
closed = 1;
nodes = (
"391 96 LINE",
"287 274 LINE SMOOTH",
"281 284 OFFCURVE",
"287 294 OFFCURVE",
"288 295 CURVE",
"391 456 LINE",
"311 456 LINE",
"216 312 LINE SMOOTH",
"203 292 OFFCURVE",
"214 270 OFFCURVE",
"215 269 CURVE",
"311 96 LINE"
);
}
);
width = 451;
}
);
unicode = 00AB;
},
{
glyphname = guillemetright;
lastChange = "2020-12-29 14:13:59 +0000";
layers = (
{
layerId = "A36D14D1-FF07-4574-A62D-30DF65569781";
paths = (
{
closed = 1;
nodes = (
"290 96 LINE",
"386 269 LINE",
"387 270 OFFCURVE",
"398 292 OFFCURVE",
"385 312 CURVE SMOOTH",
"290 456 LINE",
"210 456 LINE",
"313 295 LINE",
"314 294 OFFCURVE",
"320 284 OFFCURVE",
"314 274 CURVE SMOOTH",
"210 96 LINE"
);
},
{
closed = 1;
nodes = (
"140 96 LINE",
"236 269 LINE",
"237 270 OFFCURVE",
"248 292 OFFCURVE",
"235 312 CURVE SMOOTH",
"140 456 LINE",
"60 456 LINE",
"163 295 LINE",
"164 294 OFFCURVE",
"170 284 OFFCURVE",
"164 274 CURVE SMOOTH",
"60 96 LINE"
);
}
);
width = 451;
}
);
unicode = 00BB;
},
{
glyphname = guilsinglleft;
lastChange = "2020-12-29 14:13:59 +0000";
layers = (
{
layerId = "A36D14D1-FF07-4574-A62D-30DF65569781";
paths = (
{
closed = 1;
nodes = (
"241 96 LINE",
"137 274 LINE SMOOTH",
"131 284 OFFCURVE",
"137 294 OFFCURVE",
"138 295 CURVE",
"241 456 LINE",
"161 456 LINE",
"66 312 LINE SMOOTH",
"53 292 OFFCURVE",
"64 270 OFFCURVE",
"65 269 CURVE",
"161 96 LINE"
);
}
);
width = 301;
}
);
unicode = 2039;
},
{
glyphname = guilsinglright;
lastChange = "2020-12-29 14:13:59 +0000";
layers = (
{
layerId = "A36D14D1-FF07-4574-A62D-30DF65569781";
paths = (
{
closed = 1;
nodes = (
"140 96 LINE",
"236 269 LINE",
"237 270 OFFCURVE",
"248 292 OFFCURVE",
"235 312 CURVE SMOOTH",
"140 456 LINE",
"60 456 LINE",
"163 295 LINE",
"164 294 OFFCURVE",
"170 284 OFFCURVE",
"164 274 CURVE SMOOTH",
"60 96 LINE"
);
}
);
width = 301;
}
);
unicode = 203A;
},
{
glyphname = quotedbl;
lastChange = "2020-12-29 14:14:00 +0000";
layers = (
{
layerId = "A36D14D1-FF07-4574-A62D-30DF65569781";
paths = (
{
closed = 1;
nodes = (
"238 452 LINE SMOOTH",
"252 452 OFFCURVE",
"262 462 OFFCURVE",
"262 476 CURVE SMOOTH",
"262 676 LINE SMOOTH",
"262 690 OFFCURVE",
"252 700 OFFCURVE",
"238 700 CURVE SMOOTH",
"214 700 LINE SMOOTH",
"200 700 OFFCURVE",
"190 690 OFFCURVE",
"190 676 CURVE SMOOTH",
"190 476 LINE SMOOTH",
"190 462 OFFCURVE",
"200 452 OFFCURVE",
"214 452 CURVE SMOOTH"
);
},
{
closed = 1;
nodes = (
"108 452 LINE SMOOTH",
"122 452 OFFCURVE",
"132 462 OFFCURVE",
"132 476 CURVE SMOOTH",
"132 676 LINE SMOOTH",
"132 690 OFFCURVE",
"122 700 OFFCURVE",
"108 700 CURVE SMOOTH",
"84 700 LINE SMOOTH",
"70 700 OFFCURVE",
"60 690 OFFCURVE",
"60 676 CURVE SMOOTH",
"60 476 LINE SMOOTH",
"60 462 OFFCURVE",
"70 452 OFFCURVE",
"84 452 CURVE SMOOTH"
);
}
);
width = 322;
}
);
unicode = 0022;
},
{
glyphname = quotesingle;
lastChange = "2020-12-29 14:13:59 +0000";
layers = (
{
layerId = "A36D14D1-FF07-4574-A62D-30DF65569781";
paths = (
{
closed = 1;
nodes = (
"108 452 LINE SMOOTH",
"122 452 OFFCURVE",
"132 462 OFFCURVE",
"132 476 CURVE SMOOTH",
"132 676 LINE SMOOTH",
"132 690 OFFCURVE",
"122 700 OFFCURVE",
"108 700 CURVE SMOOTH",
"84 700 LINE SMOOTH",
"70 700 OFFCURVE",
"60 690 OFFCURVE",
"60 676 CURVE SMOOTH",
"60 476 LINE SMOOTH",
"60 462 OFFCURVE",
"70 452 OFFCURVE",
"84 452 CURVE SMOOTH"
);
}
);
width = 192;
}
);
unicode = 0027;
},
{
glyphname = at;
lastChange = "2020-12-29 14:14:00 +0000";
layers = (
{
layerId = "A36D14D1-FF07-4574-A62D-30DF65569781";
paths = (
{
closed = 1;
nodes = (
"379 8 OFFCURVE",
"429 23 OFFCURVE",
"458 43 CURVE",
"445 88 LINE",
"418 69 OFFCURVE",
"373 55 OFFCURVE",
"333 55 CURVE SMOOTH",
"176 52 OFFCURVE",
"105 182 OFFCURVE",
"110 358 CURVE SMOOTH",
"113 483 OFFCURVE",
"154 584 OFFCURVE",
"224 635 CURVE SMOOTH",
"259 661 OFFCURVE",
"300 676 OFFCURVE",
"345 677 CURVE SMOOTH",
"498 679 OFFCURVE",
"576 574 OFFCURVE",
"569 377 CURVE SMOOTH",
"568 284 OFFCURVE",
"535 220 OFFCURVE",
"484 219 CURVE SMOOTH",
"450 219 OFFCURVE",
"435 249 OFFCURVE",
"438 307 CURVE SMOOTH",
"453 519 LINE",
"416 551 OFFCURVE",
"390 558 OFFCURVE",
"354 558 CURVE SMOOTH",
"306 557 OFFCURVE",
"259 516 OFFCURVE",
"233 449 CURVE SMOOTH",
"220 416 OFFCURVE",
"213 379 OFFCURVE",
"210 336 CURVE SMOOTH",
"203 233 OFFCURVE",
"239 171 OFFCURVE",
"304 172 CURVE SMOOTH",
"337 174 OFFCURVE",
"370 194 OFFCURVE",
"394 237 CURVE",
"407 196 OFFCURVE",
"434 175 OFFCURVE",
"477 176 CURVE SMOOTH",
"559 178 OFFCURVE",
"610 254 OFFCURVE",
"614 377 CURVE SMOOTH",
"617 521 OFFCURVE",
"575 630 OFFCURVE",
"493 686 CURVE SMOOTH",
"451 714 OFFCURVE",
"403 727 OFFCURVE",
"346 726 CURVE SMOOTH",
"237 724 OFFCURVE",
"148 659 OFFCURVE",
"99 546 CURVE SMOOTH",
"75 490 OFFCURVE",
"62 427 OFFCURVE",
"60 358 CURVE SMOOTH",
"56 151 OFFCURVE",
"148 4 OFFCURVE",
"332 7 CURVE SMOOTH"
);
},
{
closed = 1;
nodes = (
"278 226 OFFCURVE",
"258 266 OFFCURVE",
"264 338 CURVE SMOOTH",
"271 442 OFFCURVE",
"307 507 OFFCURVE",
"360 508 CURVE SMOOTH",
"375 509 OFFCURVE",
"388 505 OFFCURVE",
"400 499 CURVE",
"388 303 LINE",
"372 255 OFFCURVE",
"346 227 OFFCURVE",
"318 226 CURVE SMOOTH"
);
}
);
width = 674;
}
);
unicode = 0040;
},
{
glyphname = ampersand;
lastChange = "2020-12-29 14:14:00 +0000";
layers = (
{
layerId = "A36D14D1-FF07-4574-A62D-30DF65569781";
paths = (
{
closed = 1;
nodes = (
"325 0 OFFCURVE",
"387 22 OFFCURVE",
"429 63 CURVE",
"471 10 LINE",
"568 10 LINE",
"477 125 LINE",
"514 177 OFFCURVE",
"532 243 OFFCURVE",
"532 321 CURVE",
"494 321 LINE",
"494 241 OFFCURVE",
"467 198 OFFCURVE",
"447 158 CURVE",
"287 372 LINE",
"334 409 LINE SMOOTH",
"398 460 OFFCURVE",
"421 496 OFFCURVE",
"421 550 CURVE SMOOTH",
"421 633 OFFCURVE",
"358 693 OFFCURVE",
"270 693 CURVE SMOOTH",
"172 693 OFFCURVE",
"112 632 OFFCURVE",
"112 529 CURVE SMOOTH",
"112 484 OFFCURVE",
"127 447 OFFCURVE",
"183 375 CURVE",
"87 303 OFFCURVE",
"60 255 OFFCURVE",
"60 191 CURVE SMOOTH",
"60 76 OFFCURVE",
"141 0 OFFCURVE",
"265 0 CURVE SMOOTH"
);
},
{
closed = 1;
nodes = (
"176 50 OFFCURVE",
"121 106 OFFCURVE",
"121 190 CURVE SMOOTH",
"121 237 OFFCURVE",
"147 284 OFFCURVE",
"205 326 CURVE SMOOTH",
"223 339 LINE",
"401 110 LINE",
"361 71 OFFCURVE",
"315 50 OFFCURVE",
"266 50 CURVE SMOOTH"
);
},
{
closed = 1;
nodes = (
"204 464 OFFCURVE",
"180 509 OFFCURVE",
"180 542 CURVE SMOOTH",
"180 604 OFFCURVE",
"215 648 OFFCURVE",
"270 648 CURVE SMOOTH",
"321 648 OFFCURVE",
"359 612 OFFCURVE",
"359 565 CURVE SMOOTH",
"359 519 OFFCURVE",
"350 492 OFFCURVE",
"304 458 CURVE SMOOTH",
"245 414 LINE"
);
}
);
width = 628;
}
);
unicode = 0026;
},
{
glyphname = paragraph;
lastChange = "2020-12-29 14:14:00 +0000";
layers = (
{
layerId = "A36D14D1-FF07-4574-A62D-30DF65569781";
paths = (
{
closed = 1;
nodes = (
"215 -60 LINE SMOOTH",
"226 -60 OFFCURVE",
"235 -51 OFFCURVE",
"235 -40 CURVE SMOOTH",
"235 680 LINE SMOOTH",
"235 691 OFFCURVE",
"219 700 OFFCURVE",
"193 700 CURVE SMOOTH",
"188.357 700 OFFCURVE",
"183.999 699.674 OFFCURVE",
"180 698.997 CURVE",
"114 699 OFFCURVE",
"60 636 OFFCURVE",
"60 558 CURVE SMOOTH",
"60 489.949 OFFCURVE",
"100.069 433.771 OFFCURVE",
"154 419.505 CURVE",
"154 -40 LINE SMOOTH",
"154 -51 OFFCURVE",
"163 -60 OFFCURVE",
"174 -60 CURVE SMOOTH"
);
},
{
closed = 1;
nodes = (
"337 -60 LINE SMOOTH",
"348 -60 OFFCURVE",
"357 -51 OFFCURVE",
"357 -40 CURVE SMOOTH",
"357 680 LINE SMOOTH",
"357 691 OFFCURVE",
"341 700 OFFCURVE",
"315 700 CURVE SMOOTH",
"292 700 OFFCURVE",
"276 692 OFFCURVE",
"276 673 CURVE SMOOTH",
"276 -40 LINE SMOOTH",
"276 -51 OFFCURVE",
"285 -60 OFFCURVE",
"296 -60 CURVE SMOOTH"
);
}
);
width = 417;
}
);
unicode = 00B6;
},
{
glyphname = section;
lastChange = "2020-12-29 14:14:00 +0000";
layers = (
{
layerId = "A36D14D1-FF07-4574-A62D-30DF65569781";
paths = (
{
closed = 1;
nodes = (
"340 -46 OFFCURVE",
"389 5 OFFCURVE",
"389 78 CURVE SMOOTH",
"389 130 OFFCURVE",
"362 174 OFFCURVE",
"312 193 CURVE",
"364 215 OFFCURVE",
"390 259 OFFCURVE",
"390 315 CURVE SMOOTH",
"390 377 OFFCURVE",
"359 437 OFFCURVE",
"210 477 CURVE SMOOTH",
"164 489 OFFCURVE",
"123 516 OFFCURVE",
"121 561 CURVE SMOOTH",
"121 626 OFFCURVE",
"160 654 OFFCURVE",
"211 654 CURVE SMOOTH",
"235 654 OFFCURVE",
"269 648 OFFCURVE",
"287 618 CURVE",
"349 619 LINE",
"328 665 OFFCURVE",
"280 695 OFFCURVE",
"211 694 CURVE SMOOTH",
"115 694 OFFCURVE",
"60 636 OFFCURVE",
"60 561 CURVE SMOOTH",
"60 502 OFFCURVE",
"94 457 OFFCURVE",
"153 439 CURVE",
"101 417 OFFCURVE",
"72 371 OFFCURVE",
"72 315 CURVE SMOOTH",
"72 254 OFFCURVE",
"106 207 OFFCURVE",
"168 188 CURVE SMOOTH",
"278 154 OFFCURVE",
"329 155 OFFCURVE",
"331 77 CURVE",
"328 17 OFFCURVE",
"281 -3 OFFCURVE",
"244 -2 CURVE SMOOTH",
"216 -1 OFFCURVE",
"192 11 OFFCURVE",
"176 31 CURVE",
"111 27 LINE",
"131 -18 OFFCURVE",
"179 -46 OFFCURVE",
"246 -46 CURVE SMOOTH"
);
},
{
closed = 1;
nodes = (
"180 228 OFFCURVE",
"139 267 OFFCURVE",
"137 315 CURVE SMOOTH",
"137 382 OFFCURVE",
"178 413 OFFCURVE",
"231 413 CURVE SMOOTH",
"268 413 OFFCURVE",
"323 401 OFFCURVE",
"325 314 CURVE",
"322 248 OFFCURVE",
"271 226 OFFCURVE",
"230 226 CURVE SMOOTH"
);
}
);
width = 450;
}
);
unicode = 00A7;
},
{
glyphname = copyright;
lastChange = "2020-12-29 14:14:00 +0000";
layers = (
{
layerId = "A36D14D1-FF07-4574-A62D-30DF65569781";
paths = (
{
closed = 1;
nodes = (
"509 49 OFFCURVE",
"637 183 OFFCURVE",
"637 351 CURVE SMOOTH",
"637 519 OFFCURVE",
"509 653 OFFCURVE",
"349 653 CURVE SMOOTH",
"188 653 OFFCURVE",
"60 519 OFFCURVE",
"60 351 CURVE SMOOTH",
"60 183 OFFCURVE",
"188 49 OFFCURVE",
"349 49 CURVE SMOOTH"
);
},
{
closed = 1;
nodes = (
"391 139 OFFCURVE",
"428 157 OFFCURVE",
"457 188 CURVE",
"423 204 LINE",
"403 184 OFFCURVE",
"378 171 OFFCURVE",
"351 171 CURVE SMOOTH",
"279 171 OFFCURVE",
"221 261 OFFCURVE",
"221 355 CURVE SMOOTH",
"221 448 OFFCURVE",
"279 533 OFFCURVE",
"351 533 CURVE SMOOTH",
"377 533 OFFCURVE",
"402 521 OFFCURVE",
"422 502 CURVE",
"463 513 LINE",
"433 549 OFFCURVE",
"394 570 OFFCURVE",
"351 570 CURVE SMOOTH",
"260 570 OFFCURVE",
"185 474 OFFCURVE",
"185 355 CURVE SMOOTH",
"185 235 OFFCURVE",
"260 139 OFFCURVE",
"351 139 CURVE SMOOTH"
);
},
{
closed = 1;
nodes = (
"210 90 OFFCURVE",
"99 206 OFFCURVE",
"99 351 CURVE SMOOTH",
"99 496 OFFCURVE",
"210 612 OFFCURVE",
"349 612 CURVE SMOOTH",
"487 612 OFFCURVE",
"598 496 OFFCURVE",
"598 351 CURVE SMOOTH",
"598 206 OFFCURVE",
"487 90 OFFCURVE",
"349 90 CURVE SMOOTH"
);
}
);
width = 697;
}
);
unicode = 00A9;
},
{
glyphname = registered;
lastChange = "2020-12-29 14:14:00 +0000";
layers = (
{
layerId = "A36D14D1-FF07-4574-A62D-30DF65569781";
paths = (
{
closed = 1;
nodes = (
"334 372 OFFCURVE",
"396 446 OFFCURVE",
"396 543 CURVE SMOOTH",
"396 637 OFFCURVE",
"334 719 OFFCURVE",
"229 716 CURVE",
"122 719 OFFCURVE",
"60 637 OFFCURVE",
"60 543 CURVE SMOOTH",
"60 446 OFFCURVE",
"122 372 OFFCURVE",
"229 372 CURVE SMOOTH"
);
},
{
closed = 1;
nodes = (
"142 401 OFFCURVE",
"88 461 OFFCURVE",
"90 543 CURVE SMOOTH",
"92 617 OFFCURVE",
"142 685 OFFCURVE",
"229 686 CURVE SMOOTH",
"318 687 OFFCURVE",
"366 617 OFFCURVE",
"366 543 CURVE SMOOTH",
"366 461 OFFCURVE",
"318 403 OFFCURVE",
"229 402 CURVE SMOOTH"
);
},
{
closed = 1;
nodes = (
"184 449 LINE SMOOTH",
"187 449 OFFCURVE",
"190 452 OFFCURVE",
"190 455 CURVE SMOOTH",
"190 522 LINE",
"217.61 522 LINE",
"284 450 LINE SMOOTH",
"287 447 OFFCURVE",
"291 447 OFFCURVE",
"294 450 CURVE SMOOTH",
"296 452 OFFCURVE",
"300 456 OFFCURVE",
"293 463 CURVE SMOOTH",
"239.817 522 LINE",
"290 522 LINE SMOOTH",
"294 522 OFFCURVE",
"296 525 OFFCURVE",
"296 529 CURVE SMOOTH",
"296 615 LINE SMOOTH",
"296 617 OFFCURVE",
"295 620 OFFCURVE",
"291 621 CURVE SMOOTH",
"177 644 LINE SMOOTH",
"172 645 OFFCURVE",
"167 644 OFFCURVE",
"167 638 CURVE SMOOTH",
"167 455 LINE SMOOTH",
"167 452 OFFCURVE",
"170 449 OFFCURVE",
"173 449 CURVE SMOOTH"
);
},
{
closed = 1;
nodes = (
"190 614 LINE SMOOTH",
"190 623 OFFCURVE",
"193 627 OFFCURVE",
"197 626 CURVE SMOOTH",
"267 612 LINE SMOOTH",
"271 611 OFFCURVE",
"273 607 OFFCURVE",
"273 603 CURVE SMOOTH",
"273.827 536 LINE",
"190 536 LINE"
);
}
);
width = 456;
}
);
unicode = 00AE;
},
{
glyphname = degree;
lastChange = "2020-12-29 14:14:00 +0000";
layers = (
{
layerId = "A36D14D1-FF07-4574-A62D-30DF65569781";
paths = (
{
closed = 1;
nodes = (
"247 483 OFFCURVE",
"286 529 OFFCURVE",
"286 593 CURVE SMOOTH",
"286 658 OFFCURVE",
"245 708 OFFCURVE",
"173 706 CURVE SMOOTH",
"101 706 OFFCURVE",
"60 658 OFFCURVE",
"60 593 CURVE SMOOTH",
"60 528 OFFCURVE",
"103 483 OFFCURVE",
"174 483 CURVE SMOOTH"
);
},
{
closed = 1;
nodes = (
"137 523 OFFCURVE",
"108 554 OFFCURVE",
"106 593 CURVE SMOOTH",
"106 648 OFFCURVE",
"135 672 OFFCURVE",
"173 672 CURVE SMOOTH",
"199 672 OFFCURVE",
"238 663 OFFCURVE",
"240 593 CURVE",
"238 540 OFFCURVE",
"201 521 OFFCURVE",
"172 521 CURVE SMOOTH"
);
}
);
width = 346;
}
);
unicode = 00B0;
},
{
glyphname = bar;
lastChange = "2020-12-29 14:14:00 +0000";
layers = (
{
layerId = "A36D14D1-FF07-4574-A62D-30DF65569781";
paths = (
{
closed = 1;
nodes = (
"121 -60 LINE SMOOTH",
"132 -60 OFFCURVE",
"141 -51 OFFCURVE",
"141 -40 CURVE SMOOTH",
"141 680 LINE SMOOTH",
"141 691 OFFCURVE",
"125 700 OFFCURVE",
"99 700 CURVE SMOOTH",
"76 700 OFFCURVE",
"60 692 OFFCURVE",
"60 673 CURVE SMOOTH",
"60 -40 LINE SMOOTH",
"60 -51 OFFCURVE",
"69 -60 OFFCURVE",
"80 -60 CURVE SMOOTH"
);
}
);
width = 201;
}
);
unicode = 007C;
},
{
glyphname = brokenbar;
lastChange = "2020-12-29 14:14:00 +0000";
layers = (
{
layerId = "A36D14D1-FF07-4574-A62D-30DF65569781";
paths = (
{
closed = 1;
nodes = (
"121 -100 LINE SMOOTH",
"132 -100 OFFCURVE",
"141 -91 OFFCURVE",
"141 -80 CURVE SMOOTH",
"141 233 LINE SMOOTH",
"141 246 OFFCURVE",
"131 256 OFFCURVE",
"118 256 CURVE SMOOTH",
"84 257 LINE SMOOTH",
"71 257 OFFCURVE",
"60 246 OFFCURVE",
"60 233 CURVE SMOOTH",
"60 -80 LINE SMOOTH",
"60 -91 OFFCURVE",
"69 -100 OFFCURVE",
"80 -100 CURVE SMOOTH"
);
},
{
closed = 1;
nodes = (
"130 376 OFFCURVE",
"141 387 OFFCURVE",
"141 400 CURVE SMOOTH",
"141 680 LINE SMOOTH",
"141 691 OFFCURVE",
"125 700 OFFCURVE",
"99 700 CURVE SMOOTH",
"76 700 OFFCURVE",
"60 692 OFFCURVE",
"60 673 CURVE SMOOTH",
"60 400 LINE SMOOTH",
"60 387 OFFCURVE",
"70 377 OFFCURVE",
"83 377 CURVE SMOOTH",
"117 376 LINE SMOOTH"
);
}
);
width = 201;
}
);
unicode = 00A6;
},
{
glyphname = cent;
lastChange = "2020-12-29 14:14:00 +0000";
layers = (
{
layerId = "A36D14D1-FF07-4574-A62D-30DF65569781";
paths = (
{
closed = 1;
nodes = (
"333 -41 LINE",
"334.207 3.042 LINE",
"397.587 4.306 OFFCURVE",
"456.016 34.102 OFFCURVE",
"502 84 CURVE",
"448 110 LINE",
"415.464 78.421 OFFCURVE",
"377.433 57.831 OFFCURVE",
"335.661 56.116 CURVE",
"351.75 643.372 LINE",
"386.459 638.16 OFFCURVE",
"418.636 620.705 OFFCURVE",
"446 595 CURVE",
"512 613 LINE",
"469.411 664.462 OFFCURVE",
"414.226 697.817 OFFCURVE",
"353.43 704.683 CURVE",
"355 762 LINE",
"287 737 LINE",
"286.022 701.365 LINE",
"157.903 674.072 OFFCURVE",
"60 529.504 OFFCURVE",
"60 355 CURVE SMOOTH",
"60 188.325 OFFCURVE",
"148.401 49.412 OFFCURVE",
"267.128 12.573 CURVE",
"265 -65 LINE"
);
},
{
closed = 1;
nodes = (
"181.543 109.421 OFFCURVE",
"118 229.87 OFFCURVE",
"118 355 CURVE SMOOTH",
"118 486.611 OFFCURVE",
"189.223 607.725 OFFCURVE",
"284.28 637.85 CURVE",
"268.695 69.693 LINE"
);
}
);
width = 572;
}
);
unicode = 00A2;
},
{
glyphname = currency;
lastChange = "2020-12-29 14:14:00 +0000";
layers = (
{
layerId = "A36D14D1-FF07-4574-A62D-30DF65569781";
paths = (
{
closed = 1;
nodes = (
"173 139 LINE",
"207.693 195.515 LINE",
"222.902 191.895 OFFCURVE",
"239.377 190 OFFCURVE",
"257 190 CURVE SMOOTH",
"286.555 190 OFFCURVE",
"312.288 194.926 OFFCURVE",
"334.097 204.021 CURVE",
"366 161 LINE",
"444 168 LINE",
"387.799 243.223 LINE",
"411.107 271.35 OFFCURVE",
"423 309.15 OFFCURVE",
"423 353 CURVE SMOOTH",
"423 406.261 OFFCURVE",
"403.416 453.422 OFFCURVE",
"367.16 483.751 CURVE",
"424 576 LINE",
"345 577 LINE",
"306.447 513.968 LINE",
"291.006 517.738 OFFCURVE",
"274.164 519.514 OFFCURVE",
"256 519 CURVE SMOOTH",
"234.114 519 OFFCURVE",
"214.147 515.931 OFFCURVE",
"196.239 510.232 CURVE",
"145 573 LINE",
"60 575 LINE",
"139.245 477.614 LINE",
"106.573 447.568 OFFCURVE",
"89 403.453 OFFCURVE",
"89 353 CURVE SMOOTH",
"89 297.97 OFFCURVE",
"109.599 252.917 OFFCURVE",
"146.414 224.232 CURVE",
"90 132 LINE"
);
},
{
closed = 1;
nodes = (
"202 249 OFFCURVE",
"159 295 OFFCURVE",
"157 353 CURVE SMOOTH",
"157 433 OFFCURVE",
"200 469 OFFCURVE",
"256 469 CURVE SMOOTH",
"295 469 OFFCURVE",
"353 455 OFFCURVE",
"355 352 CURVE",
"352 273 OFFCURVE",
"298 246 OFFCURVE",
"255 247 CURVE SMOOTH"
);
}
);
width = 504;
}
);
unicode = 00A4;
},
{
glyphname = dollar;
lastChange = "2020-12-29 14:13:59 +0000";
layers = (
{
layerId = "A36D14D1-FF07-4574-A62D-30DF65569781";
paths = (
{
closed = 1;
nodes = (
"238 -73 LINE",
"238 14 LINE",
"317 26 OFFCURVE",
"363 93 OFFCURVE",
"363 197 CURVE SMOOTH",
"363 296 OFFCURVE",
"323 353 OFFCURVE",
"231 395 CURVE SMOOTH",
"164 425 OFFCURVE",
"139 455 OFFCURVE",
"139 520 CURVE SMOOTH",
"139 587 OFFCURVE",
"166 626 OFFCURVE",
"219 626 CURVE SMOOTH",
"267 626 OFFCURVE",
"299 572 OFFCURVE",
"299 486 CURVE",
"359 486 LINE",
"359 611 OFFCURVE",
"316 683 OFFCURVE",
"243 700 CURVE",
"243 800 LINE",
"195 800 LINE",
"195 700 LINE",
"122 687 OFFCURVE",
"78 619 OFFCURVE",
"78 519 CURVE SMOOTH",
"78 421 OFFCURVE",
"119 358 OFFCURVE",
"211 319 CURVE SMOOTH",
"278 287 OFFCURVE",
"302 250 OFFCURVE",
"302 196 CURVE SMOOTH",
"302 128 OFFCURVE",
"268 87 OFFCURVE",
"211 87 CURVE SMOOTH",
"154 87 OFFCURVE",
"121 135 OFFCURVE",
"121 221 CURVE",
"60 221 LINE",
"60 99 OFFCURVE",
"108 23 OFFCURVE",
"189 14 CURVE",
"189 -73 LINE"
);
}
);
width = 423;
}
);
unicode = 0024;
},
{
glyphname = euro;
lastChange = "2020-12-29 14:14:00 +0000";
layers = (
{
layerId = "A36D14D1-FF07-4574-A62D-30DF65569781";
paths = (
{
closed = 1;
nodes = (
"427 3 OFFCURVE",
"487 33 OFFCURVE",
"534 84 CURVE",
"480 110 LINE",
"446 77 OFFCURVE",
"406 56 OFFCURVE",
"362 56 CURVE SMOOTH",
"260.47 56 OFFCURVE",
"175.506 165.944 OFFCURVE",
"154.814 295 CURVE",
"262 295 LINE",
"262 333 LINE",
"150.65 333 LINE",
"150 355 LINE SMOOTH",
"150 371.553 OFFCURVE",
"151.127 387.939 OFFCURVE",
"153.286 404 CURVE",
"264 404 LINE",
"264 443 LINE",
"160.685 443 LINE",
"188.633 556.405 OFFCURVE",
"268.254 645 OFFCURVE",
"362 645 CURVE SMOOTH",
"405 645 OFFCURVE",
"445 626 OFFCURVE",
"478 595 CURVE",
"544 613 LINE",
"496 671 OFFCURVE",
"432 706 OFFCURVE",
"362 706 CURVE SMOOTH",
"236.345 706 OFFCURVE",
"130.603 594.343 OFFCURVE",
"100.553 443 CURVE",
"60 443 LINE",
"60 404 LINE",
"94.609 404 LINE",
"92.889 387.989 OFFCURVE",
"92 371.63 OFFCURVE",
"92 355 CURVE SMOOTH",
"92.516 333 LINE",
"63 333 LINE",
"63 295 LINE",
"95.89 295 LINE",
"117.705 128.776 OFFCURVE",
"228.637 3 OFFCURVE",
"362 3 CURVE SMOOTH"
);
}
);
width = 604;
}
);
unicode = 20AC;
},
{
glyphname = sterling;
lastChange = "2020-12-29 14:14:00 +0000";
layers = (
{
layerId = "A36D14D1-FF07-4574-A62D-30DF65569781";
paths = (
{
closed = 1;
nodes = (
"392 0 LINE SMOOTH",
"406 0 OFFCURVE",
"416 10 OFFCURVE",
"416 24 CURVE SMOOTH",
"416 38 OFFCURVE",
"406 48 OFFCURVE",
"392 48 CURVE SMOOTH",
"143 48 LINE",
"147 98 OFFCURVE",
"200 155 OFFCURVE",
"213 209 CURVE SMOOTH",
"234 293 OFFCURVE",
"232 315 OFFCURVE",
"236 413 CURVE SMOOTH",
"237.617 452 LINE",
"330 452 LINE",
"330 500 LINE",
"239.606 500 LINE",
"244 606 LINE SMOOTH",
"246 656 OFFCURVE",
"290 650 OFFCURVE",
"341 650 CURVE SMOOTH",
"375 650 LINE",
"375 704 LINE",
"274 704 LINE SMOOTH",
"221 704 OFFCURVE",
"177 668 OFFCURVE",
"175 614 CURVE SMOOTH",
"170.183 500 LINE",
"124 500 LINE",
"124 452 LINE",
"168.155 452 LINE",
"166 401 LINE SMOOTH",
"163 326 OFFCURVE",
"171 305 OFFCURVE",
"147 223 CURVE SMOOTH",
"129 162 OFFCURVE",
"71 91 OFFCURVE",
"60 20 CURVE SMOOTH",
"58 9 OFFCURVE",
"69 0 OFFCURVE",
"80 0 CURVE SMOOTH"
);
}
);
width = 476;
}
);
unicode = 00A3;
},
{
glyphname = yen;
lastChange = "2020-12-29 14:14:00 +0000";
layers = (
{
anchors = (
{
name = top;
position = "{331, 626}";
}
);
layerId = "A36D14D1-FF07-4574-A62D-30DF65569781";
paths = (
{
closed = 1;
nodes = (
"355 0 LINE SMOOTH",
"366 0 OFFCURVE",
"375 9 OFFCURVE",
"375 20 CURVE SMOOTH",
"375 123 LINE",
"556 123 LINE",
"556 193 LINE",
"375 193 LINE",
"375 259 LINE",
"396.96 293 LINE",
"556 293 LINE",
"556 363 LINE",
"442.173 363 LINE",
"603 612 LINE SMOOTH",
"620 639 OFFCURVE",
"609 648 OFFCURVE",
"601 656 CURVE SMOOTH",
"592 665 OFFCURVE",
"551 672 OFFCURVE",
"542 657 CURVE SMOOTH",
"359.72 363 LINE",
"310.657 363 LINE",
"130 655 LINE SMOOTH",
"121 670 OFFCURVE",
"80 663 OFFCURVE",
"71 654 CURVE SMOOTH",
"63 645 OFFCURVE",
"52 637 OFFCURVE",
"69 610 CURVE SMOOTH",
"228.491 363 LINE",
"120 363 LINE",
"120 293 LINE",
"273.691 293 LINE",
"294 261.549 LINE",
"294 193 LINE",
"120 193 LINE",
"120 123 LINE",
"294 123 LINE",
"294 20 LINE SMOOTH",
"294 9 OFFCURVE",
"303 0 OFFCURVE",
"314 0 CURVE SMOOTH"
);
}
);
width = 672;
}
);
unicode = 00A5;
},
{
glyphname = plus;
lastChange = "2020-12-29 14:13:59 +0000";
layers = (
{
layerId = "A36D14D1-FF07-4574-A62D-30DF65569781";
paths = (
{
closed = 1;
nodes = (
"304 20 LINE",
"304 252 LINE",
"459 252 LINE",
"459 316 LINE",
"304 316 LINE",
"304 528 LINE",
"229 528 LINE",
"229 316 LINE",
"60 316 LINE",
"60 252 LINE",
"229 252 LINE",
"229 20 LINE"
);
}
);
width = 519;
}
);
unicode = 002B;
},
{
glyphname = minus;
lastChange = "2020-12-29 14:13:59 +0000";
layers = (
{
layerId = "A36D14D1-FF07-4574-A62D-30DF65569781";
paths = (
{
closed = 1;
nodes = (
"497 241 LINE",
"497 317 LINE",
"60 317 LINE",
"60 241 LINE"
);
}
);
width = 557;
}
);
unicode = 2212;
},
{
glyphname = multiply;
lastChange = "2020-12-29 14:13:59 +0000";
layers = (
{
layerId = "A36D14D1-FF07-4574-A62D-30DF65569781";
paths = (
{
closed = 1;
nodes = (
"430 137 LINE",
"295.514 271.486 LINE",
"441 394 LINE",
"402 441 LINE",
"252.171 314.829 LINE",
"114 453 LINE",
"71 410 LINE",
"205.486 275.514 LINE",
"60 153 LINE",
"99 106 LINE",
"248.829 232.171 LINE",
"387 94 LINE"
);
}
);
width = 501;
}
);
unicode = 00D7;
},
{
glyphname = divide;
lastChange = "2020-12-29 14:13:59 +0000";
layers = (
{
layerId = "A36D14D1-FF07-4574-A62D-30DF65569781";
paths = (
{
closed = 1;
nodes = (
"536 241 LINE",
"536 307 LINE",
"60 307 LINE",
"60 241 LINE"
);
}
);
width = 596;
}
);
unicode = 00F7;
},
{
glyphname = equal;
lastChange = "2020-12-29 14:14:00 +0000";
layers = (
{
layerId = "A36D14D1-FF07-4574-A62D-30DF65569781";
paths = (
{
closed = 1;
nodes = (
"473 343 LINE SMOOTH",
"486 343 OFFCURVE",
"496 353 OFFCURVE",
"496 366 CURVE SMOOTH",
"496 390 LINE SMOOTH",
"496 403 OFFCURVE",
"486 413 OFFCURVE",
"473 413 CURVE SMOOTH",
"83 413 LINE SMOOTH",
"70 413 OFFCURVE",
"60 403 OFFCURVE",
"60 390 CURVE SMOOTH",
"60 366 LINE SMOOTH",
"60 353 OFFCURVE",
"70 343 OFFCURVE",
"83 343 CURVE SMOOTH"
);
},
{
closed = 1;
nodes = (
"473 173 LINE SMOOTH",
"486 173 OFFCURVE",
"496 183 OFFCURVE",
"496 196 CURVE SMOOTH",
"496 220 LINE SMOOTH",
"496 233 OFFCURVE",
"486 243 OFFCURVE",
"473 243 CURVE SMOOTH",
"83 243 LINE SMOOTH",
"70 243 OFFCURVE",
"60 233 OFFCURVE",
"60 220 CURVE SMOOTH",
"60 196 LINE SMOOTH",
"60 183 OFFCURVE",
"70 173 OFFCURVE",
"83 173 CURVE SMOOTH"
);
}
);
width = 556;
}
);
unicode = 003D;
},
{
glyphname = notequal;
lastChange = "2020-12-29 14:13:59 +0000";
layers = (
{
components = (
{
name = equal;
}
);
layerId = "A36D14D1-FF07-4574-A62D-30DF65569781";
paths = (
{
closed = 1;
nodes = (
"172 56.492 LINE",
"468 500.398 LINE",
"395 500.398 LINE",
"100 56.492 LINE"
);
}
);
width = 546;
}
);
unicode = 2260;
},
{
glyphname = plusminus;
lastChange = "2020-12-29 14:14:00 +0000";
layers = (
{
layerId = "A36D14D1-FF07-4574-A62D-30DF65569781";
paths = (
{
closed = 1;
nodes = (
"291 177 LINE SMOOTH",
"302 177 OFFCURVE",
"311 180 OFFCURVE",
"311 184 CURVE SMOOTH",
"311 313 LINE",
"473 313 LINE SMOOTH",
"486 313 OFFCURVE",
"496 323 OFFCURVE",
"496 336 CURVE SMOOTH",
"496 360 LINE SMOOTH",
"496 373 OFFCURVE",
"486 383 OFFCURVE",
"473 383 CURVE SMOOTH",
"311 383 LINE",
"311 493 LINE SMOOTH",
"311 497 OFFCURVE",
"295 500 OFFCURVE",
"269 500 CURVE SMOOTH",
"246 500 OFFCURVE",
"230 497 OFFCURVE",
"230 491 CURVE SMOOTH",
"230 383 LINE",
"83 383 LINE SMOOTH",
"70 383 OFFCURVE",
"60 373 OFFCURVE",
"60 360 CURVE SMOOTH",
"60 336 LINE SMOOTH",
"60 323 OFFCURVE",
"70 313 OFFCURVE",
"83 313 CURVE SMOOTH",
"230 313 LINE",
"230 184 LINE SMOOTH",
"230 180 OFFCURVE",
"239 177 OFFCURVE",
"250 177 CURVE SMOOTH"
);
},
{
closed = 1;
nodes = (
"473 43 LINE SMOOTH",
"486 43 OFFCURVE",
"496 53 OFFCURVE",
"496 66 CURVE SMOOTH",
"496 90 LINE SMOOTH",
"496 103 OFFCURVE",
"486 113 OFFCURVE",
"473 113 CURVE SMOOTH",
"83 113 LINE SMOOTH",
"70 113 OFFCURVE",
"60 103 OFFCURVE",
"60 90 CURVE SMOOTH",
"60 66 LINE SMOOTH",
"60 53 OFFCURVE",
"70 43 OFFCURVE",
"83 43 CURVE SMOOTH"
);
}
);
width = 556;
}
);
unicode = 00B1;
},
{
glyphname = asciitilde;
lastChange = "2020-12-29 14:13:59 +0000";
layers = (
{
layerId = "A36D14D1-FF07-4574-A62D-30DF65569781";
paths = (
{
closed = 1;
nodes = (
"547 265 LINE",
"547 339 LINE",
"413 266 LINE SMOOTH",
"405 262 OFFCURVE",
"396 263 OFFCURVE",
"389 268 CURVE SMOOTH",
"197 418 LINE SMOOTH",
"188 425 OFFCURVE",
"178 425 OFFCURVE",
"170 419 CURVE SMOOTH",
"60 339 LINE",
"60 265 LINE",
"184 346 LINE SMOOTH",
"192 352 OFFCURVE",
"203 352 OFFCURVE",
"211 345 CURVE SMOOTH",
"394 195 LINE SMOOTH",
"401 189 OFFCURVE",
"411 187 OFFCURVE",
"419 192 CURVE SMOOTH"
);
}
);
width = 607;
}
);
unicode = 007E;
},
{
glyphname = logicalnot;
lastChange = "2020-12-29 14:14:00 +0000";
layers = (
{
layerId = "A36D14D1-FF07-4574-A62D-30DF65569781";
paths = (
{
closed = 1;
nodes = (
"476 -1 LINE SMOOTH",
"487 -1 OFFCURVE",
"496 2 OFFCURVE",
"496 6 CURVE SMOOTH",
"496 225 LINE",
"495.094 226.6 LINE",
"492.355 236.235 OFFCURVE",
"483.692 243 OFFCURVE",
"473 243 CURVE SMOOTH",
"83 243 LINE SMOOTH",
"70 243 OFFCURVE",
"60 233 OFFCURVE",
"60 220 CURVE SMOOTH",
"60 196 LINE SMOOTH",
"60 183 OFFCURVE",
"70 173 OFFCURVE",
"83 173 CURVE SMOOTH",
"415 173 LINE",
"415 6 LINE SMOOTH",
"415 2 OFFCURVE",
"424 -1 OFFCURVE",
"435 -1 CURVE SMOOTH"
);
}
);
width = 556;
}
);
unicode = 00AC;
},
{
glyphname = asciicircum;
lastChange = "2020-12-29 14:14:00 +0000";
layers = (
{
layerId = "A36D14D1-FF07-4574-A62D-30DF65569781";
paths = (
{
closed = 1;
nodes = (
"102 458 OFFCURVE",
"117 463 OFFCURVE",
"124 474 CURVE SMOOTH",
"208 599 LINE",
"286 474 LINE SMOOTH",
"294 462 OFFCURVE",
"307 459 OFFCURVE",
"320 467 CURVE SMOOTH",
"340 479 LINE SMOOTH",
"352 486 OFFCURVE",
"355 500 OFFCURVE",
"348 512 CURVE SMOOTH",
"242 682 LINE SMOOTH",
"234 694 OFFCURVE",
"224 701 OFFCURVE",
"209 701 CURVE SMOOTH",
"195 701 OFFCURVE",
"183 690 OFFCURVE",
"176 680 CURVE SMOOTH",
"65 514 LINE SMOOTH",
"57 503 OFFCURVE",
"59 490 OFFCURVE",
"71 481 CURVE SMOOTH",
"90 467 LINE SMOOTH"
);
}
);
width = 412;
}
);
unicode = 005E;
},
{
glyphname = micro;
lastChange = "2020-12-29 14:14:00 +0000";
layers = (
{
anchors = (
{
name = top;
position = "{254, 499}";
}
);
layerId = "A36D14D1-FF07-4574-A62D-30DF65569781";
paths = (
{
closed = 1;
nodes = (
"99 -177 OFFCURVE",
"109 -167 OFFCURVE",
"109 -153 CURVE SMOOTH",
"109 57.524 LINE",
"141.468 25.893 OFFCURVE",
"191.457 -3.16 OFFCURVE",
"263 -9 CURVE SMOOTH",
"325.962 -14.247 OFFCURVE",
"377.362 10.514 OFFCURVE",
"412 46.648 CURVE",
"412 24 LINE SMOOTH",
"412 11 OFFCURVE",
"422 1 OFFCURVE",
"435 1 CURVE SMOOTH",
"502 1 LINE SMOOTH",
"516 1 OFFCURVE",
"526 11 OFFCURVE",
"526 25 CURVE SMOOTH",
"526 39 OFFCURVE",
"516 49 OFFCURVE",
"502 49 CURVE SMOOTH",
"460 49 LINE",
"460 143.205 LINE",
"460.663 148.532 OFFCURVE",
"461 153.809 OFFCURVE",
"461 159 CURVE SMOOTH",
"461 480 LINE SMOOTH",
"461 491 OFFCURVE",
"452 500 OFFCURVE",
"441 500 CURVE SMOOTH",
"400 500 LINE SMOOTH",
"389 500 OFFCURVE",
"380 491 OFFCURVE",
"380 480 CURVE SMOOTH",
"380 146 LINE SMOOTH",
"380 93 OFFCURVE",
"327 56 OFFCURVE",
"247 56 CURVE SMOOTH",
"196 56 OFFCURVE",
"141 92 OFFCURVE",
"141 137 CURVE SMOOTH",
"141 480 LINE SMOOTH",
"141 491 OFFCURVE",
"132 500 OFFCURVE",
"121 500 CURVE SMOOTH",
"80 500 LINE SMOOTH",
"69 500 OFFCURVE",
"60 491 OFFCURVE",
"60 480 CURVE SMOOTH",
"60 142 LINE",
"61 133.997 LINE",
"61 -153 LINE SMOOTH",
"61 -167 OFFCURVE",
"71 -177 OFFCURVE",
"85 -177 CURVE SMOOTH"
);
}
);
width = 586;
}
);
unicode = 00B5;
},
{
glyphname = percent;
lastChange = "2020-12-29 14:14:00 +0000";
layers = (
{
components = (
{
name = _diagonal.long;
transform = "{-0.99619, -0.08716, -0.08716, 0.99619, 639, 25}";
}
);
layerId = "A36D14D1-FF07-4574-A62D-30DF65569781";
paths = (
{
closed = 1;
nodes = (
"251 382 OFFCURVE",
"307 439 OFFCURVE",
"307 508 CURVE SMOOTH",
"307 577 OFFCURVE",
"251 634 OFFCURVE",
"183 634 CURVE SMOOTH",
"115 634 OFFCURVE",
"60 577 OFFCURVE",
"60 508 CURVE SMOOTH",
"60 439 OFFCURVE",
"115 382 OFFCURVE",
"183 382 CURVE SMOOTH"
);
},
{
closed = 1;
nodes = (
"514 74 OFFCURVE",
"564 126 OFFCURVE",
"564 188 CURVE SMOOTH",
"564 251 OFFCURVE",
"514 303 OFFCURVE",
"451 303 CURVE SMOOTH",
"390 303 OFFCURVE",
"339 251 OFFCURVE",
"339 188 CURVE SMOOTH",
"339 126 OFFCURVE",
"390 74 OFFCURVE",
"451 74 CURVE SMOOTH"
);
},
{
closed = 1;
nodes = (
"422 135 OFFCURVE",
"399 159 OFFCURVE",
"399 188 CURVE SMOOTH",
"399 218 OFFCURVE",
"422 242 OFFCURVE",
"451 242 CURVE SMOOTH",
"482 242 OFFCURVE",
"504 218 OFFCURVE",
"504 188 CURVE SMOOTH",
"504 159 OFFCURVE",
"482 135 OFFCURVE",
"451 135 CURVE SMOOTH"
);
},
{
closed = 1;
nodes = (
"150 450 OFFCURVE",
"125 476 OFFCURVE",
"125 508 CURVE SMOOTH",
"125 541 OFFCURVE",
"150 567 OFFCURVE",
"183 567 CURVE SMOOTH",
"216 567 OFFCURVE",
"241 541 OFFCURVE",
"241 508 CURVE SMOOTH",
"241 476 OFFCURVE",
"216 450 OFFCURVE",
"183 450 CURVE SMOOTH"
);
}
);
width = 624;
}
);
unicode = 0025;
},
{
glyphname = dieresis;
lastChange = "2020-12-29 14:14:00 +0000";
layers = (
{
anchors = (
{
name = _top;
position = "{191, 502}";
}
);
layerId = "A36D14D1-FF07-4574-A62D-30DF65569781";
paths = (
{
closed = 1;
nodes = (
"283 661 LINE SMOOTH",
"299 661 OFFCURVE",
"310 672 OFFCURVE",
"310 688 CURVE SMOOTH",
"310 739 LINE SMOOTH",
"310 755 OFFCURVE",
"299 766 OFFCURVE",
"283 766 CURVE SMOOTH",
"256 766 LINE SMOOTH",
"240 766 OFFCURVE",
"229 755 OFFCURVE",
"229 739 CURVE SMOOTH",
"229 688 LINE SMOOTH",
"229 672 OFFCURVE",
"240 661 OFFCURVE",
"256 661 CURVE SMOOTH"
);
},
{
closed = 1;
nodes = (
"114 661 LINE SMOOTH",
"130 661 OFFCURVE",
"141 672 OFFCURVE",
"141 688 CURVE SMOOTH",
"141 739 LINE SMOOTH",
"141 755 OFFCURVE",
"130 766 OFFCURVE",
"114 766 CURVE SMOOTH",
"87 766 LINE SMOOTH",
"71 766 OFFCURVE",
"60 755 OFFCURVE",
"60 739 CURVE SMOOTH",
"60 688 LINE SMOOTH",
"60 672 OFFCURVE",
"71 661 OFFCURVE",
"87 661 CURVE SMOOTH"
);
}
);
width = 370;
}
);
unicode = 00A8;
},
{
glyphname = grave;
lastChange = "2020-12-29 14:13:59 +0000";
layers = (
{
anchors = (
{
name = _top;
position = "{213, 500}";
}
);
layerId = "A36D14D1-FF07-4574-A62D-30DF65569781";
paths = (
{
closed = 1;
nodes = (
"214 624 LINE SMOOTH",
"223 632 OFFCURVE",
"224 643 OFFCURVE",
"217 652 CURVE SMOOTH",
"111 778 LINE",
"103 786 OFFCURVE",
"92 788 OFFCURVE",
"83 781 CURVE SMOOTH",
"68 768 LINE SMOOTH",
"59 760 OFFCURVE",
"58 749 OFFCURVE",
"65 740 CURVE SMOOTH",
"171 614 LINE",
"179 606 OFFCURVE",
"190 604 OFFCURVE",
"199 611 CURVE SMOOTH"
);
}
);
width = 282;
}
);
unicode = 0060;
},
{
glyphname = acute;
lastChange = "2020-12-29 14:13:59 +0000";
layers = (
{
anchors = (
{
name = _top;
position = "{81, 509}";
}
);
layerId = "A36D14D1-FF07-4574-A62D-30DF65569781";
paths = (
{
closed = 1;
nodes = (
"92 604 OFFCURVE",
"103 606 OFFCURVE",
"111 614 CURVE",
"217 740 LINE SMOOTH",
"224 749 OFFCURVE",
"223 760 OFFCURVE",
"214 768 CURVE SMOOTH",
"199 781 LINE SMOOTH",
"190 788 OFFCURVE",
"179 786 OFFCURVE",
"171 778 CURVE",
"65 652 LINE SMOOTH",
"58 643 OFFCURVE",
"59 632 OFFCURVE",
"68 624 CURVE SMOOTH",
"83 611 LINE SMOOTH"
);
}
);
width = 282;
}
);
unicode = 00B4;
},
{
glyphname = circumflex;
lastChange = "2020-12-29 14:14:00 +0000";
layers = (
{
anchors = (
{
name = _top;
position = "{173, 506}";
}
);
layerId = "A36D14D1-FF07-4574-A62D-30DF65569781";
paths = (
{
closed = 1;
nodes = (
"94 570 OFFCURVE",
"107 590 OFFCURVE",
"113 599 CURVE SMOOTH",
"182 702 LINE",
"246 599 LINE SMOOTH",
"252 589 OFFCURVE",
"263 570 OFFCURVE",
"274 577 CURVE SMOOTH",
"290 587 LINE SMOOTH",
"300 593 OFFCURVE",
"303 604 OFFCURVE",
"297 614 CURVE SMOOTH",
"210 754 LINE SMOOTH",
"204 764 OFFCURVE",
"195 770 OFFCURVE",
"182 770 CURVE SMOOTH",
"171 770 OFFCURVE",
"161 761 OFFCURVE",
"155 753 CURVE SMOOTH",
"64 616 LINE SMOOTH",
"58 607 OFFCURVE",
"59 596 OFFCURVE",
"69 589 CURVE SMOOTH",
"85 577 LINE SMOOTH"
);
}
);
width = 360;
}
);
unicode = 02C6;
},
{
glyphname = uni02C9;
lastChange = "2020-12-29 14:14:00 +0000";
layers = (
{
layerId = "A36D14D1-FF07-4574-A62D-30DF65569781";
paths = (
{
closed = 1;
nodes = (
"401 627 LINE",
"401 682 LINE",
"60 682 LINE",
"60 627 LINE"
);
}
);
userData = {
assembly = "PUSHW[ ]	/* 1 value pushed */
20 
CALL[ ]	/* CallFunction */
SVTCA[0]	/* SetFreedomAndProjectionVectorToAxis */
PUSHW[ ]	/* 4 values pushed */
1 2 2 24 
CALL[ ]	/* CallFunction */
IUP[0]	/* InterpolateUntPts */
IUP[1]	/* InterpolateUntPts */";
};
width = 461;
}
);
note = uni02C9;
unicode = 02C9;
},
{
glyphname = uni02CA;
lastChange = "2020-12-29 14:14:00 +0000";
layers = (
{
layerId = "A36D14D1-FF07-4574-A62D-30DF65569781";
paths = (
{
closed = 1;
nodes = (
"128 592 LINE",
"258 733 LINE",
"150 733 LINE",
"60 592 LINE"
);
}
);
userData = {
assembly = "PUSHW[ ]	/* 1 value pushed */
20 
CALL[ ]	/* CallFunction */
SVTCA[0]	/* SetFreedomAndProjectionVectorToAxis */
PUSHW[ ]	/* 1 value pushed */
1 
MDAP[1]	/* MoveDirectAbsPt */
PUSHW[ ]	/* 1 value pushed */
1 
RCVT[ ]	/* ReadCVT */
IF[ ]	/* If */
PUSHW[ ]	/* 1 value pushed */
0 
MDAP[1]	/* MoveDirectAbsPt */
ELSE[ ]	/* Else */
PUSHW[ ]	/* 2 values pushed */
0 10 
MIAP[0]	/* MoveIndirectAbsPt */
EIF[ ]	/* EndIf */
IUP[0]	/* InterpolateUntPts */
IUP[1]	/* InterpolateUntPts */";
};
width = 318;
}
);
note = uni02CA;
unicode = 02CA;
},
{
glyphname = uni02CB;
lastChange = "2020-12-29 14:14:00 +0000";
layers = (
{
layerId = "A36D14D1-FF07-4574-A62D-30DF65569781";
paths = (
{
closed = 1;
nodes = (
"258 592 LINE",
"169 733 LINE",
"60 733 LINE",
"191 592 LINE"
);
}
);
userData = {
assembly = "PUSHW[ ]	/* 1 value pushed */
20 
CALL[ ]	/* CallFunction */
SVTCA[0]	/* SetFreedomAndProjectionVectorToAxis */
PUSHW[ ]	/* 1 value pushed */
0 
MDAP[1]	/* MoveDirectAbsPt */
PUSHW[ ]	/* 1 value pushed */
1 
RCVT[ ]	/* ReadCVT */
IF[ ]	/* If */
PUSHW[ ]	/* 1 value pushed */
2 
MDAP[1]	/* MoveDirectAbsPt */
ELSE[ ]	/* Else */
PUSHW[ ]	/* 2 values pushed */
2 10 
MIAP[0]	/* MoveIndirectAbsPt */
EIF[ ]	/* EndIf */
IUP[0]	/* InterpolateUntPts */
IUP[1]	/* InterpolateUntPts */";
};
width = 318;
}
);
note = uni02CB;
unicode = 02CB;
},
{
glyphname = ring;
lastChange = "2020-12-29 14:14:00 +0000";
layers = (
{
anchors = (
{
name = _top;
position = "{158, 505}";
}
);
layerId = "A36D14D1-FF07-4574-A62D-30DF65569781";
paths = (
{
closed = 1;
nodes = (
"203 617 OFFCURVE",
"245 659 OFFCURVE",
"245 710 CURVE SMOOTH",
"245 761 OFFCURVE",
"203 803 OFFCURVE",
"152 803 CURVE SMOOTH",
"103 803 OFFCURVE",
"60 761 OFFCURVE",
"60 710 CURVE SMOOTH",
"60 659 OFFCURVE",
"103 617 OFFCURVE",
"152 617 CURVE SMOOTH"
);
},
{
closed = 1;
nodes = (
"120 654 OFFCURVE",
"96 678 OFFCURVE",
"96 710 CURVE SMOOTH",
"96 742 OFFCURVE",
"120 766 OFFCURVE",
"152 766 CURVE SMOOTH",
"184 766 OFFCURVE",
"208 742 OFFCURVE",
"208 710 CURVE SMOOTH",
"208 678 OFFCURVE",
"184 654 OFFCURVE",
"152 654 CURVE SMOOTH"
);
}
);
width = 305;
}
);
unicode = 02DA;
},
{
glyphname = tilde;
lastChange = "2020-12-29 14:13:59 +0000";
layers = (
{
anchors = (
{
name = _top;
position = "{4, 505}";
}
);
layerId = "A36D14D1-FF07-4574-A62D-30DF65569781";
paths = (
{
closed = 1;
nodes = (
"-146 604 OFFCURVE",
"-118 603 OFFCURVE",
"-100 631 CURVE SMOOTH",
"-85 652 LINE SMOOTH",
"-78 663 OFFCURVE",
"-66 668 OFFCURVE",
"-48 663 CURVE SMOOTH",
"55 634 LINE SMOOTH",
"78 628 OFFCURVE",
"101 631 OFFCURVE",
"109 644 CURVE SMOOTH",
"149 707 LINE SMOOTH",
"153 713 OFFCURVE",
"159 736 OFFCURVE",
"148 745 CURVE SMOOTH",
"137 753 OFFCURVE",
"117 744 OFFCURVE",
"98 718 CURVE SMOOTH",
"78 690 LINE SMOOTH",
"72 682 OFFCURVE",
"64 683 OFFCURVE",
"49 686 CURVE SMOOTH",
"-72 717 LINE SMOOTH",
"-80 719 OFFCURVE",
"-92 717 OFFCURVE",
"-102 705 CURVE SMOOTH",
"-147 648 LINE",
"-152 640 OFFCURVE",
"-156 631 OFFCURVE",
"-152 622 CURVE SMOOTH"
);
}
);
width = 0;
}
);
unicode = 02DC;
},
{
glyphname = macron;
lastChange = "2020-12-29 14:14:00 +0000";
layers = (
{
anchors = (
{
name = _top;
position = "{224, 499}";
}
);
layerId = "A36D14D1-FF07-4574-A62D-30DF65569781";
paths = (
{
closed = 1;
nodes = (
"338 672 LINE SMOOTH",
"352 672 OFFCURVE",
"362 682 OFFCURVE",
"362 696 CURVE SMOOTH",
"362 711 LINE SMOOTH",
"362 725 OFFCURVE",
"352 735 OFFCURVE",
"338 735 CURVE SMOOTH",
"84 735 LINE SMOOTH",
"70 735 OFFCURVE",
"60 725 OFFCURVE",
"60 711 CURVE SMOOTH",
"60 696 LINE SMOOTH",
"60 682 OFFCURVE",
"70 672 OFFCURVE",
"84 672 CURVE SMOOTH"
);
}
);
width = 422;
}
);
unicode = 00AF;
},
{
glyphname = cedilla;
lastChange = "2020-12-29 14:14:00 +0000";
layers = (
{
layerId = "A36D14D1-FF07-4574-A62D-30DF65569781";
paths = (
{
closed = 1;
nodes = (
"75 -196 LINE SMOOTH",
"126 -192 OFFCURVE",
"193 -169 OFFCURVE",
"193 -120 CURVE SMOOTH",
"193 -71 OFFCURVE",
"149 -62 OFFCURVE",
"141 -55 CURVE",
"141 0 LINE",
"79 0 LINE",
"79 -63.719 LINE",
"115 -68 OFFCURVE",
"141 -80 OFFCURVE",
"141 -120 CURVE SMOOTH",
"141 -145 OFFCURVE",
"107 -159 OFFCURVE",
"76 -159 CURVE SMOOTH",
"60 -159 LINE",
"61 -197 LINE"
);
}
);
width = 228;
}
);
unicode = 00B8;
},
{
glyphname = ring.001;
lastChange = "2020-12-29 14:14:00 +0000";
layers = (
{
layerId = "A36D14D1-FF07-4574-A62D-30DF65569781";
paths = (
{
closed = 1;
nodes = (
"234.257 548.923 OFFCURVE",
"285 601.003 OFFCURVE",
"285 662 CURVE SMOOTH",
"285.077 724.257 OFFCURVE",
"232.997 775 OFFCURVE",
"172 775 CURVE SMOOTH",
"111.658 775 OFFCURVE",
"60 724.28 OFFCURVE",
"60 662 CURVE SMOOTH",
"60 599.72 OFFCURVE",
"111.658 549 OFFCURVE",
"172 549 CURVE SMOOTH"
);
},
{
closed = 1;
nodes = (
"133.333 594 OFFCURVE",
"104 623.333 OFFCURVE",
"104 662 CURVE SMOOTH",
"104 700.667 OFFCURVE",
"133.333 730 OFFCURVE",
"172 730 CURVE SMOOTH",
"210.667 730 OFFCURVE",
"240 700.667 OFFCURVE",
"240 662 CURVE SMOOTH",
"240 623.333 OFFCURVE",
"210.667 594 OFFCURVE",
"172 594 CURVE SMOOTH"
);
}
);
userData = {
assembly = "PUSHW[ ]	/* 1 value pushed */
32 
MDAP[1]	/* MoveDirectAbsPt */
PUSHW[ ]	/* 1 value pushed */
33 
MDAP[1]	/* MoveDirectAbsPt */
PUSHW[ ]	/* 1 value pushed */
32 
SRP0[ ]	/* SetRefPoint0 */
PUSHW[ ]	/* 1 value pushed */
0 
MDRP[10000]	/* MoveDirectRelPt */
PUSHW[ ]	/* 1 value pushed */
0 
MDAP[1]	/* MoveDirectAbsPt */
PUSHW[ ]	/* 1 value pushed */
33 
SRP0[ ]	/* SetRefPoint0 */
PUSHW[ ]	/* 1 value pushed */
10 
MDRP[11100]	/* MoveDirectRelPt */
PUSHW[ ]	/* 1 value pushed */
0 
SRP0[ ]	/* SetRefPoint0 */
PUSHW[ ]	/* 1 value pushed */
20 
MDRP[11100]	/* MoveDirectRelPt */
NPUSHW[ ]	/* 27 values pushed */
6 20 22 20 38 20 54 20 70 20 86 20 102 20 118 20 134 20 150 20 166 20 182 20 198 20 13 
DELTAP1[ ]	/* DeltaExceptionP1 */
NPUSHW[ ]	/* 5 values pushed */
213 20 229 20 2 
DELTAP1[ ]	/* DeltaExceptionP1 */
PUSHW[ ]	/* 1 value pushed */
10 
SRP0[ ]	/* SetRefPoint0 */
PUSHW[ ]	/* 1 value pushed */
26 
MDRP[11100]	/* MoveDirectRelPt */
NPUSHW[ ]	/* 5 values pushed */
218 26 234 26 2 
DELTAP1[ ]	/* DeltaExceptionP1 */
NPUSHW[ ]	/* 27 values pushed */
9 26 25 26 41 26 57 26 73 26 89 26 105 26 121 26 137 26 153 26 169 26 185 26 201 26 13 
DELTAP1[ ]	/* DeltaExceptionP1 */
SVTCA[0]	/* SetFreedomAndProjectionVectorToAxis */
PUSHW[ ]	/* 3 values pushed */
29 5 3 
CALL[ ]	/* CallFunction */
PUSHW[ ]	/* 1 value pushed */
29 
SRP0[ ]	/* SetRefPoint0 */
PUSHW[ ]	/* 3 values pushed */
15 23 3 
CALL[ ]	/* CallFunction */
PUSHW[ ]	/* 1 value pushed */
15 
SRP0[ ]	/* SetRefPoint0 */
IUP[0]	/* InterpolateUntPts */
IUP[1]	/* InterpolateUntPts */";
};
width = 345;
}
);
note = ring;
},
{
glyphname = uniE01B;
lastChange = "2020-12-29 14:14:00 +0000";
layers = (
{
layerId = "A36D14D1-FF07-4574-A62D-30DF65569781";
paths = (
{
closed = 1;
nodes = (
"128 571 LINE",
"203 714 LINE",
"93 714 LINE",
"60 571 LINE"
);
}
);
userData = {
assembly = "PUSHW[ ]	/* 1 value pushed */
20 
CALL[ ]	/* CallFunction */
SVTCA[0]	/* SetFreedomAndProjectionVectorToAxis */
PUSHW[ ]	/* 1 value pushed */
2 
MDAP[1]	/* MoveDirectAbsPt */
PUSHW[ ]	/* 1 value pushed */
1 
RCVT[ ]	/* ReadCVT */
IF[ ]	/* If */
PUSHW[ ]	/* 1 value pushed */
0 
MDAP[1]	/* MoveDirectAbsPt */
ELSE[ ]	/* Else */
PUSHW[ ]	/* 2 values pushed */
0 10 
MIAP[0]	/* MoveIndirectAbsPt */
EIF[ ]	/* EndIf */
IUP[0]	/* InterpolateUntPts */
IUP[1]	/* InterpolateUntPts */";
};
width = 243;
}
);
note = uniE01B;
},
{
glyphname = aPh.base;
lastChange = "2020-12-30 03:21:06 +0000";
layers = (
{
anchors = (
{
name = belt;
position = "{230, 284}";
},
{
name = haa;
position = "{280, -2}";
},
{
name = haa.acute;
position = "{266, -3}";
},
{
name = hee;
position = "{270, -14}";
},
{
name = hi;
position = "{289, -139}";
},
{
name = ho;
position = "{412, -1}";
},
{
name = hu;
position = "{452, 284}";
},
{
name = hwa;
position = "{308, 1}";
},
{
name = neck;
position = "{247, 502}";
}
);
layerId = "A36D14D1-FF07-4574-A62D-30DF65569781";
paths = (
{
closed = 1;
nodes = (
"410 0 LINE SMOOTH",
"433 0 OFFCURVE",
"451 18 OFFCURVE",
"451 41 CURVE SMOOTH",
"451 459 LINE SMOOTH",
"451 482 OFFCURVE",
"433 500 OFFCURVE",
"410 500 CURVE SMOOTH",
"91 500 LINE SMOOTH",
"68 500 OFFCURVE",
"50 482 OFFCURVE",
"50 459 CURVE SMOOTH",
"50 41 LINE SMOOTH",
"50 18 OFFCURVE",
"68 0 OFFCURVE",
"91 0 CURVE SMOOTH"
);
},
{
closed = 1;
nodes = (
"140 41 OFFCURVE",
"131 50 OFFCURVE",
"131 61 CURVE SMOOTH",
"131 439 LINE SMOOTH",
"131 450 OFFCURVE",
"140 459 OFFCURVE",
"151 459 CURVE SMOOTH",
"350 459 LINE SMOOTH",
"361 459 OFFCURVE",
"370 450 OFFCURVE",
"370 439 CURVE SMOOTH",
"370 61 LINE SMOOTH",
"370 50 OFFCURVE",
"361 41 OFFCURVE",
"350 41 CURVE SMOOTH",
"151 41 LINE SMOOTH"
);
}
);
width = 501;
}
);
},
{
glyphname = ba.base;
lastChange = "2020-12-30 03:22:21 +0000";
layers = (
{
anchors = (
{
name = aGl;
position = "{223, 537}";
},
{
name = eGl;
position = "{199, 541}";
},
{
name = haa;
position = "{410, 1}";
},
{
name = hat;
position = "{241, 636}";
},
{
name = hat.left;
position = "{105, 635}";
},
{
name = hat.low;
position = "{242, 550}";
},
{
name = he;
position = "{134, 287}";
},
{
name = he.acute;
position = "{255, 491}";
},
{
name = hee;
position = "{405, -20}";
},
{
name = hi;
position = "{440, 42}";
},
{
name = ho;
position = "{89, 3}";
},
{
name = hu;
position = "{454, 283}";
},
{
name = hwa;
position = "{414, 1}";
},
{
name = ka;
position = "{98, 526}";
},
{
name = neck;
position = "{249, 503}";
},
{
name = top;
position = "{315, 375}";
}
);
layerId = "A36D14D1-FF07-4574-A62D-30DF65569781";
paths = (
{
closed = 1;
nodes = (
"111 0 LINE SMOOTH",
"122 0 OFFCURVE",
"131 9 OFFCURVE",
"131 20 CURVE SMOOTH",
"131 439 LINE SMOOTH",
"131 450 OFFCURVE",
"140 459 OFFCURVE",
"151 459 CURVE SMOOTH",
"350 459 LINE SMOOTH",
"361 459 OFFCURVE",
"370 450 OFFCURVE",
"370 439 CURVE SMOOTH",
"370 20 LINE SMOOTH",
"370 9 OFFCURVE",
"379 0 OFFCURVE",
"390 0 CURVE SMOOTH",
"431 0 LINE SMOOTH",
"442 0 OFFCURVE",
"451 9 OFFCURVE",
"451 20 CURVE SMOOTH",
"451 449 LINE SMOOTH",
"451 478 OFFCURVE",
"429 500 OFFCURVE",
"400 500 CURVE SMOOTH",
"101 500 LINE SMOOTH",
"72 500 OFFCURVE",
"50 478 OFFCURVE",
"50 449 CURVE SMOOTH",
"50 20 LINE SMOOTH",
"50 9 OFFCURVE",
"59 0 OFFCURVE",
"70 0 CURVE SMOOTH"
);
}
);
width = 501;
}
);
},
{
glyphname = da.base;
lastChange = "2020-12-30 02:35:29 +0000";
layers = (
{
anchors = (
{
name = haa;
position = "{428, -9}";
},
{
name = hat;
position = "{240, 645}";
},
{
name = he;
position = "{452, 283}";
},
{
name = hee;
position = "{431, -27}";
},
{
name = hi;
position = "{433, -42}";
},
{
name = ho;
position = "{96, 0}";
},
{
name = hu;
position = "{408, 139}";
},
{
name = hwa;
position = "{433, -8}";
},
{
name = neck;
position = "{252, 505}";
}
);
layerId = "A36D14D1-FF07-4574-A62D-30DF65569781";
paths = (
{
closed = 1;
nodes = (
"111 0 LINE SMOOTH",
"122 0 OFFCURVE",
"131 9 OFFCURVE",
"131 20 CURVE SMOOTH",
"131 45 LINE",
"410 45 LINE",
"410 20 LINE SMOOTH",
"410 9 OFFCURVE",
"419 0 OFFCURVE",
"430 0 CURVE SMOOTH",
"431 0 LINE SMOOTH",
"442 0 OFFCURVE",
"451 9 OFFCURVE",
"451 20 CURVE SMOOTH",
"451 70 LINE",
"449.315 79.59 OFFCURVE",
"440.981 87 OFFCURVE",
"431 87 CURVE SMOOTH",
"131 87 LINE",
"131 190 LINE",
"400 190 LINE SMOOTH",
"429 190 OFFCURVE",
"451 212 OFFCURVE",
"451 241 CURVE SMOOTH",
"451 450 LINE",
"450.947 451.463 LINE SMOOTH",
"450 479 OFFCURVE",
"428.173 500 OFFCURVE",
"400 500 CURVE SMOOTH",
"101 500 LINE SMOOTH",
"72.827 500 OFFCURVE",
"51 479 OFFCURVE",
"50.053 451.463 CURVE SMOOTH",
"50 450 LINE",
"50 20 LINE SMOOTH",
"50 9 OFFCURVE",
"59 0 OFFCURVE",
"70 0 CURVE SMOOTH"
);
},
{
closed = 1;
nodes = (
"140 231 OFFCURVE",
"131 240 OFFCURVE",
"131 251 CURVE SMOOTH",
"131 439 LINE SMOOTH",
"131 450 OFFCURVE",
"140 459 OFFCURVE",
"151 459 CURVE SMOOTH",
"350 459 LINE SMOOTH",
"361 459 OFFCURVE",
"370 450 OFFCURVE",
"370 439 CURVE SMOOTH",
"370 251 LINE SMOOTH",
"370 240 OFFCURVE",
"361 231 OFFCURVE",
"350 231 CURVE SMOOTH",
"151 231 LINE SMOOTH"
);
}
);
width = 501;
}
);
},
{
glyphname = fa.base;
lastChange = "2020-12-30 02:32:35 +0000";
layers = (
{
anchors = (
{
name = haa;
position = "{277, 5}";
},
{
name = haa.acute;
position = "{479, 76}";
},
{
name = hee;
position = "{408, 261}";
},
{
name = hwa;
position = "{291, -6}";
},
{
name = ring;
position = "{376, 475}";
},
{
name = top;
position = "{225, 264}";
}
);
layerId = "A36D14D1-FF07-4574-A62D-30DF65569781";
paths = (
{
closed = 1;
nodes = (
"400 0 LINE SMOOTH",
"429 0 OFFCURVE",
"451 22 OFFCURVE",
"451 51 CURVE SMOOTH",
"451 76 LINE",
"370 78 LINE",
"370 61 LINE SMOOTH",
"370 50 OFFCURVE",
"361 41 OFFCURVE",
"350 41 CURVE SMOOTH",
"151 41 LINE SMOOTH",
"140 41 OFFCURVE",
"131 50 OFFCURVE",
"131 61 CURVE SMOOTH",
"131 480 LINE SMOOTH",
"131 491 OFFCURVE",
"122 500 OFFCURVE",
"111 500 CURVE SMOOTH",
"70 500 LINE SMOOTH",
"59 500 OFFCURVE",
"50 491 OFFCURVE",
"50 480 CURVE SMOOTH",
"50 51 LINE SMOOTH",
"50 22 OFFCURVE",
"72 0 OFFCURVE",
"101 0 CURVE SMOOTH"
);
},
{
closed = 1;
nodes = (
"304 44 LINE",
"304 265 LINE SMOOTH",
"304 276 OFFCURVE",
"295 285 OFFCURVE",
"284 285 CURVE SMOOTH",
"134 285 LINE",
"135 244 LINE",
"263 244 LINE",
"263 44 LINE"
);
}
);
width = 501;
}
);
},
{
glyphname = ga.base;
lastChange = "2020-12-30 02:35:12 +0000";
layers = (
{
anchors = (
{
name = haa.acute;
position = "{391, 92}";
},
{
name = hat;
position = "{242, 651}";
},
{
name = he;
position = "{356, 289}";
},
{
name = hee;
position = "{410, -16}";
},
{
name = hi;
position = "{456, 32}";
},
{
name = ho.ring;
position = "{196, 367}";
},
{
name = hu;
position = "{452, 287}";
},
{
name = hwa;
position = "{403, 8}";
},
{
name = neck;
position = "{247, 510}";
},
{
name = ring;
position = "{167, 575}";
}
);
layerId = "A36D14D1-FF07-4574-A62D-30DF65569781";
paths = (
{
closed = 1;
nodes = (
"431 10 LINE SMOOTH",
"442 10 OFFCURVE",
"451 19 OFFCURVE",
"451 30 CURVE SMOOTH",
"451 459 LINE SMOOTH",
"451 488 OFFCURVE",
"429 510 OFFCURVE",
"400 510 CURVE SMOOTH",
"101 510 LINE SMOOTH",
"72 510 OFFCURVE",
"50 488 OFFCURVE",
"50 459 CURVE SMOOTH",
"50 434 LINE",
"131 432 LINE",
"131 449 LINE SMOOTH",
"131 460 OFFCURVE",
"140 469 OFFCURVE",
"151 469 CURVE SMOOTH",
"350 469 LINE SMOOTH",
"361 469 OFFCURVE",
"370 460 OFFCURVE",
"370 449 CURVE SMOOTH",
"370 30 LINE SMOOTH",
"370 19 OFFCURVE",
"379 10 OFFCURVE",
"390 10 CURVE SMOOTH"
);
}
);
width = 501;
}
);
},
{
glyphname = ha.base;
lastChange = "2020-12-29 23:50:03 +0000";
layers = (
{
anchors = (
{
name = haa;
position = "{402, -3}";
},
{
name = he;
position = "{132, 288}";
},
{
name = hee;
position = "{340, -10}";
},
{
name = hi;
position = "{409, -142}";
},
{
name = ho.ring;
position = "{391, 456}";
},
{
name = hu;
position = "{454, 289}";
},
{
name = hwa;
position = "{403, -12}";
}
);
layerId = "A36D14D1-FF07-4574-A62D-30DF65569781";
paths = (
{
closed = 1;
nodes = (
"400 0 LINE SMOOTH",
"429 0 OFFCURVE",
"451 22 OFFCURVE",
"451 51 CURVE SMOOTH",
"451 480 LINE SMOOTH",
"451 491 OFFCURVE",
"442 500 OFFCURVE",
"431 500 CURVE SMOOTH",
"390 500 LINE SMOOTH",
"379 500 OFFCURVE",
"370 491 OFFCURVE",
"370 480 CURVE SMOOTH",
"370 61 LINE SMOOTH",
"370 50 OFFCURVE",
"361 41 OFFCURVE",
"350 41 CURVE SMOOTH",
"151 41 LINE SMOOTH",
"140 41 OFFCURVE",
"131 50 OFFCURVE",
"131 61 CURVE SMOOTH",
"131 480 LINE SMOOTH",
"131 491 OFFCURVE",
"122 500 OFFCURVE",
"111 500 CURVE SMOOTH",
"70 500 LINE SMOOTH",
"59 500 OFFCURVE",
"50 491 OFFCURVE",
"50 480 CURVE SMOOTH",
"50 51 LINE SMOOTH",
"50 22 OFFCURVE",
"72 0 OFFCURVE",
"101 0 CURVE SMOOTH"
);
}
);
width = 501;
}
);
},
{
glyphname = hha.base;
lastChange = "2020-12-30 02:34:44 +0000";
layers = (
{
anchors = (
{
name = cha;
position = "{387, 56}";
},
{
name = haa;
position = "{646, -4}";
},
{
name = haa.acute;
position = "{487, -131}";
},
{
name = he.acute;
position = "{379, 487}";
},
{
name = hee;
position = "{570, -12}";
},
{
name = hi;
position = "{686, 36}";
},
{
name = ho;
position = "{126, 3}";
},
{
name = hu;
position = "{685, 288}";
},
{
name = hwa;
position = "{646, -4}";
},
{
name = neck;
position = "{383, 504}";
}
);
layerId = "A36D14D1-FF07-4574-A62D-30DF65569781";
paths = (
{
closed = 1;
nodes = (
"154 0 LINE SMOOTH",
"165 0 OFFCURVE",
"174 9 OFFCURVE",
"174 20 CURVE SMOOTH",
"174 439 LINE SMOOTH",
"174 450 OFFCURVE",
"183 459 OFFCURVE",
"194 459 CURVE SMOOTH",
"324 459 LINE SMOOTH",
"335 459 OFFCURVE",
"339 450 OFFCURVE",
"339 439 CURVE SMOOTH",
"339 20 LINE SMOOTH",
"339 9 OFFCURVE",
"352 0 OFFCURVE",
"363 0 CURVE SMOOTH",
"396 0 LINE SMOOTH",
"407 0 OFFCURVE",
"420 9 OFFCURVE",
"420 20 CURVE SMOOTH",
"420 439 LINE SMOOTH",
"420 450 OFFCURVE",
"426 459 OFFCURVE",
"437 459 CURVE SMOOTH",
"579 459 LINE SMOOTH",
"590 459 OFFCURVE",
"601 450 OFFCURVE",
"601 439 CURVE SMOOTH",
"601 20 LINE SMOOTH",
"601 9 OFFCURVE",
"606 0 OFFCURVE",
"617 0 CURVE SMOOTH",
"661 0 LINE SMOOTH",
"672 0 OFFCURVE",
"671 9 OFFCURVE",
"671 20 CURVE SMOOTH",
"671 480 LINE SMOOTH",
"671 491 OFFCURVE",
"660 500 OFFCURVE",
"640 500 CURVE",
"119 500 LINE",
"108 499 OFFCURVE",
"100 491 OFFCURVE",
"100 480 CURVE SMOOTH",
"100 20 LINE SMOOTH",
"100 9 OFFCURVE",
"109 0 OFFCURVE",
"120 0 CURVE SMOOTH"
);
}
);
width = 781;
}
);
},
{
glyphname = la.base;
lastChange = "2020-12-30 00:06:02 +0000";
layers = (
{
anchors = (
{
name = haa;
position = "{428, -1}";
},
{
name = hee;
position = "{351, -6}";
},
{
name = hi;
position = "{434, 42}";
},
{
name = ho.ring;
position = "{454, 275}";
},
{
name = hu;
position = "{444, 280}";
},
{
name = hwa;
position = "{428, -1}";
},
{
name = ring;
position = "{124, 75}";
}
);
layerId = "A36D14D1-FF07-4574-A62D-30DF65569781";
paths = (
{
closed = 1;
nodes = (
"111 0 LINE SMOOTH",
"122 0 OFFCURVE",
"125 8 OFFCURVE",
"125 20 CURVE SMOOTH",
"125 365 LINE",
"367 431.664 LINE",
"367 20 LINE SMOOTH",
"367 9 OFFCURVE",
"376 0 OFFCURVE",
"387 0 CURVE SMOOTH",
"428 0 LINE SMOOTH",
"439 0 OFFCURVE",
"448 9 OFFCURVE",
"448 20 CURVE SMOOTH",
"448 481 LINE SMOOTH",
"448 492 OFFCURVE",
"432 501 OFFCURVE",
"406 501 CURVE SMOOTH",
"396.599 501 OFFCURVE",
"388.368 499.664 OFFCURVE",
"381.921 496.786 CURVE",
"378 496 LINE",
"125 426 LINE",
"125 680 LINE",
"125 691 OFFCURVE",
"116 700 OFFCURVE",
"105 700 CURVE SMOOTH",
"70 700 LINE SMOOTH",
"59 700 OFFCURVE",
"50 691 OFFCURVE",
"50 680 CURVE SMOOTH",
"50 20 LINE SMOOTH",
"50 9 OFFCURVE",
"59 0 OFFCURVE",
"70 0 CURVE SMOOTH"
);
}
);
width = 501;
}
);
},
{
glyphname = ma.base;
lastChange = "2020-12-30 00:06:41 +0000";
layers = (
{
anchors = (
{
name = haa;
position = "{618, 0}";
},
{
name = haa.acute;
position = "{293, -17}";
},
{
name = he;
position = "{206, -142}";
},
{
name = hee;
position = "{543, -15}";
},
{
name = hi;
position = "{626, -138}";
},
{
name = ho;
position = "{287, -6}";
},
{
name = hu;
position = "{661, 285}";
},
{
name = hwa;
position = "{612, -4}";
},
{
name = top;
position = "{452, 504}";
}
);
layerId = "A36D14D1-FF07-4574-A62D-30DF65569781";
paths = (
{
closed = 1;
nodes = (
"140 47 OFFCURVE",
"131 56 OFFCURVE",
"131 67 CURVE SMOOTH",
"131 433 LINE SMOOTH",
"131 444 OFFCURVE",
"140 453 OFFCURVE",
"151 453 CURVE SMOOTH",
"256 453 LINE",
"256 47 LINE",
"151 47 LINE SMOOTH"
);
},
{
closed = 1;
nodes = (
"382 0 LINE",
"611 0 LINE SMOOTH",
"634 0 OFFCURVE",
"652 18 OFFCURVE",
"652 41 CURVE SMOOTH",
"652 459 LINE SMOOTH",
"652 482 OFFCURVE",
"634 500 OFFCURVE",
"611 500 CURVE SMOOTH",
"91 500 LINE SMOOTH",
"68 500 OFFCURVE",
"50 482 OFFCURVE",
"50 459 CURVE SMOOTH",
"50 41 LINE SMOOTH",
"50 18 OFFCURVE",
"68 0 OFFCURVE",
"91 0 CURVE SMOOTH",
"324 0 LINE",
"326 41 LINE",
"327 67 LINE",
"327 433 LINE SMOOTH",
"327 444 OFFCURVE",
"340.46 452.45 OFFCURVE",
"351 452.975 CURVE SMOOTH",
"361.54 452.45 OFFCURVE",
"375 444 OFFCURVE",
"375 433 CURVE SMOOTH",
"375 67 LINE",
"377 48 LINE"
);
},
{
closed = 1;
nodes = (
"446 453 LINE",
"551 453 LINE SMOOTH",
"562 453 OFFCURVE",
"571 444 OFFCURVE",
"571 433 CURVE SMOOTH",
"571 67 LINE SMOOTH",
"571 56 OFFCURVE",
"562 47 OFFCURVE",
"551 47 CURVE SMOOTH",
"446 47 LINE"
);
}
);
width = 702;
}
);
},
{
glyphname = na.base;
lastChange = "2020-12-30 01:04:30 +0000";
layers = (
{
anchors = (
{
name = haa.acute;
position = "{321, 181}";
},
{
name = hat;
position = "{106, 674}";
},
{
name = he;
position = "{-33, 581}";
},
{
name = hee;
position = "{343, -6}";
},
{
name = hi;
position = "{373, 43}";
},
{
name = hu;
position = "{382, 284}";
},
{
name = hwa;
position = "{344, 2}";
}
);
layerId = "A36D14D1-FF07-4574-A62D-30DF65569781";
paths = (
{
closed = 1;
nodes = (
"361 0 LINE SMOOTH",
"372 0 OFFCURVE",
"381 9 OFFCURVE",
"381 20 CURVE SMOOTH",
"381 459 LINE SMOOTH",
"381 482 OFFCURVE",
"363 500 OFFCURVE",
"340 500 CURVE SMOOTH",
"151 500 LINE SMOOTH",
"140 500 OFFCURVE",
"131 509 OFFCURVE",
"131 520 CURVE SMOOTH",
"131 678 LINE SMOOTH",
"131 689 OFFCURVE",
"122 698 OFFCURVE",
"111 698 CURVE SMOOTH",
"71 699 LINE SMOOTH",
"59 699 OFFCURVE",
"50 690 OFFCURVE",
"50 678 CURVE SMOOTH",
"50 479 LINE SMOOTH",
"50 468 OFFCURVE",
"59 459 OFFCURVE",
"70 459 CURVE SMOOTH",
"280 459 LINE SMOOTH",
"291 459 OFFCURVE",
"300 450 OFFCURVE",
"300 439 CURVE SMOOTH",
"300 20 LINE SMOOTH",
"300 9 OFFCURVE",
"309 0 OFFCURVE",
"320 0 CURVE SMOOTH"
);
}
);
width = 431;
}
);
},
{
glyphname = pa.base;
lastChange = "2020-12-30 01:26:46 +0000";
layers = (
{
anchors = (
{
name = haa;
position = "{310, 69}";
},
{
name = hat;
position = "{245, 660}";
},
{
name = he;
position = "{116, 43}";
},
{
name = he.acute;
position = "{252, 487}";
},
{
name = hee;
position = "{252, -12}";
},
{
name = hi;
position = "{297, 46}";
},
{
name = ho.ring;
position = "{335, 611}";
},
{
name = hu;
position = "{298, 286}";
},
{
name = hwa;
position = "{250, 5}";
},
{
name = neck;
position = "{258, 503}";
}
);
layerId = "A36D14D1-FF07-4574-A62D-30DF65569781";
paths = (
{
closed = 1;
nodes = (
"70 500 LINE",
"59 500 OFFCURVE",
"50 491 OFFCURVE",
"50 480 CURVE SMOOTH",
"50 479 LINE SMOOTH",
"50 468 OFFCURVE",
"59 459 OFFCURVE",
"70 459 CURVE SMOOTH",
"194 459 LINE SMOOTH",
"205 459 OFFCURVE",
"214 450 OFFCURVE",
"214 439 CURVE SMOOTH",
"214 20 LINE SMOOTH",
"214 9 OFFCURVE",
"223 0 OFFCURVE",
"234 0 CURVE SMOOTH",
"275 0 LINE SMOOTH",
"286 0 OFFCURVE",
"295 9 OFFCURVE",
"295 20 CURVE SMOOTH",
"295 439 LINE SMOOTH",
"295 450 OFFCURVE",
"304 459 OFFCURVE",
"315 459 CURVE SMOOTH",
"439 459 LINE SMOOTH",
"450 459 OFFCURVE",
"459 468 OFFCURVE",
"459 479 CURVE SMOOTH",
"459 480 LINE SMOOTH",
"459 491 OFFCURVE",
"450 500 OFFCURVE",
"439 500 CURVE"
);
}
);
width = 509;
}
);
},
{
glyphname = ra.base;
lastChange = "2020-12-30 01:46:17 +0000";
layers = (
{
anchors = (
{
name = haa;
position = "{274, -1}";
},
{
name = haa.acute;
position = "{425, 84}";
},
{
name = hat;
position = "{89, 503}";
},
{
name = hee;
position = "{398, 298}";
}
);
layerId = "A36D14D1-FF07-4574-A62D-30DF65569781";
paths = (
{
closed = 1;
nodes = (
"400 0 LINE SMOOTH",
"429 0 OFFCURVE",
"447 22 OFFCURVE",
"446 51 CURVE SMOOTH",
"445 91 LINE",
"404 93 LINE",
"401 61 LINE SMOOTH",
"400 50 OFFCURVE",
"392 41 OFFCURVE",
"381 41 CURVE SMOOTH",
"151 41 LINE SMOOTH",
"140 41 OFFCURVE",
"131 50 OFFCURVE",
"131 61 CURVE SMOOTH",
"131 480 LINE SMOOTH",
"131 491 OFFCURVE",
"122 500 OFFCURVE",
"111 500 CURVE SMOOTH",
"70 500 LINE SMOOTH",
"59 500 OFFCURVE",
"50 491 OFFCURVE",
"50 480 CURVE SMOOTH",
"50 51 LINE SMOOTH",
"50 22 OFFCURVE",
"72 0 OFFCURVE",
"101 0 CURVE SMOOTH"
);
}
);
width = 501;
}
);
},
{
glyphname = re.base;
lastChange = "2020-12-30 01:46:50 +0000";
layers = (
{
anchors = (
{
name = haa;
position = "{410, 3}";
},
{
name = hat;
position = "{228, 660}";
},
{
name = he;
position = "{-13, 282}";
},
{
name = ho.ring;
position = "{499, 343}";
},
{
name = hwa;
position = "{398, 0}";
},
{
name = top;
position = "{251, 504}";
}
);
layerId = "A36D14D1-FF07-4574-A62D-30DF65569781";
paths = (
{
closed = 1;
nodes = (
"370 67 LINE",
"370 56 OFFCURVE",
"361 47 OFFCURVE",
"350 47 CURVE SMOOTH",
"151 47 LINE SMOOTH",
"140 47 OFFCURVE",
"131 56 OFFCURVE",
"131 67 CURVE SMOOTH",
"131 433 LINE SMOOTH",
"131 444 OFFCURVE",
"140 453 OFFCURVE",
"151 453 CURVE SMOOTH",
"350 453 LINE SMOOTH",
"361 453 OFFCURVE",
"370 444 OFFCURVE",
"370 433 CURVE SMOOTH",
"370 428 LINE",
"451 429 LINE",
"451 459 LINE SMOOTH",
"451 482 OFFCURVE",
"433 500 OFFCURVE",
"410 500 CURVE SMOOTH",
"91 500 LINE SMOOTH",
"68 500 OFFCURVE",
"50 482 OFFCURVE",
"50 459 CURVE SMOOTH",
"50 41 LINE SMOOTH",
"50 18 OFFCURVE",
"68 0 OFFCURVE",
"91 0 CURVE SMOOTH",
"410 0 LINE SMOOTH",
"433 0 OFFCURVE",
"451 18 OFFCURVE",
"451 41 CURVE SMOOTH",
"451 69 LINE"
);
}
);
width = 501;
}
);
},
{
glyphname = sa.base;
lastChange = "2020-12-30 00:06:56 +0000";
layers = (
{
anchors = (
{
name = haa;
position = "{584, -9}";
},
{
name = haa.acute;
position = "{326, -16}";
},
{
name = hee;
position = "{520, -25}";
},
{
name = hi;
position = "{588, -148}";
},
{
name = ho;
position = "{80, -15}";
},
{
name = hu;
position = "{628, 287}";
},
{
name = hwa;
position = "{583, -8}";
}
);
layerId = "A36D14D1-FF07-4574-A62D-30DF65569781";
paths = (
{
closed = 1;
nodes = (
"59 500 OFFCURVE",
"50 491 OFFCURVE",
"50 480 CURVE SMOOTH",
"50 20 LINE SMOOTH",
"50 9 OFFCURVE",
"58 1 OFFCURVE",
"69 0 CURVE",
"590 0 LINE",
"610 0 OFFCURVE",
"621 9 OFFCURVE",
"621 20 CURVE SMOOTH",
"621 480 LINE SMOOTH",
"621 491 OFFCURVE",
"622 500 OFFCURVE",
"611 500 CURVE SMOOTH",
"567 500 LINE SMOOTH",
"556 500 OFFCURVE",
"551 491 OFFCURVE",
"551 480 CURVE SMOOTH",
"551 61 LINE SMOOTH",
"551 50 OFFCURVE",
"540 41 OFFCURVE",
"529 41 CURVE SMOOTH",
"387 41 LINE SMOOTH",
"376 41 OFFCURVE",
"370 50 OFFCURVE",
"370 61 CURVE SMOOTH",
"370 480 LINE SMOOTH",
"370 491 OFFCURVE",
"357 500 OFFCURVE",
"346 500 CURVE SMOOTH",
"313 500 LINE SMOOTH",
"302 500 OFFCURVE",
"289 491 OFFCURVE",
"289 480 CURVE SMOOTH",
"289 61 LINE SMOOTH",
"289 50 OFFCURVE",
"285 41 OFFCURVE",
"274 41 CURVE SMOOTH",
"144 41 LINE SMOOTH",
"133 41 OFFCURVE",
"124 50 OFFCURVE",
"124 61 CURVE SMOOTH",
"124 480 LINE SMOOTH",
"124 491 OFFCURVE",
"115 500 OFFCURVE",
"104 500 CURVE SMOOTH",
"70 500 LINE SMOOTH"
);
}
);
width = 671;
}
);
},
{
glyphname = tsa.base;
lastChange = "2020-12-30 02:24:43 +0000";
layers = (
{
anchors = (
{
name = haa;
position = "{403, -3}";
},
{
name = hat;
position = "{237, 635}";
},
{
name = he;
position = "{454, 404}";
},
{
name = hee;
position = "{395, -20}";
},
{
name = hi;
position = "{428, 43}";
},
{
name = ho;
position = "{83, -4}";
},
{
name = hu;
position = "{435, 202}";
},
{
name = hwa;
position = "{394, -3}";
},
{
name = neck;
position = "{254, 503}";
}
);
layerId = "A36D14D1-FF07-4574-A62D-30DF65569781";
paths = (
{
closed = 1;
nodes = (
"444 -2 OFFCURVE",
"451 22 OFFCURVE",
"451 51 CURVE SMOOTH",
"451 203 LINE SMOOTH",
"451 232 OFFCURVE",
"429 245 OFFCURVE",
"400 254 CURVE SMOOTH",
"146 329 LINE SMOOTH",
"137 332 OFFCURVE",
"130 341 OFFCURVE",
"130 350 CURVE SMOOTH",
"130 439 LINE SMOOTH",
"130 447 OFFCURVE",
"140 452 OFFCURVE",
"151 452 CURVE SMOOTH",
"380 452 LINE SMOOTH",
"393 452 OFFCURVE",
"403 442 OFFCURVE",
"403 429 CURVE SMOOTH",
"403 387 LINE SMOOTH",
"403 371 OFFCURVE",
"393 363 OFFCURVE",
"380 356 CURVE SMOOTH",
"217 269 LINE",
"217 220 LINE",
"423 322 LINE SMOOTH",
"436 329 OFFCURVE",
"451 342 OFFCURVE",
"451 359 CURVE SMOOTH",
"451 449 LINE SMOOTH",
"451 478 OFFCURVE",
"429 500 OFFCURVE",
"400 500 CURVE SMOOTH",
"101 500 LINE SMOOTH",
"72 500 OFFCURVE",
"50 478 OFFCURVE",
"50 449 CURVE SMOOTH",
"50 305 LINE SMOOTH",
"50 291 OFFCURVE",
"60 285 OFFCURVE",
"74 281 CURVE SMOOTH",
"340 201 LINE SMOOTH",
"360 195 OFFCURVE",
"370 197 OFFCURVE",
"370 189 CURVE SMOOTH",
"370 71 LINE SMOOTH",
"370 2 OFFCURVE",
"382 0 OFFCURVE",
"413 0 CURVE"
);
},
{
closed = 1;
nodes = (
"110 58 LINE",
"110 170 LINE SMOOTH",
"110 178 OFFCURVE",
"134 186 OFFCURVE",
"141 189 CURVE SMOOTH",
"299 254 LINE",
"299 305 LINE",
"60 205 LINE SMOOTH",
"53 202 OFFCURVE",
"48 194 OFFCURVE",
"48 186 CURVE SMOOTH",
"48 28 LINE SMOOTH",
"48 2 OFFCURVE",
"66 -3 OFFCURVE",
"82 -3 CURVE SMOOTH",
"97 -3 OFFCURVE",
"110 -1 OFFCURVE",
"110 17 CURVE SMOOTH"
);
}
);
width = 501;
}
);
},
